<?xml version="1.0" encoding="UTF-8"?>
<svg width="82px" height="101px" viewBox="0 0 82 101" version="1.1" xmlns="http://www.w3.org/2000/svg" xmlns:xlink="http://www.w3.org/1999/xlink">
    <!-- Generator: Sketch 51.3 (57544) - http://www.bohemiancoding.com/sketch -->
    <title>Group</title>
    <desc>Created with Sketch.</desc>
    <defs></defs>
    <g id="Page-1" stroke="none" stroke-width="1" fill="none" fill-rule="evenodd">
        <g id="197_snub_nose_monkey_round_hipster_vintage" transform="translate(-2152.000000, -1852.000000)">
            <g id="Group" transform="translate(2152.000000, 1852.000000)">
                <path d="M46.9691472,100.812536 C46.2633436,100.812536 45.5210675,100.755645 44.7629448,100.644119 C36.5918712,99.4411414 32.5145092,95.8976203 31.5428344,89.1536774 C31.3114233,87.537928 31.3642454,85.1640521 31.4502699,83.0337792 C31.2807362,82.1247792 30.7701227,80.6558933 29.9647117,78.7466675 C29.8623374,78.8782432 29.7262577,78.9852581 29.5652761,79.053928 C29.4377485,79.108062 29.3034294,79.1343772 29.1703681,79.1343772 C28.897454,79.1343772 28.6300736,79.0238536 28.435638,78.8170918 L26.7377853,77.0103697 C26.516184,76.7765409 21.2279387,71.1072581 18.528227,61.1977295 C17.6237117,57.8752556 17.5002086,54.6527792 18.1599816,51.6137568 C17.148816,47.5820273 14.0982147,44.9299628 9.08967485,43.7292407 C6.79845399,43.181134 4.57464417,43.0660993 3.11247853,43.0660993 C1.93479755,43.0660993 1.20333742,43.1390298 1.19604294,43.1397816 C1.16183436,43.1435409 1.12737423,43.1450447 1.09341718,43.1450447 C0.689202454,43.1450447 0.318693252,42.903196 0.16198773,42.5250099 C-0.00754601227,42.114995 0.111429448,41.6425757 0.457539877,41.3636352 C0.557398773,41.2831861 1.40909202,40.6187916 2.92810429,40.1142928 C4.15458282,37.4111017 8.79085276,28.6110695 17.5361779,27.5745037 C18.3031043,25.4868362 19.3540123,23.3868883 20.6657607,21.3230298 C25.3732147,13.9139404 31.4246135,11.1811762 34.067227,10.2957345 C39.1006687,4.84173449 45.1442699,2.0766402 52.0337791,2.0766402 C55.3743988,2.0766402 58.1110859,2.72875434 59.7463067,3.11796774 L59.9352086,3.1630794 C66.6853681,4.76830273 71.384773,8.81832754 73.9036319,15.1998734 C75.9448282,20.3711737 76.0761288,25.8519901 76.1543558,29.1265955 L76.1551104,29.1544144 C76.8780184,31.0508586 77.3086442,33.5207221 77.5506196,35.3765658 C78.8739387,37.0351712 79.2688466,38.6689653 79.376,39.685732 C81.7107362,42.3372953 82.4628221,45.6134045 81.5085031,48.9784839 C81.943908,50.5786948 81.8367546,52.4593499 81.1888037,54.5750868 C80.4633804,56.9376849 79.402411,58.6356377 78.5132393,59.873201 C78.504184,60.0225707 78.4926135,60.1684318 78.4812945,60.311536 C78.466454,60.5005037 78.4511104,60.6904739 78.4433129,60.883201 C78.067773,70.0333499 73.9411104,73.2372804 71.2104601,75.3572779 L71.0449509,75.4860968 C70.3290859,76.0414715 69.0990859,77.0158834 67.9473129,77.9301464 C66.9658282,80.3576551 65.4382638,82.7448139 63.4031043,85.0307221 C61.8866074,86.7374467 60.9051227,88.3607146 60.5655521,89.7255931 C59.7488221,93.0014516 57.9772699,95.403397 55.298184,96.8690248 C54.1325767,98.4286352 51.5935951,100.812536 46.9691472,100.812536" id="Fill-4" fill="#2D2D2D"></path>
                <path d="M46.9691472,98.7401563 C46.2633436,98.7401563 45.5210675,98.6835161 44.7629448,98.5719901 C36.5918712,97.3690124 32.5145092,93.8252407 31.5428344,87.0815484 C31.3114233,85.465799 31.3642454,83.0916725 31.4502699,80.9613995 C31.2807362,80.0523995 30.7701227,78.5837643 29.9647117,76.6742878 C29.8623374,76.8061141 29.7262577,76.913129 29.5652761,76.9815484 C29.4377485,77.035933 29.3034294,77.0619975 29.1703681,77.0619975 C28.897454,77.0619975 28.6300736,76.9517246 28.435638,76.7449628 L26.7377853,74.9382407 C26.516184,74.7041613 21.2279387,69.0348784 18.528227,59.1253499 C17.6237117,55.8028759 17.5002086,52.5806501 18.1599816,49.5416278 C17.148816,45.5098983 14.0982147,42.8578337 9.08967485,41.6571117 C6.79845399,41.1087543 4.57464417,40.9937196 3.11247853,40.9937196 C1.93479755,40.9937196 1.20333742,41.0666501 1.19604294,41.067402 C1.16183436,41.0711613 1.12737423,41.0729156 1.09341718,41.0729156 C0.689202454,41.0729156 0.318693252,40.8308164 0.16198773,40.4526303 C-0.00754601227,40.0426154 0.111429448,39.5704467 0.457539877,39.2912556 C0.557398773,39.2108065 1.40909202,38.5466625 2.92810429,38.0419132 C4.15458282,35.3389727 8.79085276,26.5389404 17.5361779,25.5023747 C18.3031043,23.4147072 19.3540123,21.3147593 20.6657607,19.2509007 C25.3732147,11.8415608 31.4246135,9.10904715 34.067227,8.22335484 C39.1006687,2.76960546 45.1442699,0.00451116625 52.0337791,0.00451116625 C55.3743988,0.00451116625 58.1110859,0.65637469 59.7463067,1.04583871 L59.9352086,1.09095037 C66.6853681,2.6961737 71.384773,6.74594789 73.9036319,13.1277444 C75.9448282,18.2990447 76.0761288,23.779861 76.1543558,27.0542159 L76.1551104,27.0822854 C76.8780184,28.9784789 77.3086442,31.4483424 77.5506196,33.3044367 C78.8739387,34.9630422 79.2688466,36.5965856 79.376,37.6133524 C81.7107362,40.2649156 82.4628221,43.5410248 81.5085031,46.9061042 C81.943908,48.5065658 81.8367546,50.3872208 81.1888037,52.5027072 C80.4633804,54.8653052 79.402411,56.5632581 78.5132393,57.801072 C78.504184,57.9504417 78.4926135,58.0963027 78.4812945,58.2394069 C78.466454,58.4283747 78.4511104,58.6183449 78.4433129,58.8108213 C78.067773,67.9612208 73.9411104,71.1649007 71.2104601,73.2848983 L71.0449509,73.4139677 C70.3290859,73.9693424 69.0990859,74.9435037 67.9473129,75.8580174 C66.9658282,78.2852754 65.4382638,80.6726849 63.4031043,82.9585931 C61.8866074,84.665067 60.9051227,86.2885856 60.5655521,87.6532134 C59.7488221,90.929072 57.9772699,93.3310174 55.298184,94.7966452 C54.1325767,96.3565062 51.5935951,98.7401563 46.9691472,98.7401563" id="Fill-5" fill="#FFFFFF"></path>
                <path d="M60.6196319,3.00769479 C60.6196319,3.00769479 50.5582822,0.501491315 44.1441718,3.00769479 C37.7300613,5.51389826 34.208589,9.77444417 32.5736196,12.6565782 C30.9386503,15.5387122 27.4171779,18.295536 27.4171779,18.295536 L26.4110429,28.9469007 L27.9202454,55.6379677 L33.4539877,62.9059578 L37.4785276,66.0387122 L43.0583006,62.358603 C43.0583006,62.358603 46.9110429,57.5176203 56.2177914,58.7707221 C65.5245399,60.0238238 66.7822086,64.2843697 66.7822086,64.2843697 C66.7822086,64.2843697 65.5245399,70.8004988 62.1288344,74.3091836 L62.1288344,76.8153871 L67.5368098,73.5573226 C67.5368098,73.5573226 74.9570552,68.1689851 75.9631902,63.9084392 C76.9693252,59.6478933 76.5251166,55.9469826 76.5251166,55.9469826 C76.5251166,55.9469826 80.3650307,51.7533524 79.9877301,48.8712184 C79.6104294,45.9890844 80.1134969,44.7359826 80.1134969,43.6081911 C80.1134969,42.4803995 78.6042945,39.3476452 77.095092,37.5933027 C77.095092,37.5933027 76.1870552,34.5227022 75.257638,33.4264888 L74.0766871,26.1900769 C74.0766871,26.1900769 75.4601227,7.76948139 60.6196319,3.00769479" id="Fill-6" fill="#696969"></path>
                <path d="M44.8929877,60.5661663 C44.8929877,60.5661663 47.206092,58.1025682 55.2627178,58.8175881 C63.3193436,59.5328586 66.2708405,63.1889082 66.2708405,63.1889082 C66.2708405,63.1889082 67.1484417,71.3751712 60.5275706,74.7928809 L49.599184,63.9836253 L43.7668712,71.4897047 C43.7668712,71.4897047 42.7391043,64.6991464 44.8929877,60.5661663" id="Fill-7" fill="#FFFFFF"></path>
                <path d="M43.3266871,76.4394566 C43.3266871,76.4394566 42.6857791,81.8092481 44.2279325,83.6655931 C44.2279325,83.6655931 48.4826258,86.9527295 53.747227,85.6810819 L60.370362,79.8852357 C60.370362,79.8852357 60.2086258,82.3428189 59.7299571,84.0119504 C59.2512883,85.6810819 57.0521288,88.591536 55.7984847,88.8451638 C54.545092,89.0987916 52.2246933,88.6732382 52.2246933,88.6732382 C52.2246933,88.6732382 48.0839448,89.9729553 45.5311288,89.0190943 C42.9785644,88.0654839 42.8766933,86.3224194 42.8766933,86.3224194 C42.8766933,86.3224194 40.9046687,87.747196 39.7081227,86.0783151 C38.5113252,84.4094342 39.8459632,78.1659801 43.3266871,76.4394566" id="Fill-8" fill="#FFFFFF"></path>
                <path d="M47.1140307,66.8577395 L44.6683681,70.4137916 C44.6683681,70.4137916 41.6280798,80.9503722 45.2632454,83.3871538 C48.898411,85.8236849 52.7981902,86.2845757 54.12,84.243273 C55.4418098,82.2017196 54.8469325,71.7969653 54.8469325,71.7969653 L47.1140307,66.8577395" id="Fill-9" fill="#BA1156"></path>
                <path d="M46.1564417,68.5449156 C46.1564417,68.5449156 44.2845276,75.9246824 45.4579325,80.5110347 C46.1936687,83.3866526 52.6965706,84.8342357 54.4653558,81.8696476 C54.4653558,81.8696476 52.7592025,68.7328809 46.8481595,67.9183648 L46.7852761,67.1665037 L48.1058282,66.2266774 L51.7530675,66.7279181 L56.7837423,78.193799 L56.4064417,82.8302754 L52.3819018,85.9003747 C52.3819018,85.9003747 45.0874233,86.3389603 43.6411043,82.0784144 L43.3266871,76.4394566 C43.3266871,76.4394566 40.4340491,78.3817643 39.0506135,82.5796551 C39.0506135,82.5796551 38.1702454,76.1888362 39.2392638,71.6150149 C40.3082822,67.0411935 42.2576687,65.7254367 42.2576687,65.7254367 L43.7039877,65.2868511 L43.7668712,71.4897047 L46.1564417,68.5449156" id="Fill-10" fill="#7F0542"></path>
                <path d="M49.218362,59.548397 C49.218362,59.548397 45.9222638,62.7806476 43.8928896,71.0666576 L43.4041595,70.6606526 L44.3169755,63.5665931 L46.1883865,59.6554119 L49.218362,59.548397" id="Fill-11" fill="#9F9FA0"></path>
                <path d="M61.3415337,62.5661166 C61.3415337,62.5661166 63.4647301,63.4264963 63.4647301,67.5649901 C63.4647301,71.7034839 61.5696748,74.4354963 61.5696748,74.4354963 C61.5696748,74.4354963 60.9763067,68.2050744 61.0220859,68.068737 C61.0676135,67.9323995 61.5241472,64.4304814 61.5241472,64.4304814 L61.3415337,62.5661166" id="Fill-12" fill="#9F9FA0"></path>
                <path d="M42.9020982,76.6176476 C42.9020982,76.6176476 40.6878466,82.0523499 42.867135,85.5013871 L43.769638,83.5300074 L43.2217975,76.799598 L42.9020982,76.6176476" id="Fill-13" fill="#9F9FA0"></path>
                <path d="M53.9356258,87.3750248 C53.9356258,87.3750248 57.6107853,85.6718089 60.2463558,80.3466278 L55.499411,83.7119578 L53.9356258,87.3750248" id="Fill-14" fill="#9F9FA0"></path>
                <polyline id="Fill-15" fill="#E82828" points="47.0599509 40.3631588 49.6678528 40.7343275 51.8207301 43.4568164 49.5850982 44.9003896 47.2669632 43.085397 47.0599509 40.3631588"></polyline>
                <polyline id="Fill-16" fill="#E82828" points="66.7653558 43.9515409 63.3291534 44.4878685 63.1636442 46.0966005 64.8609939 46.7151315 66.7241043 45.4367171 66.7653558 43.9515409"></polyline>
                <path d="M30.6259939,18.4198437 C30.6259939,18.4198437 35.8687117,8.65316873 46.5191534,5.64923325 C55.8739448,3.01070223 63.2670245,5.64923325 68.1377239,8.45868734 C68.1377239,8.45868734 62.8396687,1.64757816 51.988,2.32876427 C41.1360798,3.00995037 33.6167301,8.7143201 30.6259939,18.4198437" id="Fill-17" fill="#F4F4F4"></path>
                <path d="M39.7410736,24.5151811 C39.7410736,24.5151811 43.9748896,17.7850223 50.8296871,18.5619454 C58.1807607,19.3955087 58.2630123,23.4262357 66.4285521,22.7618412 C66.4285521,22.7618412 62.0707301,21.825273 58.7381595,19.697005 C55.4058405,17.568737 49.4246196,14.5036501 43.8705031,17.6536973 C38.3163865,20.803995 36.6927362,24.2946352 36.6927362,24.2946352 L39.7410736,24.5151811" id="Fill-18" fill="#F4F4F4"></path>
                <path d="M63.1462883,14.2397469 C63.1462883,14.2397469 62.0420552,11.0112556 57.6927853,9.80401737 C52.875411,8.46720844 48.972865,10.6546228 48.972865,10.6546228 C48.972865,10.6546228 57.3879264,8.89251117 63.1462883,14.2397469" id="Fill-19" fill="#F4F4F4"></path>
                <path d="M60.9823436,27.4136055 C60.9823436,27.4136055 58.2187423,23.1402779 52.3039264,23.6487866 C52.3039264,23.6487866 56.4117239,20.6498635 61.3068221,25.1725583 C61.3068221,25.1725583 66.6775706,23.1395261 69.1514049,26.7086104 C69.1514049,26.7086104 65.3922331,24.8485062 60.9823436,27.4136055" id="Fill-20" fill="#F4F4F4"></path>
                <path d="M64.5184049,33.5254839 C64.5184049,33.5254839 69.8006135,30.1421092 74.642638,37.0341687 L76.7177914,36.9715136 C76.7177914,36.9715136 74.7055215,31.8964516 70.1779141,31.3325558 C65.6503067,30.76866 64.958589,32.3976923 64.5184049,33.5254839" id="Fill-21" fill="#F4F4F4"></path>
                <path d="M45.0245399,26.6334243 C45.0245399,26.6334243 35.5749202,24.2204516 30.6969264,30.8077568 L28.8634969,29.2022829 C28.8634969,29.2022829 33.5797546,21.3077419 45.0245399,26.6334243" id="Fill-22" fill="#F4F4F4"></path>
                <path d="M56.5040368,35.3943598 C56.5040368,35.3943598 53.2001411,31.5252829 46.6896933,31.0185285 C41.6119816,30.6230496 39.5989571,33.3237345 39.5989571,33.3237345 L36.3976871,32.4841563 C36.3976871,32.4841563 38.644135,29.2947618 44.9344908,29.2947618 C51.2245951,29.2947618 55.3245951,32.0926873 56.5040368,35.3943598" id="Fill-23" fill="#F4F4F4"></path>
                <path d="M41.5646933,36.6254069 C41.5646933,36.6254069 44.2037853,34.4678164 48.7545337,35.6028759 C53.0929877,36.684804 55.6465583,40.0022655 54.257589,40.374938 C52.797184,40.7664069 51.2303804,37.4892953 47.6301779,36.5695186 C43.8949018,35.6151563 41.5646933,36.6254069 41.5646933,36.6254069" id="Fill-24" fill="#F4F4F4"></path>
                <path d="M72.5254785,40.6684144 C72.5254785,40.6684144 71.0162761,38.8722184 66.9079755,39.7493896 C62.8615521,40.6132779 63.6053374,42.28266 64.5184049,41.9633697 C66.9079755,41.1278015 68.291411,39.8749504 72.5254785,40.6684144" id="Fill-25" fill="#F4F4F4"></path>
                <path d="M52.7021043,55.8863325 C52.7021043,55.8863325 52.726,55.8552556 52.7785706,55.8046303 C52.8313926,55.7537543 52.908865,55.6753102 53.0180307,55.5926055 C53.1264417,55.5073945 53.2620184,55.4061439 53.4275276,55.3036402 C53.5942945,55.2046452 53.7867178,55.0943722 54.0095767,54.9991365 C54.2294172,54.8938759 54.4809509,54.8129256 54.7505951,54.7257097 C54.8854172,54.6816005 55.0290429,54.6582928 55.1744294,54.6227047 C55.320319,54.5886203 55.4707362,54.5570422 55.626184,54.542005 C55.9363252,54.5011538 56.2608037,54.4688238 56.5923252,54.4826079 C56.9251043,54.4710794 57.258638,54.5232084 57.5931779,54.5655633 C57.7612025,54.5833573 57.9229387,54.6279677 58.0849264,54.668067 C58.2476687,54.7059107 58.406638,54.7535285 58.5651043,54.7968859 C58.722816,54.8407444 58.8699632,54.9101663 59.0176135,54.9693127 C59.1647607,55.0309653 59.3101472,55.0896104 59.4494969,55.1542705 C59.7211534,55.2951191 59.968411,55.454263 60.2013313,55.5996228 C60.4355092,55.744732 60.6191288,55.9286873 60.7989755,56.0788089 C60.9735399,56.2364491 61.1337669,56.375794 61.2474601,56.5289231 C61.3676933,56.6745335 61.4632761,56.8076129 61.5425092,56.9153797 C61.6232515,57.0206402 61.6768282,57.1123672 61.7165706,57.1700099 C61.7537975,57.2309107 61.7734172,57.2634913 61.7734172,57.2634913 C61.7734172,57.2634913 61.7339264,57.2514615 61.6594724,57.2296576 C61.5880368,57.2045955 61.4776135,57.1745211 61.350589,57.1248983 C61.2218037,57.0770298 61.0648466,57.0223945 60.8950613,56.9517196 C60.7300552,56.8750298 60.5258098,56.8173871 60.3167853,56.7429529 C60.2136564,56.7048586 60.106,56.6657618 59.9948221,56.6249107 C59.8854049,56.5830571 59.7759877,56.534938 59.6532393,56.5061166 C59.4140307,56.4374467 59.1718037,56.3534888 58.9217791,56.2745434 C58.6632025,56.2163995 58.4051288,56.1412134 58.1420245,56.0737965 C58.0079571,56.0487345 57.8723804,56.0264293 57.739319,55.9948511 C57.6055031,55.9647767 57.4719387,55.9314442 57.3340982,55.9204169 C57.0619387,55.8808189 56.7910368,55.8309454 56.5186258,55.8144045 C56.3830491,55.8058834 56.2484785,55.7815732 56.1141595,55.7760596 C55.980092,55.7712978 55.8472822,55.7672878 55.7149755,55.757263 C55.5826687,55.7429777 55.4536319,55.7517494 55.3250982,55.7474888 C55.1970675,55.746737 55.0700429,55.7414739 54.9465399,55.7434789 C54.7007914,55.7530025 54.4608282,55.7484913 54.2409877,55.7660347 C54.0173742,55.7712978 53.8138834,55.7908462 53.6272454,55.8016228 C53.4436258,55.8179132 53.2763558,55.8261836 53.1407791,55.8414715 C52.8615767,55.8702928 52.7021043,55.8863325 52.7021043,55.8863325" id="Fill-26" fill="#F4F4F4"></path>
                <path d="M60.7033926,36.7419454 C60.7033926,36.7419454 58.2300613,31.3952109 51.3128834,29.7661787 L49.7407975,27.3226303 C49.7407975,27.3226303 56.0291411,28.3251117 58.8588957,31.3325558 C61.6886503,34.34 61.1647055,35.5725509 60.7033926,36.7419454" id="Fill-27" fill="#F4F4F4"></path>
                <path d="M58.8510982,3.32798759 C58.8510982,3.32798759 68.0049141,7.25671216 69.2723926,14.4131762 C69.2723926,14.4131762 66.9487239,13.0801266 63.1462883,13.9219603 C63.1462883,13.9219603 66.8428282,14.4996402 69.0611043,16.79833 C70.821589,18.6225955 70.046865,19.9556452 70.046865,19.9556452 C70.046865,19.9556452 66.4559693,18.8331166 61.4564847,19.9553945 C61.4564847,19.9553945 65.0476319,22.0601042 67.0895828,22.0601042 C69.1315337,22.0601042 74.2014479,25.5682878 74.2014479,25.5682878 C74.2014479,25.5682878 73.9614847,16.0407047 70.7511595,10.8348189 C67.1600123,5.01190571 61.1043374,3.39816129 58.8510982,3.32798759" id="Fill-28" fill="#424242"></path>
                <path d="M64.6954847,22.0606055 C64.6954847,22.0606055 69.3564049,23.0706055 71.1734847,26.6913176 C72.6522515,29.637861 72.2296748,31.5320496 72.2296748,31.5320496 L75.257638,33.4264888 C75.257638,33.4264888 75.4689264,28.4454094 73.0748282,25.0073995 C70.6807301,21.5693896 64.6954847,22.0606055 64.6954847,22.0606055" id="Fill-29" fill="#424242"></path>
                <path d="M76.6659755,43.3886476 C76.6659755,43.3886476 78.4262086,40.5122779 75.257638,37.0745186 C75.257638,37.0745186 80.8205583,39.5300968 79.834546,46.3354417 L79.4823988,53.3513077 L76.5251166,55.9469826 C76.5251166,55.9469826 76.1025399,51.0358263 77.3700184,48.0892829 C77.3700184,48.0892829 78.2856012,45.7036278 76.6659755,43.3886476" id="Fill-30" fill="#424242"></path>
                <path d="M72.9342209,45.2828362 C72.9342209,45.2828362 69.4982699,44.7903672 66.3857914,45.984072 L67.3011227,43.6690918 C67.3011227,43.6690918 71.6667423,42.8272581 72.9342209,45.2828362" id="Fill-31" fill="#424242"></path>
                <path d="M41.4593006,41.8450769 C41.4593006,41.8450769 44.6510123,41.4117543 47.0219693,41.915 L47.0923988,39.9506377 C47.0923988,39.9506377 45.1208773,39.2491514 41.4593006,41.8450769" id="Fill-32" fill="#424242"></path>
                <path d="M57.4432638,41.915 C57.4432638,41.915 58.6403129,44.651273 60.6822638,42.5465633 L61.738454,46.2650174 L57.4432638,47.7381638 L54.556411,45.422933 C54.556411,45.422933 56.598362,44.9317171 57.4432638,41.915" id="Fill-33" fill="#424242"></path>
                <path d="M33.7105521,11.0859404 C33.7105521,11.0859404 29.7172025,16.9637395 29.5355951,22.2084715 C29.5355951,22.2084715 33.3473374,14.6124194 41.0618773,11.6282829 C41.0618773,11.6282829 38.7019877,14.1608015 37.5222945,18.5010447 C37.5222945,18.5010447 43.6031227,13.0753648 52.5881595,15.6978561 C52.5881595,15.6978561 43.8755337,15.3359603 41.152681,18.5915186 C38.4298282,21.8468263 36.1609939,24.1074218 36.1609939,24.1074218 C36.1609939,24.1074218 29.5355951,26.1873201 28.4467055,29.2619305 L31.0787546,30.979933 L30.9879509,36.0439677 C30.9879509,36.0439677 23.0920552,41.559871 20.0062393,48.3421588 C20.0062393,48.3421588 17.011227,38.8474069 4.57741104,39.1185782 C4.57741104,39.1185782 7.39081595,28.3576923 18.8262945,27.634402 C18.8262945,27.634402 22.4564294,14.1610521 33.7105521,11.0859404" id="Fill-34" fill="#424242"></path>
                <path d="M32.3487485,35.320928 C32.3487485,35.320928 32.9841227,36.4058635 35.7069755,36.1346923 C35.7069755,36.1346923 32.8027669,36.1346923 30.9874479,42.6453077 C29.1723804,49.1561737 30.0799141,51.0551241 30.0799141,51.0551241 C30.0799141,51.0551241 33.3470859,46.1717866 37.0682761,44.725206 C37.0682761,44.725206 34.1640675,50.8741762 35.4345644,56.2093821 L38.8833436,54.0392605 C38.8833436,54.0392605 36.5237055,58.0181092 37.2496319,61.8160099 C37.2496319,61.8160099 39.881681,56.0289355 44.4196012,53.5871414 C48.9575215,51.145598 51.4985153,52.3212581 51.4985153,52.3212581 C51.4985153,52.3212581 42.8766933,54.1299851 39.7003252,62.2683797 C39.7003252,62.2683797 41.4703681,58.958938 44.9631656,57.7880397 L43.0583006,62.358603 C43.0583006,62.358603 39.7003252,68.2369032 38.611184,74.0239777 C37.5220429,79.8113027 38.4295767,85.9605236 38.4295767,85.9605236 L40.6076074,86.5935906 L42.8766933,86.3224194 C42.8766933,86.3224194 44.1471902,89.2158313 47.8683804,89.3967792 C51.589319,89.577727 52.2246933,88.6732382 52.2246933,88.6732382 C52.2246933,88.6732382 53.5862454,89.2158313 54.8567423,88.8541861 C56.1272393,88.4925409 58.2147178,87.0454591 58.2147178,87.5880521 C58.2147178,88.1306452 56.9439693,92.471139 55.4010613,93.104206 C53.8584049,93.7375236 51.8617301,94.6415112 51.8617301,94.6415112 C51.8617301,94.6415112 49.9556074,97.7161216 44.4196012,96.6309355 C38.8833436,95.5457494 33.4381411,92.6520868 33.1657301,85.5988784 C32.893319,78.5454194 31.1690552,73.7525558 30.533681,72.5771464 C29.8983067,71.4014864 27.9924356,69.4123127 27.9924356,69.4123127 L27.9924356,72.6676203 C27.9924356,72.6676203 22.6377853,67.6035856 20.7319141,60.0077841 C18.8260429,52.411732 19.5519693,47.3479479 22.9101963,43.4593226 C26.2681718,39.5709479 32.3487485,35.320928 32.3487485,35.320928" id="Fill-35" fill="#424242"></path>
                <path d="M40.4254969,47.3000794 C40.4254969,47.3000794 43.5377239,46.3532357 46.1692699,47.1599826 C46.1692699,47.1599826 45.6976442,50.7438536 49.4467546,51.6192705 C49.4467546,51.6192705 48.2165031,48.1173524 48.2751104,47.8840248 C48.3337178,47.6504467 49.0951104,45.199129 49.0951104,45.199129 C49.0951104,45.199129 44.526,43.8565558 40.4254969,47.3000794" id="Fill-36" fill="#424242"></path>
                <path d="M68.3087669,57.1056005 C68.3087669,57.1056005 69.304589,51.677665 66.4929448,48.9927692 L65.9071227,52.6114764 L68.3087669,57.1056005" id="Fill-37" fill="#424242"></path>
                <path d="M64.0993497,72.3405608 C64.0993497,72.3405608 64.015589,73.1174839 63.3847423,75.1181861 C63.3847423,75.1181861 66.9102393,72.3977022 67.8283374,66.5103797 L67.7709877,70.9115236 C67.7709877,70.9115236 72.3602209,68.1679826 72.8192699,61.13733 C72.8192699,61.13733 73.7944663,62.2235186 73.3930184,64.7956352 C73.3930184,64.7956352 74.8270123,62.6809007 74.9990613,58.3366476 C75.171362,53.9923945 75.8024601,51.3631365 76.7776564,49.5912506 L76.4333067,60.6230571 C76.4333067,60.6230571 76.0316074,66.5672705 72.2455215,70.1684342 C68.459184,73.7693474 66.6808405,74.112196 66.6808405,74.112196 L60.9441104,82.5718859 L60.370362,79.8852357 L57.9035706,80.7426079 L59.7966135,74.7410025 C59.7966135,74.7410025 62.1489571,74.6841117 64.0993497,72.3405608" id="Fill-38" fill="#424242"></path>
                <path d="M67.5332883,62.9713697 C67.5332883,62.9713697 69.4421779,61.2643945 70.2742515,59.4115583 C70.2742515,59.4115583 70.1764049,60.9230496 69.2952822,63.0686104 C69.2952822,63.0686104 73.7491902,59.8015236 74.8748037,52.8766328 L73.210908,54.1933921 L71.6936564,51.6576154 L67.9739755,58.7772382 L67.5332883,62.9713697" id="Fill-39" fill="#424242"></path>
                <path d="M61.2557607,34.5487667 C61.2557607,34.5487667 62.2289448,32.7302655 64.5405399,32.7302655 L65.2098712,30.9120149 C65.2098712,30.9120149 61.4381227,30.9724144 60.2823252,32.4272655 L61.2557607,34.5487667" id="Fill-40" fill="#424242"></path>
                <path d="M79.0638466,44.6738288 C78.1555583,43.6437792 76.6848405,43.4069429 76.6848405,43.4069429 C77.5878466,43.7986625 79.8848528,47.0980794 78.526319,51.5914516 C78.1062577,52.7367866 77.650227,53.7109479 77.2075276,54.5272184 C76.8734908,50.7566352 77.3453681,48.0278809 77.3453681,48.0278809 C77.3453681,48.0278809 75.4757178,51.197727 75.6656258,56.6261638 C75.6902761,57.3349181 75.6565706,58.0055782 75.6294049,58.6957866 C75.3086994,66.5522333 72.0752331,69.0609429 69.4763865,71.0766824 L69.3116319,71.2047494 C68.9660245,71.4721613 68.5009387,71.8368139 67.9727178,72.2553499 C68.686319,68.5316328 67.7672147,66.1336973 67.7672147,66.1336973 C67.7672147,73.1237494 64.0191104,77.4810347 61.3842945,80.9751836 C61.9552761,78.956938 62.2284417,77.3309132 62.2556074,77.1825459 C62.2556074,77.1825459 60.7225092,78.4306352 59.0674172,79.7894988 C59.0674172,79.3709628 60.1510245,77.1707667 60.8351963,75.8682928 C61.1989141,75.7337097 62.2915767,75.2362283 63.3731718,73.8054367 C64.5835521,72.205727 66.2137423,70.1426203 66.8367914,66.5071216 L66.8594294,66.5364442 C68.067546,64.122469 68.6365153,61.6004764 68.5552699,59.036129 C69.5712147,57.875005 70.9395583,55.9805658 71.8677178,53.399928 C72.4726564,54.835732 71.2670552,58.0100893 71.2670552,58.0100893 L72.9334663,56.4935856 C76.8958773,52.273139 73.8659018,47.3191266 73.8659018,47.3191266 C74.3264601,49.6163127 73.8477914,51.4498511 73.400816,52.7475633 C73.3467362,49.1677022 71.4997239,46.9817916 71.4997239,46.9817916 C71.4997239,46.9817916 71.6350491,51.6320521 68.2976994,56.6625037 C67.896,54.5317295 67.1328466,52.9074591 66.669773,52.0636203 C66.6856196,52.0122432 66.7014663,51.9603648 66.7127853,51.9042258 C66.8390552,51.3260447 66.8662209,50.7253077 66.8053497,50.1360993 C67.7387914,51.0217916 68.3190798,52.3022109 68.4433374,54.2848685 C68.4433374,54.2848685 69.9359387,48.9566799 65.3738712,46.9950744 C65.6040245,46.9454516 65.8299018,46.8647519 66.0421963,46.7477122 C66.8030859,46.3224094 67.288546,45.5078933 67.4195951,44.4550372 C68.0876687,44.378598 68.738135,44.331732 69.3274785,44.331732 C72.3260123,44.331732 73.0574724,45.4610273 73.0574724,45.4610273 C73.0574724,45.4610273 72.1700613,42.8916675 68.7109693,42.8916675 C66.1978957,42.8916675 63.4116564,43.2876476 61.8290061,43.6766104 C60.7270368,39.7892382 66.1709816,38.0534417 69.8853804,38.2491762 C75.0219509,38.3268685 75.4110736,42.5242581 75.4110736,43.754804 C75.4110736,43.754804 77.2422393,37.9744963 70.5859018,36.7502159 C68.5401779,36.3747866 66.326681,36.7905658 64.4796687,37.6496923 C64.7749693,35.3800744 63.147546,34.0029156 63.147546,34.0029156 C63.7051963,35.510397 63.6571534,37.4141092 62.6474969,38.5075658 C61.6856319,39.1308586 59.2004785,40.1919851 60.3318773,45.0219404 L60.5439202,46.0051241 C59.7493252,45.6474888 57.3242883,45.4745608 55.856589,45.6141563 C55.9109202,45.5890943 55.9582086,45.5597717 56.0034847,45.5216774 C56.5973558,45.2201811 57.5275276,44.4730819 57.9269632,43.2199801 C58.4421043,41.6072382 57.9835583,39.6476377 56.5633988,37.3980695 C54.2716748,33.7645757 49.7983988,31.9733921 43.2595276,32.0703821 C43.1400491,32.0728883 43.0406933,32.0751439 42.9637239,32.0751439 C41.8461595,32.0751439 39.9224294,32.0297816 37.8880245,31.7756526 C40.272816,28.6408933 53.0781472,27.6336501 56.646908,35.5730521 C56.646908,35.5730521 57.0420675,31.7936973 52.0408221,29.544129 L50.9793497,27.9669752 C56.2177914,29.5576625 58.5052393,31.5034789 59.5030736,32.9367767 C60.6885521,34.6372357 60.6978589,35.4743077 60.6978589,36.3900744 C60.6978589,36.3900744 62.3187423,34.7723201 61.4044172,32.6533251 C62.3300613,32.0052208 63.3915337,31.6811687 64.5722331,31.6769082 C63.9106994,32.8330199 63.8971166,34.0748437 63.8971166,34.0748437 C63.9851534,33.9871266 64.0550798,33.8883821 64.1634908,33.7400149 C65.3084724,32.1560943 68.0695583,30.7273077 71.079411,32.1716328 C73.7768589,33.312206 75.2035583,34.940737 75.8263558,36.2845633 C74.0807117,35.7103921 71.6732822,35.9534938 71.6732822,35.9534938 C73.2878773,36.5522258 74.6584847,37.2697519 75.7513988,38.086273 C76.1598896,38.3920298 76.5346748,38.7143275 76.8621718,39.0378784 C78.7159755,40.8894615 79.156411,42.9410397 79.0638466,44.6738288 Z M56.2203067,87.4564764 C55.1432393,88.1401687 54.1788589,88.4579553 53.4768282,88.3835211 C53.5512822,88.2890372 53.6214601,88.1922978 53.6888712,88.0907965 C54.8403926,86.3858263 55.1814724,85.7873449 55.1839877,85.7828337 L55.9808466,84.3771042 L55.9695276,84.3791092 C56.3128712,84.1069355 56.6692945,83.8184715 57.0307485,83.5149702 C57.8935092,82.7931836 58.9363681,81.8709007 59.9027607,80.8761886 C59.1172209,83.4387816 57.8638282,86.4103871 56.2203067,87.4564764 Z M43.1015644,83.5107097 C42.9164356,84.1024243 42.7808589,84.6354938 42.6928221,85.1059082 C41.9163374,85.8906005 41.0943252,85.9224293 40.8639202,85.8211787 C40.5771718,85.6953672 40.2204969,84.8131836 40.7034417,82.3157519 C41.0739509,80.3944963 41.8484233,78.7797494 42.6319509,77.5421861 C42.3924908,79.9065385 42.7944417,82.2037246 43.1015644,83.5107097 Z M52.8804417,86.4597593 C52.7337975,86.6825608 52.5670307,86.9321787 52.3748589,87.2136253 C52.167092,87.5243945 51.9346748,87.7717568 51.663773,87.9720025 L51.6612577,87.9742581 C50.8641472,88.5699826 49.7400429,88.7795012 47.8998221,88.6782506 C45.6667055,88.5524392 44.7387975,87.4251489 44.182908,86.4692829 C44.1808957,86.4597593 44.1064417,86.2690372 44.2078098,85.6071489 L44.212589,85.5713102 C44.2618896,85.258536 44.3459018,84.892129 44.458589,84.4916377 C46.8247669,86.7344392 50.6116074,86.7189007 52.8804417,86.4597593 Z M52.5755828,84.9076675 C50.3155521,85.1530248 46.4748834,85.1171861 44.8197914,82.4508362 L44.3974663,81.7714045 C44.2777362,81.1864566 44.1808957,80.6423598 44.1469387,80.3070298 C43.8058589,76.7234094 44.1152454,74.4801067 44.1152454,74.4801067 C44.1152454,74.4801067 41.1572086,76.2166551 39.7056074,80.0574119 C39.4978405,80.6060199 39.3667914,79.2742233 39.3667914,78.0797667 C39.3667914,69.4631886 42.3585337,66.9208958 43.1828098,66.5271712 C42.4264479,71.0222978 42.7833742,74.3136948 42.7833742,74.3136948 C42.7833742,74.3136948 44.5690123,71.6320571 46.5357546,68.6579454 C46.5357546,68.6579454 50.5796626,74.7658139 50.5685951,80.8761886 C50.5685951,80.8761886 51.5712086,77.3126179 50.1867669,73.4069504 C49.0465644,70.1899876 47.6513067,68.2506873 47.1907485,67.6632333 C47.3484601,67.4248933 47.5069264,67.1840471 47.6626258,66.9457072 C49.1461718,67.3955707 51.5078221,68.9258586 52.9030798,72.3653722 C54.7367607,76.8805484 55.3666012,79.6346154 55.6375031,82.6172481 C54.3911534,83.6407816 53.2532147,84.4715881 52.5755828,84.9076675 Z M61.3299632,62.5320323 C61.3299632,62.5839107 61.2824233,63.9741017 61.2756319,64.0415186 C57.7624601,62.7139826 53.4224969,62.2260248 50.7559877,62.2009628 C50.7559877,61.6698983 51.6567301,60.7659107 51.6071779,60.7721762 C49.1119632,61.0674069 44.1177607,70.0955037 44.1177607,70.0955037 C44.1177607,65.8296948 45.5965276,62.6395484 46.3237117,60.8897171 C49.8255644,59.6228313 53.2328405,59.2519132 56.4572515,59.7892432 C61.8357975,60.6894715 64.2900123,62.3768983 65.4075767,63.6613275 C65.7101718,67.9742531 63.9084356,71.3393325 61.8717669,73.6365186 C63.1789877,64.5703275 61.3299632,62.5320323 61.3299632,62.5320323 Z M63.8000245,45.0693077 C64.6061902,44.896129 65.5431534,44.713928 66.4891718,44.5743325 C66.3334724,45.3870943 65.9292577,45.7755558 65.6020123,45.960263 C65.1253558,46.2259206 64.6421595,46.1717866 64.3735215,46.0439702 C63.978362,45.8570074 63.8427853,45.4878437 63.8000245,45.0693077 Z M50.9501718,42.9209901 C50.4918773,43.6543052 49.9319632,43.9287345 49.1620184,43.8367568 C48.5950613,43.76934 48.1843067,43.5415261 47.906362,43.1412854 C47.4593865,42.4956873 47.4410245,41.5463375 47.5023988,40.8669057 C47.8409632,40.9458511 48.1727362,41.0558734 48.4911779,41.2092531 C49.6316319,41.757861 50.414908,42.3698759 50.9501718,42.9209901 Z M47.895546,94.1109479 C43.7784417,94.1420248 40.5032209,91.7801787 40.5032209,91.7801787 C40.5032209,91.7801787 43.1858282,95.8823325 50.3945337,95.2590397 C49.1056748,95.8389752 47.4075706,96.1291935 45.1699264,95.8008809 C36.6102331,94.5410124 34.8960307,90.6759454 34.3227853,86.685067 C34.1467117,85.4632928 34.3406442,79.1865062 34.3791288,78.3857742 C34.548411,74.9304715 34.022454,72.6443127 33.7762025,71.5984739 C33.7762025,71.5984739 33.1596933,73.9405211 32.8052822,76.2123945 C31.260865,72.399206 29.0345399,68.1223697 28.6620184,67.4161216 L26.959638,64.176603 L26.959638,67.8346576 C26.959638,68.3158486 27.0162331,69.6027841 27.0768528,70.8493697 C26.1919571,69.598273 25.4154724,68.1787593 24.3200429,65.9560074 C24.1326503,65.5738114 23.4011902,64.2593077 23.1323006,60.2010124 C22.773362,54.7520248 23.9319264,52.1448213 23.9319264,52.1448213 C21.129589,54.0886328 21.8114969,60.3067742 21.5516626,59.5554144 C21.2629018,58.7251092 21.4842515,59.2987792 21.2382515,58.3947916 C19.5492025,52.1944442 20.9218221,46.7008462 25.3226564,42.068129 C28.6642822,38.54967 32.5887117,36.8624938 32.6269448,36.8467047 L33.9457362,36.2908288 L32.8752086,35.3434839 C31.6268466,34.2392506 31.7375215,32.9500596 31.9903129,32.1490769 C35.3455215,33.6362581 40.2157178,33.8725931 42.9637239,33.8725931 C43.0494969,33.8725931 43.157908,33.8703375 43.2889571,33.8678313 C49.1574908,33.7781092 53.1017914,35.2878462 55.037092,38.3514293 C56.1342822,40.0907345 56.5430245,41.5734045 56.2177914,42.6420496 C56.0100245,43.3257419 55.5426748,43.6949057 55.3012025,43.8475335 C54.8788773,44.0370025 54.2105521,44.1853697 53.5603374,43.5372655 C53.1470675,42.6530769 52.2438098,40.3002531 49.2769693,39.5889926 C43.5802331,38.2256179 41.342589,41.912995 41.342589,41.912995 C41.376546,41.8949504 44.0294724,40.5473648 46.6104601,40.7368337 C46.5314785,41.5596203 46.553865,42.7701166 47.1660982,43.6543052 C47.344184,43.9106898 47.5587423,44.1202084 47.8095215,44.2886253 C42.3316196,44.5069156 40.3716687,47.3396774 40.3716687,47.3396774 C43.2710982,45.5665385 46.1405951,45.6003722 47.929,45.8319454 C47.8409632,45.9983573 47.7617301,46.1765484 47.6918037,46.3655161 C47.1364172,47.8927965 47.418638,49.7757072 48.3060491,51.1952208 C46.8632515,51.461129 44.6346626,52.1287816 42.4850552,53.827737 C40.6247117,55.2943672 38.965092,57.5577196 37.5899571,60.4824591 C38.3913436,56.7970868 40.4370675,53.1590819 40.4664969,53.1077047 L41.9973313,50.4125335 L39.3602515,52.0505881 C37.7796135,53.0315161 36.6507301,54.035 35.9011595,54.8151811 C35.5736626,49.8571588 38.4657975,44.2821092 38.5000061,44.2189529 L39.5272699,42.2641141 L37.4906012,43.1280025 C34.5325644,44.3831092 32.0941963,47.4496998 30.6964233,49.5443846 C30.6964233,49.5443846 30.0575276,42.8643499 33.415,37.4607246 C33.415,37.4607246 29.7058834,40.8215434 29.0030982,46.366268 C28.3737607,51.3295533 29.571816,54.7750819 29.571816,54.7750819 L30.8229448,52.3834119 C30.8498589,52.3337891 33.0153129,48.24166 36.0500675,45.8344516 C34.9999141,48.5025558 33.672319,52.9771315 34.6163252,56.8602432 L35.058773,58.6807494 L36.0543436,57.0943226 C36.0613865,57.0830447 36.5400552,56.3339404 37.6349816,55.3211836 C34.7041104,60.5744367 36.8947178,64.5590496 36.8947178,64.5590496 C36.8947178,64.5590496 38.8835951,58.8915211 43.4672945,55.0582829 C46.468092,52.5498238 49.8436748,52.5946849 49.8756196,52.5946849 L52.0994294,52.5946849 L50.374411,51.1952208 C49.1982393,50.241861 48.6604601,48.3135881 49.1776135,46.8960794 C49.5073742,45.9940968 50.168908,45.5459876 51.1579387,45.553005 C56.1860982,45.6141563 56.7686503,50.1468759 56.7822331,50.3383499 L57.1479632,51.8433251 L58.0175153,50.480201 C58.0331104,50.443861 59.6499693,47.024397 62.4294172,47.3414318 C63.3779509,47.4496998 64.1139387,47.8589628 64.6152454,48.5589454 C65.1930184,49.3641886 65.4075767,50.5157891 65.1774233,51.5618784 C64.8748282,52.945804 61.7792025,53.4901514 61.7588282,53.4901514 C61.7588282,53.4901514 63.8611472,53.9786104 65.3467055,53.4137122 C65.8953006,54.5317295 66.6451227,56.473536 66.7510184,58.9010447 C66.8008221,59.9987618 66.7105215,61.0894615 66.4891718,62.1673797 C65.0667485,60.7072655 62.260135,58.9323722 56.7598466,58.0120943 C53.1495828,57.4093524 49.3086626,57.7286427 45.4654785,59.2832407 C45.0232822,59.4634367 44.6210798,59.6473921 44.2576135,59.8343548 L45.1606196,57.7624764 C43.3548589,58.2727395 41.6949877,61.2019901 41.6949877,61.2019901 C39.4168466,65.6545112 36.777,73.5197295 37.1449939,85.7016328 C37.201589,87.6253945 40.918,90.8558908 43.8081227,92.0503474 C44.995865,92.5413127 46.273908,92.7235136 47.5182454,92.7235136 C51.0382086,92.7235136 54.2943129,90.6651687 54.2943129,90.6651687 C50.3746626,91.7761687 47.0800736,91.4521166 44.5013497,90.3879826 C42.7471534,89.6616849 41.2160675,88.3496873 40.2587301,87.2675087 C40.5095092,87.3732705 40.8121043,87.4319156 41.1463926,87.4319156 C41.6270736,87.4319156 42.1734049,87.3081092 42.7177239,87.0291687 C42.7471534,87.1010968 42.7763313,87.1710199 42.814816,87.2341762 C43.2167669,87.931402 44.4427423,90.0526526 47.8180736,90.2416203 C48.1299755,90.2599156 48.4484172,90.2709429 48.7733988,90.2709429 C49.904546,90.2709429 51.0857485,90.1245806 52.1107485,89.5534169 C52.3253067,89.6792283 52.8874847,89.9564144 53.9170123,89.9564144 C54.7435521,89.9113027 55.7889264,89.5960223 57.0780368,88.7772457 C57.1479632,88.732134 57.2181411,88.6807568 57.2880675,88.6288784 C54.9259141,92.9874169 51.1257423,94.0863871 47.895546,94.1109479 Z M9.6976319,38.9208387 C8.24351534,38.5273648 6.94962577,38.4328809 5.83231288,38.4997965 C7.27737423,35.6249305 11.1947607,29.2042878 17.7087301,28.309072 C16.1733681,34.3249628 17.7203006,38.059206 17.790227,38.2256179 C17.790227,38.2256179 17.8918466,33.6543027 19.7929387,27.5777618 C20.4972331,25.3281935 21.5878834,23.0290025 23.0399877,20.7473548 C26.094865,15.940206 29.7073926,13.341273 32.3967914,11.9643648 C29.4905706,16.4349305 29.8135399,19.8388561 29.8135399,19.8388561 C31.5727669,16.1289231 33.5910736,12.9791266 35.8106074,10.4729231 C44.761184,0.351119107 54.8021595,2.74529529 59.0900552,3.76682382 L59.2797117,3.81143424 C70.9712515,6.59231762 72.838638,17.0263945 73.2292699,24.0342407 C71.1407853,21.6543499 68.4400675,21.1929578 65.8095276,20.7430943 C64.3760368,20.497737 62.890227,20.2436079 61.5397423,19.660665 C60.8173374,19.350397 60.1739141,18.9273499 59.4263558,18.4368859 C57.6537975,17.2740074 55.4478466,15.8274268 50.9612393,15.1525062 C42.4850552,13.8788536 37.5200307,20.8105112 35.6818221,23.5570596 C31.2178528,24.4866104 28.409227,27.474005 27.372908,28.7476576 C26.9800123,28.8195856 26.5735337,28.9479032 26.1625276,29.1298536 C22.5001963,30.7478586 22.5001963,33.6517965 22.5001963,35.9873275 L22.5001963,36.0116377 C22.5001963,36.6667593 22.3105399,37.357469 22.1073006,38.0905335 C21.7234601,39.4877419 21.2538466,41.2022357 22.0371227,43.2312581 C21.3215092,44.2502804 20.6577117,45.397871 20.1179202,46.6710223 C18.3702638,42.8445509 14.7871656,40.2977469 9.6976319,38.9208387 Z M25.7447301,34.8174318 C26.9012822,32.6260074 28.1154356,33.984871 28.1813374,34.1154442 C28.1813374,34.1154442 24.3089755,35.2289504 24.8618466,39.976201 L24.8663742,39.9736948 C24.5932086,40.2325856 24.3223067,40.5004988 24.0534172,40.7814442 C23.8504294,40.9952233 23.6449264,41.2175236 23.4416871,41.449598 C23.3332761,40.4441092 23.5838037,39.5238313 23.8481656,38.5679653 C24.0715276,37.7534491 24.3044479,36.9093598 24.3044479,36.012139 L24.3044479,35.9873275 C24.3044479,33.7149529 24.3044479,31.9195087 26.8917239,30.7771811 C27.2622331,30.6125236 27.6143804,30.5157841 27.9350859,30.4869628 C29.0617055,30.3854615 29.7617239,31.1658933 30.1772577,31.9445707 C30.1070798,32.2347891 30.0597914,32.5450571 30.0394172,32.8691092 C29.9468528,32.7545757 29.8540368,32.6440521 29.7617239,32.5337792 C29.3665644,32.0703821 28.912546,31.6949529 28.3571595,31.6297916 C25.4378589,31.2851886 25.7447301,34.8174318 25.7447301,34.8174318 Z M74.5523374,31.9265261 C73.8140859,31.4315509 72.9334663,30.9661489 71.8835644,30.5563846 C69.218816,29.5148065 67.4419816,29.5729504 66.2590184,30.1090273 C63.7210429,29.6947519 61.7138037,30.3315782 60.4040675,31.17266 C58.3243865,28.7857519 54.5312577,26.9071017 49.0941043,25.5865831 L46.8360859,25.0377246 L49.2364724,28.6105682 C48.369184,28.4035558 47.4053067,28.2346377 46.3237117,28.1153424 C41.0581043,27.5303945 37.5469448,29.7917419 35.6481166,31.0894541 C35.5238589,31.1751663 35.4066442,31.253861 35.2982331,31.3282953 C34.0742699,31.0493548 32.9204847,30.6646526 31.9971043,30.1423598 L31.2427546,29.7148015 L31.0395153,30.0408586 C30.6174417,29.5666849 30.1319816,29.208799 29.5989816,28.9792308 C30.8883436,27.6860298 33.1778037,25.8880794 36.3979387,25.2560149 C39.1887055,24.7094119 42.1985583,25.1279479 45.3414724,26.4980893 C45.3414724,26.4980893 42.6950859,23.3618263 38.0618344,23.3187196 C40.7011779,19.7644218 44.6887423,16.0346898 50.6883252,16.9361712 C54.7817853,17.5529479 56.7193497,18.8240943 58.4307853,19.9466228 C59.2143129,20.4596427 59.9548282,20.9455955 60.8196012,21.3190199 C62.3705583,21.9871737 63.9625153,22.2593474 65.5024049,22.5222481 C68.8035337,23.0871464 71.6531595,23.5751042 73.4166626,27.809335 C73.8885399,28.9366253 74.2678528,30.3200496 74.5523374,31.9265261 Z M78.3997975,38.0323896 C78.3613129,37.2629851 78.1017301,35.4943573 76.5890061,33.7169578 C76.2818834,31.2493499 75.8100061,28.9298586 75.153,27.2807767 L75.1484724,27.082536 C74.9947853,20.6598883 74.6378589,5.61815633 59.7020368,2.06586352 L59.5123804,2.02075186 C55.3283681,1.02428536 44.3116933,-1.57013648 34.6321718,9.09400993 C32.0647669,9.90802481 26.1557362,12.4841514 21.5156933,19.7869777 C20.1091166,22.0004566 19.0229939,24.2344864 18.2711595,26.4391935 C9.15356442,27.0918089 4.5540184,36.7742754 3.66459509,38.8644491 C2.00271166,39.3348635 1.09039877,40.0706849 1.09039877,40.0706849 C1.12888344,40.0661737 5.1026135,39.6721985 9.32511043,40.6824491 C14.8052761,41.996201 18.1197362,44.9572804 19.1809571,49.4829826 L19.2058589,49.4767171 C18.5757669,52.1626154 18.5262147,55.2881017 19.4991472,58.8626998 C22.1186196,68.4777494 27.2531779,74.0214715 27.4722638,74.252794 L29.1701166,76.0595161 L29.0345399,73.5891514 C29.0345399,73.5716079 28.9963067,72.8984417 28.9510307,72.0099926 C30.4526871,75.1392382 32.1414847,78.9794938 32.4599264,80.8942333 C32.3628344,83.2610918 32.3288773,85.4745707 32.538908,86.939196 C33.4489571,93.2565831 37.1495215,96.4377072 44.9103436,97.5802854 C45.6440675,97.6883027 46.3282393,97.7376749 46.9691472,97.7376749 C51.2369202,97.7376749 53.5331718,95.5580298 54.6192945,94.0214764 C57.1323681,92.7164963 58.8214172,90.4912382 59.5890982,87.411866 C59.9842577,85.8234342 61.0726442,84.0685906 62.6507669,82.293196 C64.8974663,79.7694491 66.2814049,77.3757742 67.1102086,75.2407395 C68.4108896,74.207933 69.6909448,73.1936725 70.4249202,72.624263 L70.5896748,72.496196 C73.3283742,70.3696824 77.0812577,67.458727 77.4379325,58.7702208 C77.4560429,58.3248685 77.5101227,57.8930496 77.5214417,57.456469 C78.3276074,56.3585012 79.4743497,54.6600471 80.2264356,52.2099826 C80.9287178,49.9173077 80.8769018,48.196799 80.4591043,46.9053524 C81.5588098,43.3934094 80.5584601,40.3403524 78.3997975,38.0323896 Z" id="Fill-41" fill="#171717"></path>
                <path d="M34.3029141,24.3630546 C34.3029141,24.3630546 34.2282086,22.2475682 34.8258528,20.409268 C35.4232454,18.5707171 36.3976871,17.6033226 36.3976871,17.6033226 C36.3976871,17.6033226 32.2863681,21.1007295 31.0915828,23.4074392 C29.896546,25.7143995 29.896546,25.7143995 29.0712638,26.9747692 C28.4001718,27.9993052 27.6805337,28.6544268 27.6805337,28.6544268 C27.6805337,28.6544268 26.7966442,26.9857965 26.7966442,23.3355112 C26.7966442,19.4010223 28.1788221,16.7995831 28.1788221,16.7995831 C28.1788221,16.7995831 23.3989264,19.8358486 21.0838098,28.6165831 C18.7686933,37.397067 18.9181043,42.003469 18.9181043,42.003469 C18.9181043,42.003469 15.781227,38.9724665 15.3332454,35.3943598 C14.8850123,31.8160025 15.3332454,30.4779404 15.3332454,30.4779404 C15.3332454,30.4779404 12.6446012,31.8959504 10.5536012,34.1257196 C8.46234969,36.3554888 7.19562577,38.9446476 7.19562577,38.9446476 C7.19562577,38.9446476 12.6136626,39.7659305 15.5264233,42.3603524 C18.4389325,44.9550248 20.2781472,48.2805062 20.2781472,48.2805062 L23.4157791,42.6317742 C23.4157791,42.6317742 22.3870061,39.7784615 23.4157791,34.9414888 C24.4448037,30.1045161 24.5486871,31.6939504 26.4975706,30.4779404 C28.4467055,29.2619305 28.8634969,29.5341042 28.8634969,29.5341042 C28.8634969,29.5341042 31.0168773,25.6908412 34.3029141,24.3630546" id="Fill-42" fill="#171717"></path>
                <path d="M59.4017055,52.9683598 C64.4457117,53.4563176 65.3716074,48.9005409 62.2556074,48.9005409 C60.0519202,48.9005409 58.8030552,52.6711241 57.0669693,52.5205012 C55.614865,52.3946898 54.0073129,46.3875707 51.3971472,47.1662481 C50.4848344,47.4384218 50.1734356,48.7679628 51.3971472,50.5834566 C52.5858957,52.2528387 55.5451902,52.5064665 56.2879693,52.6059628 C56.2902331,52.6059628 56.2947607,52.6668635 59.4017055,52.9683598" id="Fill-43" fill="#171717"></path>
            </g>
        </g>
    </g>
</svg>