<?xml version="1.0" encoding="UTF-8"?>
<svg width="388px" height="454px" viewBox="0 0 388 454" version="1.1" xmlns="http://www.w3.org/2000/svg" xmlns:xlink="http://www.w3.org/1999/xlink">
    <title>monke-logo-4</title>
    <defs>
        <filter x="-10.9%" y="-9.1%" width="121.9%" height="118.3%" filterUnits="objectBoundingBox" id="filter-1">
            <feOffset dx="15" dy="15" in="SourceAlpha" result="shadowOffsetOuter1"></feOffset>
            <feGaussianBlur stdDeviation="2" in="shadowOffsetOuter1" result="shadowBlurOuter1"></feGaussianBlur>
            <feColorMatrix values="0 0 0 0 0   0 0 0 0 0   0 0 0 0 0  0 0 0 0.587276005 0" type="matrix" in="shadowBlurOuter1" result="shadowMatrixOuter1"></feColorMatrix>
            <feMerge>
                <feMergeNode in="shadowMatrixOuter1"></feMergeNode>
                <feMergeNode in="SourceGraphic"></feMergeNode>
            </feMerge>
        </filter>
    </defs>
    <g id="Page-1" stroke="none" stroke-width="1" fill="none" fill-rule="evenodd" opacity="0.0454896439">
        <g id="monke-logo-4" filter="url(#filter-1)" transform="translate(27.000000, 27.000000)" fill-rule="nonzero">
            <path d="M45.6092248,114.42956 L39.2104012,123.367791 L49.295705,90.8576394 C44.3786819,95.3283004 39.5512462,100.910446 39.5512462,100.910446 C46.924207,74.7797414 72.9241906,53.992198 72.9241906,53.992198 C76.2955693,50.8266816 79.8296479,47.8307206 83.4213919,45.0108047 C86.0132552,42.9759329 88.744134,40.9164416 91.5131129,39.0251666 L85.1256166,38.9945724 C99.3999156,20.642097 109.280301,10.4836015 130.72779,5.33605768 C123.867642,3.91945561 115.140569,2.92983256 115.140569,2.92983256 C131.648381,-3.31302317 163.909202,2.28364693 166.738936,2.79262242 C169.5697,2.28364693 201.830522,-3.31302317 218.337304,2.92983256 C218.337304,2.92983256 209.799704,3.89792639 202.974566,5.28980591 C224.657867,10.4337444 233.895692,20.4847998 248.756945,38.5728469 L242.369448,39.0251666 C245.138427,40.9164416 247.870336,42.9759329 250.462199,45.0108047 C254.053943,47.8309264 257.589052,50.8266816 260.96043,53.9932279 C260.993382,54.0189807 286.964533,74.7962232 294.332345,100.910446 C294.332345,100.910446 289.503879,95.3283004 284.587886,90.8576394 L294.67319,123.367791 L287.958235,113.692004 C288.49885,117.63216 289.280425,124.545203 288.964294,128.531714 C289.592437,128.619273 290.202045,128.733615 290.781791,128.872679 C297.67798,130.526 301.984366,135.630176 302.976008,142.619447 C303.815249,148.532257 303.954265,155.556551 303.372459,161.924668 C312.372414,167.508873 322.227056,176.376028 325.3791,185.884938 L333.59336,210.666203 L323.566752,200.977024 C326.687903,210.471513 328.169703,220.472815 327.759866,230.523561 L327.334582,240.939995 C334.771386,260.624295 334.266812,274.186673 333.398739,294.212968 L323.552335,288.021 C320.669055,304.295648 313.746092,319.808018 300.042271,329.971046 L295.087146,333.646465 C294.691725,334.38299 294.294244,335.105095 293.899853,335.809688 C287.653431,346.947196 279.395921,357.474882 269.028468,365.041012 L229.879694,393.612038 L252.496972,365.462325 C248.057749,367.887195 243.462006,370.002003 238.738574,371.734642 L233.291233,373.732018 C230.615961,377.057201 227.704877,379.939438 224.654778,381.962567 C208.114014,392.927017 187.146385,401.78181 166.941796,399.692755 C146.737206,401.78181 125.769577,392.927017 109.228813,381.962567 C106.178714,379.939438 103.26763,377.057201 100.591328,373.732018 L95.1439872,371.734642 C90.4195258,370.000973 85.8227527,367.885135 81.3825003,365.460265 L103.982272,393.596587 L64.8551235,365.041012 C54.48767,357.474882 46.2301598,346.947196 39.9837383,335.809688 C39.588317,335.105095 39.1918659,334.38299 38.7964445,333.646465 L33.8402909,329.971046 C20.1374994,319.808018 13.2145365,304.295648 10.3313588,288.021 L0.485058223,295.265737 C-0.330704264,274.861393 -1.04380136,261.037368 6.54880348,240.939995 L6.12382851,230.523561 C5.71368182,220.472815 7.1956881,210.471513 10.3169424,200.977024 L0.290127855,210.666203 L8.50438861,185.884938 C11.6561233,176.376028 21.5111768,167.508873 30.5111315,161.924668 C29.9293266,155.556551 30.0673122,148.532257 30.9065528,142.619447 C31.8992252,135.629146 36.2076703,130.523939 43.1069492,128.871649 C43.6846352,128.732585 44.2921835,128.619273 44.9192972,128.531714 C44.6031659,124.545203 45.0686099,118.369716 45.6092248,114.42956" id="Fill-3" fill="#6E4098"></path>
            <path d="M167.346844,9.54759408 C167.346844,9.54759408 119.991651,2.90425343 96.8467717,35.0571988 C96.8467717,35.0571988 102.699452,29.5434834 109.882381,27.9491846 C109.882381,27.9491846 98.6417315,41.4349089 97.7772245,43.0292075 C97.7772245,43.0292075 64.7219438,64.0879284 57.5390148,87.2063425 C57.5390148,87.2063425 69.1114542,70.9967972 78.3572471,64.553117 C78.3572471,64.553117 67.2495185,81.6261419 67.1165969,88.7346708 C67.1165969,88.7346708 50.0232664,107.66742 51.0217254,120.222356 C51.0217254,120.222356 56.9403516,110.723048 64.9888179,107.800184 C64.9888179,107.800184 50.6219296,124.740445 51.1546471,135.103233 C51.1546471,135.103233 39.149439,132.645557 37.5863199,143.64026 C36.0232008,154.633934 37.7192417,165.46294 37.7192417,165.46294 C37.7192417,165.46294 19.0967951,175.361569 14.9071825,187.983401 C14.9071825,187.983401 25.2163497,178.018905 31.8006154,176.092285 C31.8006154,176.092285 11.515822,197.749267 12.8463795,230.300092 C12.8463795,230.300092 18.3002947,207.57997 24.0200536,200.339706 C24.0200536,200.339706 19.3646995,216.81478 20.9607914,226.779276 C20.9607914,226.779276 4.93196851,250.494613 6.66108527,281.452271 C6.66108527,281.452271 9.85357831,255.743418 16.8371246,248.502125 C16.8371246,248.502125 7.12662068,301.91232 37.9871461,324.765206 C37.9871461,324.765206 28.8093598,312.076477 28.2106965,305.234504 C28.2106965,305.234504 34.5291186,315.066237 38.6527854,316.860093 C38.6527854,316.860093 47.831602,344.361774 68.9826543,359.773707 C68.9826543,359.773707 52.7538303,339.579186 51.2906601,332.40479 C51.2906601,332.40479 69.7812151,355.389411 97.7154004,365.620464 C97.7154004,365.620464 94.5232166,355.788732 94.2573728,348.879863 C94.2573728,348.879863 102.105941,369.207148 113.146694,376.514308 C124.187446,383.822497 145.724898,395.646718 167.346844,393.122145 C188.968789,395.646718 210.506242,383.822497 221.546994,376.514308 C232.587746,369.207148 240.436314,348.879863 240.436314,348.879863 C240.170471,355.788732 236.978287,365.620464 236.978287,365.620464 C264.912472,355.389411 283.403027,332.40479 283.403027,332.40479 C281.939857,339.579186 265.711033,359.773707 265.711033,359.773707 C286.862085,344.361774 296.040902,316.860093 296.040902,316.860093 C300.164569,315.066237 306.482991,305.234504 306.482991,305.234504 C305.884328,312.076477 296.706541,324.765206 296.706541,324.765206 C327.567066,301.91232 317.856563,248.502125 317.856563,248.502125 C324.839594,255.743418 328.032808,281.452271 328.032808,281.452271 C329.761822,250.494613 313.732896,226.779276 313.732896,226.779276 C315.328988,216.81478 310.673634,200.339706 310.673634,200.339706 C316.393392,207.57997 321.847308,230.300092 321.847308,230.300092 C323.177556,197.749267 302.892041,176.092285 302.892041,176.092285 C309.477337,178.018905 319.786505,187.983401 319.786505,187.983401 C315.595862,175.361569 296.974446,165.46294 296.974446,165.46294 C296.974446,165.46294 298.669456,154.633934 297.107367,143.64026 C295.544248,132.645557 283.53904,135.103233 283.53904,135.103233 C284.071758,124.740445 269.704869,107.800184 269.704869,107.800184 C277.753336,110.723048 283.671962,120.222356 283.671962,120.222356 C284.670421,107.66742 267.57709,88.7346708 267.57709,88.7346708 C267.444169,81.6261419 256.33644,64.553117 256.33644,64.553117 C265.582233,70.9967972 277.154672,87.2063425 277.154672,87.2063425 C269.971743,64.0879284 236.916463,43.0292075 236.916463,43.0292075 C236.050926,41.4349089 224.811306,27.9491846 224.811306,27.9491846 C231.994235,29.5434834 237.846916,35.0571988 237.846916,35.0571988 C214.702036,2.90425343 167.346844,9.54759408 167.346844,9.54759408" id="Fill-4" fill="#01034D"></path>
            <path d="M166.938776,145.472119 C166.938776,145.472119 161.095709,138.503202 155.244402,143.2818 C155.244402,143.2818 152.983201,141.423627 149.591915,136.909308 C146.200629,132.396016 135.295358,127.550578 125.18846,135.913895 C125.18846,135.913895 106.570382,119.717873 96.063783,140.029227 C96.063783,140.029227 74.1203498,141.755775 70.8619543,157.353315 C70.8619543,157.353315 74.7858327,152.24257 79.8387665,152.176758 C79.8387665,152.176758 76.4474805,157.022196 76.3815502,161.137529 C76.3815502,161.137529 49.5840039,171.292177 53.4409223,194.125997 C53.4409223,194.125997 56.1667249,181.049895 64.7448653,177.333551 C64.7448653,177.333551 64.1463424,182.444296 70.5961729,186.559628 C77.0470336,190.67496 75.7830274,197.312758 75.7830274,198.905624 C75.7830274,200.49849 75.9828784,208.06486 82.2328578,210.521514 C82.2328578,210.521514 77.4457054,195.055598 83.097162,186.094827 C83.097162,186.094827 81.3026237,210.189366 91.9410834,212.047539 C91.9410834,212.047539 89.5480222,201.958702 92.3407854,196.91377 C92.3407854,196.91377 93.0721991,214.570005 103.777619,223.132816 C103.777619,223.132816 108.10017,208.264354 119.471074,207.999047 C119.471074,207.999047 108.23306,220.14555 113.154134,237.934438 C113.154134,237.934438 113.087173,242.315076 108.16713,248.155927 C103.246057,253.997807 85.0936117,273.180067 90.4133566,299.730231 C90.4133566,299.730231 93.6058218,303.514445 100.188543,301.854738 C100.188543,301.854738 104.444133,325.816624 127.983284,341.083046 C127.983284,341.083046 118.408979,340.220287 111.160774,337.365674 C111.160774,337.365674 123.240428,357.74284 166.938776,360 C210.637123,357.74284 222.716777,337.365674 222.716777,337.365674 C215.468572,340.220287 205.894267,341.083046 205.894267,341.083046 C229.433418,325.816624 233.689008,301.854738 233.689008,301.854738 C240.271729,303.514445 243.463164,299.730231 243.463164,299.730231 C248.782909,273.180067 230.631494,253.997807 225.710421,248.155927 C220.789347,242.315076 220.723417,237.934438 220.723417,237.934438 C225.64346,220.14555 214.406478,207.999047 214.406478,207.999047 C225.777381,208.264354 230.099932,223.132816 230.099932,223.132816 C240.805352,214.570005 241.536766,196.91377 241.536766,196.91377 C244.329529,201.958702 241.935437,212.047539 241.935437,212.047539 C252.574927,210.189366 250.780389,186.094827 250.780389,186.094827 C256.431846,195.055598 251.644693,210.521514 251.644693,210.521514 C257.894673,208.06486 258.094524,200.49849 258.094524,198.905624 C258.094524,197.312758 256.830517,190.67496 263.280348,186.559628 C269.731209,182.444296 269.132686,177.333551 269.132686,177.333551 C277.710826,181.049895 280.436629,194.125997 280.436629,194.125997 C284.293547,171.292177 257.496001,161.137529 257.496001,161.137529 C257.43007,157.022196 254.038785,152.176758 254.038785,152.176758 C259.091718,152.24257 263.014567,157.353315 263.014567,157.353315 C259.756171,141.755775 237.813768,140.029227 237.813768,140.029227 C227.307169,119.717873 208.689091,135.913895 208.689091,135.913895 C198.582193,127.550578 187.676922,132.396016 184.285636,136.909308 C180.89435,141.423627 178.633149,143.2818 178.633149,143.2818 C172.781842,138.503202 166.938776,145.472119 166.938776,145.472119" id="Fill-5" fill="#B77B5F"></path>
            <path d="M140.166466,203.061384 C140.166466,203.061384 137.733304,206.227558 139.303185,210.550917 C142.266809,206.117252 147.516131,202.372996 153.257,201.940967 C153.257,201.940967 146.514602,207.413341 148.894513,211.89603 C151.2734,216.378719 159.867295,216.313353 162.048539,221.917481 C164.229782,227.520587 167.347015,235.102041 167.347015,235.102041 C167.347015,235.102041 170.464248,227.520587 172.645492,221.917481 C174.826736,216.313353 183.420631,216.378719 185.799517,211.89603 C188.179428,207.413341 181.43703,201.940967 181.43703,201.940967 C187.1779,202.372996 192.427222,206.117252 195.390846,210.550917 C196.960727,206.227558 194.52654,203.061384 194.52654,203.061384 C194.52654,203.061384 185.074485,193.634357 178.530754,196.996629 C171.985998,200.358902 175.027451,205.105098 175.225094,206.55541 C175.423761,208.005722 173.968575,213.609849 171.985998,214.928407 C170.003422,216.246966 169.582534,219.740991 167.347015,219.807379 C167.347015,219.807379 167.278404,202.45164 165.60202,199.107752 C163.926661,195.764885 158.269764,194.302317 156.070088,194.302317 C153.870411,194.302317 148.737832,194.19814 148.004606,194.511694 C147.271381,194.825247 144.809545,197.332652 144.809545,197.332652 L140.166466,203.061384" id="Fill-6" fill="#DBB79D"></path>
            <path d="M198.636408,199.183673 C198.636408,199.183673 215.144918,212.311521 209.39702,226.571899 C203.649121,240.833309 192.487783,230.836695 188.744556,237.567866 C185.001329,244.298004 187.541339,247.896909 175.510204,248.163265 C175.510204,248.163265 178.851668,233.169892 189.079013,230.170804 C199.305322,227.171717 205.98825,229.237525 205.11949,218.37577 C204.25073,207.514014 198.636408,199.183673 198.636408,199.183673" id="Fill-7" fill="#01034D"></path>
            <path d="M209.795918,231.836735 C209.795918,231.836735 213.093238,233.759557 214.507269,240.920839 C215.9213,248.081093 219.487662,255.573117 226.824772,259.816269 C234.161883,264.059421 238.40189,278.777436 236.112953,284.081633 C236.112953,284.081633 233.95958,271.417915 228.642365,268.103305 C223.324107,264.788696 214.438445,254.909579 212.957675,249.804649 C211.477948,244.699719 212.082769,239.593763 209.795918,231.836735" id="Fill-8" fill="#01034D"></path>
            <path d="M78.3673469,132.244898 C78.3673469,132.244898 97.5148019,111.205275 118.983348,117.545858 C140.451893,123.88644 147.097531,126.912232 167.346939,126.624256 C187.596347,126.912232 194.240957,123.88644 215.71053,117.545858 C237.179076,111.205275 256.326531,132.244898 256.326531,132.244898 C256.326531,132.244898 252.192152,115.456498 237.758834,107.746497 C223.325516,100.036496 189.309924,110.700806 189.309924,110.700806 C203.742214,97.6591607 230.723607,97.8756534 230.723607,97.8756534 C219.409061,85.9144292 197.577652,93.3364544 188.439258,98.3076177 C179.300863,103.279803 167.346939,103.855755 167.346939,103.855755 C167.346939,103.855755 155.393014,103.279803 146.254619,98.3076177 C137.116225,93.3364544 115.284816,85.9144292 103.970271,97.8756534 C103.970271,97.8756534 130.951663,97.6591607 145.383954,110.700806 C145.383954,110.700806 111.368362,100.036496 96.9350434,107.746497 C82.5017253,115.456498 78.3673469,132.244898 78.3673469,132.244898" id="Fill-9" fill="#6E4098"></path>
            <path d="M166.938776,94.6938776 C166.938776,94.6938776 144.246325,93.1533179 128.163265,77.9701754 C128.163265,77.9701754 129.691842,79.2175925 136.677705,79.4369296 C143.664599,79.657307 152.433801,83.1781408 152.433801,83.1781408 C152.433801,83.1781408 147.958434,79.9140669 146.211195,72.6530612 C146.211195,72.6530612 156.372825,79.9140669 166.938776,79.9878723 C177.504726,79.9140669 187.666356,72.6530612 187.666356,72.6530612 C185.919117,79.9140669 181.44375,83.1781408 181.44375,83.1781408 C181.44375,83.1781408 190.212952,79.657307 197.199846,79.4369296 C204.185709,79.2175925 205.714286,77.9701754 205.714286,77.9701754 C189.630195,93.1533179 166.938776,94.6938776 166.938776,94.6938776" id="Fill-10" fill="#6E4098"></path>
            <path d="M166.938776,23.7074446 C166.938776,23.7074446 134.658826,19.0997671 134.152081,31.3363519 C134.152081,31.3363519 93.6744252,45.6124193 89.7959184,72.6530612 C89.7959184,72.6530612 113.40754,48.7091202 130.188945,45.0080287 C130.188945,45.0080287 116.612108,54.9787167 118.888846,68.0463129 C118.888846,68.0463129 139.092584,43.5728335 166.938776,41.6845003 C194.784967,43.5728335 214.988705,68.0463129 214.988705,68.0463129 C217.265444,54.9787167 203.688606,45.0080287 203.688606,45.0080287 C220.470011,48.7091202 244.081633,72.6530612 244.081633,72.6530612 C240.203126,45.6124193 199.724438,31.3363519 199.724438,31.3363519 C199.218725,19.0997671 166.938776,23.7074446 166.938776,23.7074446" id="Fill-11" fill="#6E4098"></path>
            <path d="M167.346939,151.720225 C167.346939,151.720225 165.167889,147.980052 162.102148,146.309703 C162.102148,146.309703 165.733554,157.932802 164.534096,166.68402 C164.534096,166.68402 156.938905,155.996482 157.804951,147.177995 C157.804951,147.177995 152.142105,152.655785 153.207372,163.077351 C153.207372,163.077351 144.279564,142.769269 132.886777,143.704829 C132.886777,143.704829 145.412959,151.787494 144.013247,164.947437 C144.013247,164.947437 122.62532,141.566701 105.96813,145.441412 C89.3109398,149.316123 79.1836735,172.963867 79.1836735,172.963867 C79.1836735,172.963867 90.7767144,158.334348 98.3729381,156.463227 C98.3729381,156.463227 92.4427432,167.753084 97.7732091,179.443452 C97.7732091,179.443452 92.1764263,176.637805 89.5782886,172.229079 C89.5782886,172.229079 90.9098731,189.062962 105.902067,193.67246 C120.893228,198.28196 127.623406,194.072972 127.623406,194.072972 C127.623406,194.072972 122.559257,200.819564 122.958732,207.166681 C122.958732,207.166681 125.824219,203.024962 128.555515,201.822394 C131.287843,200.619826 136.151739,194.006737 135.885422,190.532537 C135.885422,190.532537 137.684609,194.407248 142.681663,195.809554 C142.681663,195.809554 139.416701,198.815974 139.949335,202.623416 C139.949335,202.623416 149.477904,193.071176 156.073891,196.478107 C162.669878,199.885039 159.60517,204.694275 159.405948,206.163851 C159.205695,207.633426 160.671469,213.311989 162.67091,214.648061 C164.669319,215.984133 165.093568,219.524567 167.346939,219.591837 C169.60031,219.524567 170.024559,215.984133 172.022967,214.648061 C174.021376,213.311989 175.488183,207.633426 175.287929,206.163851 C175.088708,204.694275 172.022967,199.885039 178.619987,196.478107 C185.215974,193.071176 194.743511,202.623416 194.743511,202.623416 C195.277177,198.815974 192.012215,195.809554 192.012215,195.809554 C197.009269,194.407248 198.808456,190.532537 198.808456,190.532537 C198.542139,194.006737 203.406034,200.619826 206.13733,201.822394 C208.869659,203.024962 211.734113,207.166681 211.734113,207.166681 C212.134621,200.819564 207.070472,194.072972 207.070472,194.072972 C207.070472,194.072972 213.800649,198.28196 228.791811,193.67246 C243.784004,189.062962 245.115589,172.229079 245.115589,172.229079 C242.517451,176.637805 236.920668,179.443452 236.920668,179.443452 C242.251134,167.753084 236.320939,156.463227 236.320939,156.463227 C243.917163,158.334348 255.510204,172.963867 255.510204,172.963867 C255.510204,172.963867 245.382938,149.316123 228.725748,145.441412 C212.068558,141.566701 190.680631,164.947437 190.680631,164.947437 C189.280919,151.787494 201.807101,143.704829 201.807101,143.704829 C190.414314,142.769269 181.486506,163.077351 181.486506,163.077351 C182.551773,152.655785 176.888927,147.177995 176.888927,147.177995 C177.754973,155.996482 170.158749,166.68402 170.158749,166.68402 C168.960323,157.932802 172.590697,146.309703 172.590697,146.309703 C169.525989,147.980052 167.346939,151.720225 167.346939,151.720225" id="Fill-12" fill="#01034D"></path>
            <path d="M166.938887,249.795918 C166.938887,249.795918 161.035892,236.053262 155.937059,231.759642 C150.839251,227.464998 138.194227,226.474241 136.538722,219.470369 C134.883216,212.46752 143.159717,202.360368 152.826063,201.632653 C152.826063,201.632653 146.07275,207.116615 148.456514,211.608796 C150.839251,216.102 159.447058,216.035473 161.631833,221.651467 C163.816608,227.266437 166.938887,234.863945 166.938887,234.863945 C166.938887,234.863945 170.061166,227.266437 172.24594,221.651467 C174.430715,216.035473 183.037496,216.102 185.42126,211.608796 C187.805023,207.116615 181.05171,201.632653 181.05171,201.632653 C190.718056,202.360368 198.993531,212.46752 197.339051,219.470369 C195.683546,226.474241 183.038522,227.464998 177.940714,231.759642 C172.841881,236.053262 166.938887,249.795918 166.938887,249.795918" id="Fill-13" fill="#01034D"></path>
            <path d="M135.241143,199.183673 C135.241143,199.183673 118.732633,212.311521 124.480531,226.571899 C130.22843,240.833309 141.389768,230.836695 145.132995,237.567866 C148.876222,244.298004 146.336212,247.896909 158.367347,248.163265 C158.367347,248.163265 155.024847,233.169892 144.798538,230.170804 C134.572229,227.171717 127.889301,229.237525 128.758061,218.37577 C129.626821,207.514014 135.241143,199.183673 135.241143,199.183673" id="Fill-14" fill="#01034D"></path>
            <path d="M166.938776,267.788025 C166.938776,267.788025 124.244454,265.665271 107.755102,295.510204 C107.755102,295.510204 129.713094,282.378105 166.938776,279.858747 C204.164457,282.378105 226.122449,295.510204 226.122449,295.510204 C209.633097,265.665271 166.938776,267.788025 166.938776,267.788025" id="Fill-15" fill="#01034D"></path>
            <path d="M167.346939,287.346939 C167.346939,287.346939 131.024145,287.822894 124.081633,303.388334 C124.081633,303.388334 128.987826,299.072089 132.292061,299.072089 C132.292061,299.072089 132.525788,300.567348 136.465014,300.498904 C140.403207,300.431511 146.611445,299.615437 146.611445,299.615437 C146.611445,299.615437 145.543128,303.489422 150.31591,303.658955 C155.088694,303.829541 162.748933,302.43537 167.346939,302.673348 C171.944944,302.43537 179.604149,303.829541 184.377967,303.658955 C189.15075,303.489422 188.082433,299.615437 188.082433,299.615437 C188.082433,299.615437 194.290671,300.431511 198.228863,300.498904 C202.16809,300.567348 202.401817,299.072089 202.401817,299.072089 C205.706051,299.072089 210.612245,303.388334 210.612245,303.388334 C203.669732,287.822894 167.346939,287.346939 167.346939,287.346939" id="Fill-16" fill="#DBB79D"></path>
            <path d="M166.938776,316.735557 C166.938776,316.735557 141.773816,316.470801 133.110876,325.214927 C133.110876,325.214927 146.172909,321.438565 151.371087,321.902401 C151.371087,321.902401 134.943401,326.605408 127.346939,337.600986 C127.346939,337.600986 132.644227,334.649677 139.863861,331.574199 C139.018318,335.383399 139.018318,340.76369 139.018318,340.76369 C139.018318,340.76369 141.121334,331.286867 144.746121,331.215034 C144.746121,331.215034 139.127753,339.178233 146.08722,343.357886 C153.047718,347.53754 166.938776,345.736584 166.938776,345.736584 C166.938776,345.736584 180.829833,347.53754 187.790331,343.357886 C194.749798,339.178233 189.13143,331.215034 189.13143,331.215034 C192.756217,331.286867 194.859233,340.76369 194.859233,340.76369 C194.859233,340.76369 194.858201,335.383399 194.01369,331.574199 C201.233324,334.649677 206.530612,337.600986 206.530612,337.600986 C198.93415,326.605408 182.506464,321.902401 182.506464,321.902401 C187.704642,321.438565 200.766675,325.214927 200.766675,325.214927 C192.102702,316.470801 166.938776,316.735557 166.938776,316.735557" id="Fill-17" fill="#DBB79D"></path>
            <path d="M124.081633,231.836735 C124.081633,231.836735 120.783339,233.759557 119.370381,240.920839 C117.956379,248.081093 114.390093,255.573117 107.053137,259.816269 C99.7161806,264.059421 95.4762624,278.777436 97.7641082,284.081633 C97.7641082,284.081633 99.9184787,271.417915 105.235582,268.103305 C110.553728,264.788696 119.438161,254.909579 120.9189,249.804649 C122.399638,244.699719 121.793787,239.593763 124.081633,231.836735" id="Fill-18" fill="#01034D"></path>
            <path d="M85.5170111,340.408163 C52.506923,284.814804 94.2028457,265.051972 92.172645,242.48494 C91.7725852,238.045641 81.5906512,235.660224 70.6096287,251.627328 C59.627575,267.594432 50.5767377,283.0319 48.9795918,293.366997 C48.9795918,293.366997 64.6860631,266.73326 73.0718525,261.962425 C73.0718525,261.962425 60.4266635,287.934117 66.8162783,311.123164 C73.2048619,334.312211 85.5170111,340.408163 85.5170111,340.408163" id="Fill-19" fill="#6E4098"></path>
            <path d="M38.0940668,273.469388 C38.0940668,273.469388 45.414585,250.819268 72.963693,234.430803 C72.963693,234.430803 86.0727918,227.934865 80.0501939,225.93675 C74.0275956,223.938635 48.7753639,221.906461 33.4693878,235.363807 C33.4693878,235.363807 53.6990077,230.234348 62.3494049,231.833047 C62.3494049,231.833047 53.3670537,237.828424 45.5145837,250.485905 C37.6631448,263.143386 38.0940668,273.469388 38.0940668,273.469388" id="Fill-20" fill="#6E4098"></path>
            <path d="M36.7346939,220.408163 C36.7346939,220.408163 55.3808387,215.741035 61.8433755,218.874147 C68.3048694,222.008292 70.1903406,217.341163 67.1608635,212.006712 C64.1313864,206.67226 61.4397928,199.336872 62.4492709,193.469388 C62.4492709,193.469388 55.5831514,199.336872 57.1985249,211.273276 C57.1985249,211.273276 48.9860868,212.206082 43.5340709,215.140857 C38.0810122,218.074599 36.7346939,220.408163 36.7346939,220.408163" id="Fill-21" fill="#6E4098"></path>
            <path d="M167.346939,264.019209 C167.346939,264.019209 150.081449,261.61166 132.891223,268.207853 C115.700998,274.804046 106.737295,286.530612 106.737295,286.530612 C106.737295,286.530612 103.257596,275.328139 112.854347,268.730922 C122.451097,262.134729 125.192584,255.329718 126.352483,248.313841 C127.513414,241.298988 126.563843,238.367347 126.563843,238.367347 C128.624855,241.973552 136.470931,243.674805 140.280556,243.082131 C145.659397,242.243788 143.971614,252.191305 154.6231,254.494445 C169.211026,257.649236 167.070625,257.563252 180.8193,254.494445 C191.139828,252.191305 189.504627,242.243788 194.715411,243.082131 C198.664224,243.716774 206.091705,241.936702 208.130035,238.367347 C208.130035,238.367347 207.180464,241.298988 208.341394,248.313841 C209.501294,255.329718 212.242781,262.134729 221.839531,268.730922 C231.436281,275.328139 227.956583,286.530612 227.956583,286.530612 C227.956583,286.530612 218.99288,274.804046 201.802654,268.207853 C184.612429,261.61166 167.346939,264.019209 167.346939,264.019209" id="Fill-22" fill="#DBB79D"></path>
            <path d="M168.879824,118.719438 C168.879824,118.719438 179.959953,123.158947 190.981243,119.118494 C202.003565,115.077025 225.028845,107.565184 237.55102,116.671216 C237.55102,116.671216 225.60587,102.329597 196.405695,113.14282 C196.405695,113.14282 185.383373,117.354296 176.612379,113.369834 C176.612379,113.369834 181.517612,111.77666 184.690736,109.158358 C187.864892,106.541073 194.271011,97.321024 208.871098,96.9229852 C208.871098,96.9229852 197.386329,94.0206598 188.03831,101.020445 C178.689258,108.020231 174.476662,110.638533 170.609868,109.614423 C169.116208,109.21842 167.974544,110.097974 167.346939,111.477368 C166.719333,110.097974 165.577669,109.21842 164.084009,109.614423 C160.217216,110.638533 156.00462,108.020231 146.655568,101.020445 C137.307548,94.0206598 125.823812,96.9229852 125.823812,96.9229852 C140.422867,97.321024 146.828985,106.541073 150.003142,109.158358 C153.176266,111.77666 158.081499,113.369834 158.081499,113.369834 C149.310505,117.354296 138.288182,113.14282 138.288182,113.14282 C109.088008,102.329597 97.1428571,116.671216 97.1428571,116.671216 C109.665033,107.565184 132.690312,115.077025 143.711603,119.118494 C154.733925,123.158947 165.814054,118.719438 165.814054,118.719438 C166.503594,118.22367 167.00733,117.552807 167.346939,116.797449 C167.685515,117.552807 168.190284,118.22367 168.879824,118.719438" id="Fill-23" fill="#9F64BF"></path>
            <path d="M137.959184,81.8313244 C141.787226,84.0723267 151.788177,89.9349125 164.073688,91.4285714 C165.527219,89.6881967 164.722768,86.9876857 164.194304,85.6780356 C164.120708,85.4457115 164.011335,85.1897438 163.850854,84.9193843 L163.847787,84.9132166 L163.846765,84.9132166 C163.319323,84.0270953 162.241952,82.9744412 160.082098,82.0122494 C155.064245,79.7753587 153.951098,80.4970028 149.609924,75.9183673 C149.863423,76.2339582 152.321752,79.4710758 156.572974,82.6352066 L156.576041,82.6372627 C157.768918,83.7515959 158.184943,85.6842037 158.442531,87.1901984 L158.359734,87.1758066 C153.502363,86.3996797 149.616057,85.7674701 145.759394,84.5606185 C141.901709,83.3537669 137.959184,81.8313244 137.959184,81.8313244" id="Fill-24" fill="#9F64BF"></path>
            <path d="M166.938776,25.4432118 C166.938776,25.4432118 147.754366,24.6107625 142.633661,27.0485178 C142.633661,27.0485178 149.35067,26.6622433 154.737425,29.4566307 C154.737425,29.4566307 128.535031,33.0239774 115.102041,45.3909159 C115.102041,45.3909159 142.367611,34.450916 155.069218,33.7374467 C155.069218,33.7374467 131.476996,44.8092479 128.469289,53.0612245 C128.469289,53.0612245 150.345022,37.6021407 166.938776,37.1265286 C183.532529,37.6021407 205.408262,53.0612245 205.408262,53.0612245 C202.400555,44.8092479 178.808333,33.7374467 178.808333,33.7374467 C191.50994,34.450916 218.77551,45.3909159 218.77551,45.3909159 C205.34252,33.0239774 179.140126,29.4566307 179.140126,29.4566307 C184.526881,26.6622433 191.24389,27.0485178 191.24389,27.0485178 C186.123185,24.6107625 166.938776,25.4432118 166.938776,25.4432118" id="Fill-25" fill="#9F64BF"></path>
            <path d="M195.918367,81.8313244 C192.089303,84.0723267 182.089374,89.9349125 169.803863,91.4285714 C168.350332,89.6881967 169.154783,86.9876857 169.683247,85.6780356 C169.756843,85.4457115 169.866216,85.1897438 170.026697,84.9193843 L170.029764,84.9132166 L170.030786,84.9132166 C170.558228,84.0270953 171.635599,82.9744412 173.795453,82.0122494 C178.813306,79.7753587 179.926453,80.4970028 184.267627,75.9183673 C184.014128,76.2339582 181.555799,79.4710758 177.304577,82.6352066 L177.30151,82.6372627 C176.108633,83.7515959 175.692608,85.6842037 175.43502,87.1901984 L175.517817,87.1758066 C180.375188,86.3996797 184.261494,85.7674701 188.118157,84.5606185 C191.975842,83.3537669 195.918367,81.8313244 195.918367,81.8313244" id="Fill-26" fill="#9F64BF"></path>
            <path d="M69.1173989,298.77551 C69.1173989,298.77551 74.9705091,266.937765 85.5052745,255.522456 C85.5052745,255.522456 92.2094055,246.935122 88.85734,243.740597 C85.5052745,240.546071 69.1673365,253.962054 62.0408163,268.770522 C62.0408163,268.770522 75.1296853,253.375367 79.9184989,251.856944 C79.9184989,251.856944 76.4603157,258.402649 72.7357987,272.645932 C69.0112816,286.889214 69.1173989,298.77551 69.1173989,298.77551" id="Fill-27" fill="#9F64BF"></path>
            <path d="M44.8979592,230.626155 C44.8979592,230.626155 70.7898752,224.560591 75.3152756,227.988326 C79.8406756,231.417092 57.5810161,239.274895 52.4238296,248.979592 C52.4238296,248.979592 54.7040222,239.944149 64.4215935,233.684718 C64.4215935,233.684718 68.3687139,231.153103 66.3694297,230.230172 C64.3691165,229.307241 44.8979592,230.626155 44.8979592,230.626155" id="Fill-28" fill="#9F64BF"></path>
            <path d="M60.2829946,200 C60.2829946,200 62.5406987,209.844789 64.536595,213.021162 C66.5314646,216.197534 64.2737609,218.526253 62.0160571,217.837987 C59.758353,217.149722 49.7860576,215.796995 44.8979592,217.785203 C44.8979592,217.785203 50.017064,214.29109 56.3189224,214.582956 C62.619754,214.873787 61.5961387,212.650637 61.175193,210.850796 C60.7552746,209.050954 60.2829946,200 60.2829946,200" id="Fill-29" fill="#9F64BF"></path>
            <path d="M248.361411,342.040816 C281.369681,286.447457 239.674752,266.684625 241.704904,244.117593 C242.104954,239.678295 252.286646,237.292877 263.268438,253.259981 C274.249199,269.227085 283.300851,284.664553 284.897959,294.99965 C284.897959,294.99965 269.190831,268.365913 260.805242,263.595078 C260.805242,263.595078 273.450129,289.56677 267.061698,312.755817 C260.672236,335.944864 248.361411,342.040816 248.361411,342.040816" id="Fill-30" fill="#6E4098"></path>
            <path d="M296.599765,275.102041 C296.599765,275.102041 289.280205,252.451921 261.730825,236.063456 C261.730825,236.063456 248.621596,229.567518 254.643223,227.569403 C260.66588,225.571288 285.919393,223.539114 301.22449,236.99646 C301.22449,236.99646 280.994669,231.867002 272.344187,233.4657 C272.344187,233.4657 281.326627,239.461077 289.179174,252.118558 C297.031722,264.776039 296.599765,275.102041 296.599765,275.102041" id="Fill-31" fill="#6E4098"></path>
            <path d="M297.959184,221.22449 C297.959184,221.22449 279.313021,216.557361 272.85152,219.690474 C266.388977,222.824619 264.503504,218.15749 267.532984,212.823038 C270.562464,207.488586 273.255103,200.153198 272.244581,194.285714 C272.244581,194.285714 279.110708,200.153198 277.495333,212.089603 C277.495333,212.089603 285.707778,213.022409 291.160842,215.95615 C296.612864,218.890925 297.959184,221.22449 297.959184,221.22449" id="Fill-32" fill="#6E4098"></path>
            <path d="M264.760152,300.408163 C264.760152,300.408163 258.908083,268.570418 248.372277,257.155109 C248.372277,257.155109 241.668145,248.566751 245.020211,245.37325 C248.372277,242.178724 264.710214,255.594707 271.836735,270.403175 C271.836735,270.403175 258.747866,255.00802 253.959052,253.489597 C253.959052,253.489597 257.418275,260.035302 261.142793,274.278585 C264.86731,288.521867 264.760152,300.408163 264.760152,300.408163" id="Fill-33" fill="#9F64BF"></path>
            <path d="M289.795918,232.258981 C289.795918,232.258981 263.904002,226.193133 259.378602,229.621028 C254.853202,233.049954 277.112862,240.908125 282.270048,250.612245 C282.270048,250.612245 279.989855,241.57741 270.272284,235.317687 C270.272284,235.317687 266.325163,232.785953 268.325477,231.862979 C270.324761,230.940005 289.795918,232.258981 289.795918,232.258981" id="Fill-34" fill="#9F64BF"></path>
            <path d="M273.594241,200.816327 C273.594241,200.816327 271.336491,210.661115 269.341581,213.837488 C267.345643,217.013861 269.603394,219.34258 271.862171,218.654314 C274.119921,217.966048 284.091394,216.613321 288.979592,218.60153 C288.979592,218.60153 283.860382,215.107416 277.559422,215.399282 C271.257434,215.690113 272.282098,213.466963 272.702025,211.667122 C273.121952,209.867281 273.594241,200.816327 273.594241,200.816327" id="Fill-35" fill="#9F64BF"></path>
            <path d="M122.44898,198.062042 C122.44898,198.062042 119.143731,202.524003 119.143731,205.620079 C119.143731,205.620079 105.244867,208.402136 103.514816,216.326531 C103.514816,216.326531 93.7590509,201.053444 93.024779,190.977086 C93.024779,190.977086 88.1474092,195.018302 87.7802734,202.73335 C87.7802734,202.73335 84.6329544,189.507553 86.3117296,181.582132 C86.3117296,181.582132 79.0736142,185.255964 78.0768097,197.327275 C78.0768097,197.327275 76.9231001,188.930823 73.0948367,185.571011 C69.2655474,182.212225 65.8044197,177.22587 67.3252651,173.76241 C67.3252651,173.76241 60.5588886,176.12372 58.7755102,178.853439 C58.7755102,178.853439 64.2835748,168.619045 76.6082659,165.312595 C76.6082659,165.312595 70.9443226,171.086054 72.0980318,173.447364 C73.251741,175.809699 78.8633828,178.801102 82.3778376,175.704 C85.8912668,172.607924 86.6788658,164.734839 92.1336028,163.265306 C92.1336028,163.265306 89.9307876,168.408671 91.8187683,170.875681 C91.8187683,170.875681 89.35342,170.823344 89.1431885,168.881754 C88.9339827,166.939138 85.9445939,171.558111 88.4089166,179.377832 C88.4089166,179.377832 89.3011184,187.146244 90.0876919,189.244843 L93.2873121,186.831197 C93.2873121,186.831197 96.2243996,194.388209 103.934254,196.698208 C103.934254,196.698208 102.622614,198.796808 103.567118,203.100733 C103.567118,203.100733 104.458294,198.377088 107.186176,197.748021 C109.913031,197.117928 122.44898,198.062042 122.44898,198.062042" id="Fill-36" fill="#DBB79D"></path>
            <path d="M211.428571,198.062042 C211.428571,198.062042 214.732848,202.524003 214.732848,205.620079 C214.732848,205.620079 228.631935,208.402136 230.36304,216.326531 C230.36304,216.326531 240.117937,201.053444 240.85222,190.977086 C240.85222,190.977086 245.730694,195.018302 246.097836,202.73335 C246.097836,202.73335 249.24418,189.507553 247.566403,181.582132 C247.566403,181.582132 254.804635,185.255964 255.800431,197.327275 C255.800431,197.327275 256.954159,188.930823 260.78351,185.571011 C264.611835,182.212225 268.074044,177.22587 266.553174,173.76241 C266.553174,173.76241 273.318634,176.12372 275.102041,178.853439 C275.102041,178.853439 269.594914,168.619045 257.268998,165.312595 C257.268998,165.312595 262.934058,171.086054 261.78033,173.447364 C260.626602,175.809699 255.013845,178.801102 251.500359,175.704 C247.985848,172.607924 247.199262,164.734839 241.744436,163.265306 C241.744436,163.265306 243.947288,168.408671 242.059276,170.875681 C242.059276,170.875681 244.524664,170.823344 244.733873,168.881754 C244.944109,166.939138 247.933545,171.558111 245.468157,179.377832 C245.468157,179.377832 244.576967,187.146244 243.789355,189.244843 L240.590709,186.831197 C240.590709,186.831197 237.653574,194.388209 229.943596,196.698208 C229.943596,196.698208 231.25423,198.796808 230.310737,203.100733 C230.310737,203.100733 229.418521,198.377088 226.691622,197.748021 C223.963696,197.117928 211.428571,198.062042 211.428571,198.062042" id="Fill-37" fill="#DBB79D"></path>
            <path d="M151.836735,151.020408 C151.836735,151.020408 149.185948,134.485524 138.370284,135.012697 C127.553583,135.538839 125.115316,139.32995 125.115316,139.32995 C125.115316,139.32995 111.754607,129.641099 100.408163,138.276635 C100.408163,138.276635 121.828009,143.016038 128.985236,149.229875 C128.985236,149.229875 128.879495,142.858504 127.076711,141.805189 C127.076711,141.805189 139.218287,141.646625 143.671857,144.911593 C148.125426,148.17656 151.836735,151.020408 151.836735,151.020408" id="Fill-38" fill="#DBB79D"></path>
            <path d="M181.22449,151.020408 C181.22449,151.020408 183.875276,134.485524 194.691977,135.012697 C205.507641,135.538839 207.945908,139.32995 207.945908,139.32995 C207.945908,139.32995 221.307654,129.641099 232.653061,138.276635 C232.653061,138.276635 211.233215,143.016038 204.075988,149.229875 C204.075988,149.229875 204.181729,142.858504 205.984513,141.805189 C205.984513,141.805189 193.842937,141.646625 189.389368,144.911593 C184.935798,148.17656 181.22449,151.020408 181.22449,151.020408" id="Fill-39" fill="#DBB79D"></path>
            <path d="M130.149015,245.714286 C130.149015,245.714286 135.794435,248.051907 139.224811,247.962434 C142.654157,247.87296 145.766772,255.514194 152.943224,256.817215 C160.118643,258.121264 152.731727,259.649511 147.403036,260.188408 C142.073314,260.728334 127.827707,264.144778 124.081633,266.122449 C124.081633,266.122449 127.880324,260.817807 134.106586,259.964211 C140.332849,259.109585 140.91266,259.559009 141.915465,258.570688 C142.91827,257.581338 132.945932,256.817215 129.093594,258.660161 C129.093594,258.660161 131.995744,256.053092 136.639391,255.423693 C141.282006,254.794294 140.860044,251.648326 139.487893,250.928426 C138.116774,250.209553 132.839668,248.996006 130.149015,245.714286" id="Fill-40" fill="#FFF1E2"></path>
            <path d="M204.544949,245.714286 C204.544949,245.714286 198.89961,248.051907 195.469282,247.962434 C192.039986,247.87296 188.926383,255.514194 181.751066,256.817215 C174.574717,258.121264 181.96256,259.649511 187.291174,260.188408 C192.62082,260.728334 206.866224,264.144778 210.612245,266.122449 C210.612245,266.122449 206.813608,260.817807 200.587434,259.964211 C194.36126,259.109585 193.781457,259.559009 192.778667,258.570688 C191.775876,257.581338 201.748071,256.817215 205.600355,258.660161 C205.600355,258.660161 202.698246,256.053092 198.054666,255.423693 C193.411085,254.794294 193.834073,251.648326 195.205172,250.928426 C196.577303,250.209553 201.853303,248.996006 204.544949,245.714286" id="Fill-41" fill="#FFF1E2"></path>
            <path d="M104.489796,209.795918 C104.489796,209.795918 112.880482,204.208418 115.032317,203.728746 C117.183101,203.250116 118.367347,199.578181 118.367347,199.578181 C118.367347,199.578181 109.168934,198.72705 108.362258,199.525116 C107.555583,200.323181 106.533303,201.175353 106.156785,203.516484 C106.156785,203.516484 108.76507,201.946366 110.944251,201.467734 C113.122379,200.989103 113.579881,202.2658 113.579881,202.2658 C113.579881,202.2658 104.999884,206.17705 104.489796,209.795918" id="Fill-42" fill="#FFF1E2"></path>
            <path d="M69.3877551,175.510204 C69.3877551,175.510204 71.6012317,181.251045 74.0300392,182.788215 C76.4599023,184.325386 77.2156721,186.938776 77.2156721,186.938776 C77.2156721,186.938776 82.0205095,180.840197 84.5031499,179.50845 C86.9868459,178.175702 84.881035,175.868944 84.881035,175.868944 C84.881035,175.868944 79.3204274,180.071612 76.0281844,179.149711 C72.7348862,178.226807 69.3877551,175.510204 69.3877551,175.510204" id="Fill-43" fill="#FFF1E2"></path>
            <path d="M229.387755,209.795918 C229.387755,209.795918 220.997069,204.208418 218.845234,203.728746 C216.69445,203.250116 215.510204,199.578181 215.510204,199.578181 C215.510204,199.578181 224.708617,198.72705 225.515293,199.525116 C226.321968,200.323181 227.344248,201.175353 227.720766,203.516484 C227.720766,203.516484 225.112481,201.946366 222.9333,201.467734 C220.755172,200.989103 220.29767,202.2658 220.29767,202.2658 C220.29767,202.2658 228.877667,206.17705 229.387755,209.795918" id="Fill-44" fill="#FFF1E2"></path>
            <path d="M264.489796,175.510204 C264.489796,175.510204 262.276319,181.251045 259.846456,182.788215 C257.417649,184.325386 256.661879,186.938776 256.661879,186.938776 C256.661879,186.938776 251.857041,180.840197 249.374401,179.50845 C246.890705,178.175702 248.996516,175.868944 248.996516,175.868944 C248.996516,175.868944 254.556068,180.071612 257.849366,179.149711 C261.142664,178.226807 264.489796,175.510204 264.489796,175.510204" id="Fill-45" fill="#FFF1E2"></path>
            <path d="M195.918367,295.688786 C195.918367,295.688786 191.476708,294.888196 191.136955,295.340093 C190.797201,295.790989 190.918393,297.227844 189.074608,297.227844 C187.229786,297.227844 182.303356,296.775946 182.303356,296.775946 C182.303356,296.775946 184.997562,299.854062 183.566038,300.408163 C183.566038,300.408163 182.837847,298.622616 181.332779,298.068515 C176.788572,296.39519 157.905305,296.39519 153.361098,298.068515 C151.856031,298.622616 151.127839,300.408163 151.127839,300.408163 C149.696316,299.854062 152.390522,296.775946 152.390522,296.775946 C152.390522,296.775946 147.464092,297.227844 145.61927,297.227844 C143.775484,297.227844 143.896677,295.790989 143.556923,295.340093 C143.217169,294.888196 138.77551,295.688786 138.77551,295.688786 C150.675179,290.0085 184.017662,290.0085 195.918367,295.688786" id="Fill-46" fill="#FFF1E2"></path>
            <path d="M185.202803,325.641093 C185.202803,325.641093 172.499616,323.442553 166.938776,324.266361 C161.377935,323.442553 148.674748,325.641093 148.674748,325.641093 C148.674748,325.641093 151.963582,325.657568 154.815611,325.760545 C157.666615,325.863521 159.805637,326.911817 159.805637,326.911817 C155.849829,326.911817 147.755102,330.792988 147.755102,330.792988 C151.480743,329.521232 156.678431,330.757976 156.678431,330.757976 C156.678431,330.757976 153.321058,330.757976 150.100762,333.918312 C146.881489,337.07865 152.538489,340.375945 152.538489,340.375945 C152.262288,339.689094 153.872436,339.379136 153.872436,339.379136 C156.494297,341.577676 166.938776,341.199754 166.938776,341.199754 C166.938776,341.199754 177.384277,341.577676 180.005115,339.379136 C180.005115,339.379136 181.615263,339.689094 181.339062,340.375945 C181.339062,340.375945 186.997085,337.07865 183.776789,333.918312 C180.557516,330.757976 177.200143,330.757976 177.200143,330.757976 C177.200143,330.757976 182.396808,329.521232 186.122449,330.792988 C186.122449,330.792988 178.027722,326.911817 174.071915,326.911817 C174.071915,326.911817 176.210936,325.863521 179.062963,325.760545 C181.914992,325.657568 185.202803,325.641093 185.202803,325.641093" id="Fill-47" fill="#FFF1E2"></path>
            <path d="M167.346939,186.486735 C167.346939,186.486735 170.031324,186.486735 171.449025,185.930383 C172.866726,185.375062 174.142657,187.431192 177.438297,187.291847 C180.734965,187.152501 184.350103,184.486344 188.780931,183.847416 C193.21176,183.208488 194.665417,184.402736 194.204151,186.235912 C193.743911,188.069088 190.092818,192.653061 190.092818,192.653061 C190.092818,192.653061 186.299955,189.680343 181.727356,190.291402 C177.155785,190.902461 175.311746,192.180316 174.602896,191.986264 C173.894046,191.791179 170.334384,190.125218 167.346939,190.319271 C164.359494,190.125218 160.799832,191.791179 160.090982,191.986264 C159.382131,192.180316 157.538093,190.902461 152.966521,190.291402 C148.393923,189.680343 144.601059,192.653061 144.601059,192.653061 C144.601059,192.653061 140.949966,188.069088 140.489727,186.235912 C140.028461,184.402736 141.482117,183.208488 145.912946,183.847416 C150.342747,184.486344 153.957885,187.152501 157.254553,187.291847 C160.551221,187.431192 161.827152,185.375062 163.244852,185.930383 C164.662553,186.486735 167.346939,186.486735 167.346939,186.486735" id="Fill-48" fill="#B77B5F"></path>
            <path d="M149.387755,175.150493 C149.387755,175.150493 136.638159,171.827941 133.545602,166.992701 C130.452019,162.158492 122.479022,159.183673 122.479022,159.183673 C122.479022,159.183673 130.017128,165.239591 131.176836,168.480626 C131.889317,170.471061 133.397555,173.041395 135.409566,174.717116 C133.314278,174.182619 131.333109,173.346822 129.767297,172.068362 C123.387872,166.861656 109.953554,158.467571 105.991217,162.717754 C102.028879,166.967936 102.898661,179.718485 110.533408,184.819943 C110.533408,184.819943 108.020706,177.912751 109.277057,176.105984 C110.533408,174.30025 112.853853,184.50007 118.555754,185.244032 C124.258681,185.987995 128.607588,179.825797 134.309489,178.550433 C139.882875,177.30396 148.962117,175.246455 149.371305,175.153588 L149.380559,175.151525 L149.383643,175.150493 L149.387755,175.150493" id="Fill-49" fill="#F50900"></path>
            <path d="M199.351145,174.717116 C201.335347,174.182619 203.209259,173.346822 204.69205,172.068362 C210.728396,166.861656 223.443426,158.467571 227.194314,162.717754 C230.94418,166.967936 230.121089,179.718485 222.895039,184.819943 C222.895039,184.819943 225.273426,177.912751 224.083722,176.105984 C222.895039,174.30025 220.699447,184.50007 215.302375,185.244032 C209.905304,185.987995 205.788825,179.825797 200.392775,178.550433 C195.118248,177.30396 186.525825,175.246455 186.137767,175.153588 L186.128576,175.151525 L186.126534,175.150493 L186.122449,175.150493 C186.122449,175.150493 198.189013,171.827941 201.115788,166.992701 C204.043585,162.158492 211.589272,159.183673 211.589272,159.183673 C211.589272,159.183673 204.455131,165.239591 203.357334,168.480626 C202.683339,170.471061 201.256715,173.041395 199.351145,174.717116" id="Fill-50" fill="#F50900"></path>
            <path d="M58.7755102,145.385183 C58.7755102,145.385183 49.7188229,137.72015 44.8678106,143.197502 C40.0167985,148.673834 43.155627,170.59546 48.184447,171.428571 C48.184447,171.428571 51.0513348,158.819868 53.9339111,152.753839 C52.3524686,151.024471 50.0859435,148.797069 48.8778969,148.764478 C46.8979562,148.712536 46.149072,157.255493 46.149072,157.255493 C44.5979616,154.807082 45.2935034,146.056357 47.7545708,144.701787 C49.3820344,143.806549 53.7017151,146.420971 56.4389077,148.292925 C57.9962939,145.873032 58.7755102,145.385183 58.7755102,145.385183" id="Fill-51" fill="#B77B5F"></path>
            <path d="M272.653061,145.385183 C272.653061,145.385183 281.71061,137.72015 286.561524,143.197502 C291.411392,148.673834 288.272627,170.59546 283.244955,171.428571 C283.244955,171.428571 280.378126,158.819868 277.494562,152.753839 C279.075972,151.024471 281.342451,148.797069 282.551519,148.764478 C284.530374,148.712536 285.279243,157.255493 285.279243,157.255493 C286.830322,154.807082 286.134794,146.056357 283.674822,144.701787 C282.046346,143.806549 277.727799,146.420971 274.989616,148.292925 C273.432261,145.873032 272.653061,145.385183 272.653061,145.385183" id="Fill-52" fill="#B77B5F"></path>
            <path d="M225.306122,353.469388 C225.306122,353.469388 216.899809,367.153013 190.315601,374.959087 C190.315601,374.959087 197.566213,375.785892 206.812849,372.938685 C206.812849,372.938685 186.620439,382.490248 167.347452,382.857143 C148.074466,382.490248 127.882056,372.938685 127.882056,372.938685 C137.128692,375.785892 144.379304,374.959087 144.379304,374.959087 C117.794069,367.153013 109.387755,353.469388 109.387755,353.469388 C137.442016,373.223829 197.252889,373.223829 225.306122,353.469388" id="Fill-53" fill="#6E4098"></path>
            <path d="M167.346939,371.668142 C167.346939,371.668142 186.120432,371.949967 200.816327,368.163265 C200.816327,368.163265 186.54318,374.568377 178.349738,375.454844 C178.349738,375.454844 179.407123,376.341311 184.482157,376.38128 C171.603353,379.573587 163.090525,379.573587 150.21172,376.38128 C155.286755,376.341311 156.34414,375.454844 156.34414,375.454844 C148.150698,374.568377 133.877551,368.163265 133.877551,368.163265 C148.573446,371.949967 167.346939,371.668142 167.346939,371.668142" id="Fill-54" fill="#9F64BF"></path>
            <path d="M146.122449,142.857143 C146.122449,142.857143 141.021235,136.323921 135.176136,137.228884 C129.332077,138.132864 128.163265,138.836396 128.163265,138.836396 C128.163265,138.836396 135.602103,138.48463 139.055553,139.891695 C142.509002,141.298759 146.122449,142.857143 146.122449,142.857143" id="Fill-55" fill="#FFF1E2"></path>
            <path d="M124.897959,142.857143 C124.897959,142.857143 122.147033,138.347754 116.908995,137.555171 C111.669923,136.762588 107.755102,137.35654 107.755102,137.35654 C107.755102,137.35654 110.929169,137.703417 113.521806,139.141305 C116.114444,140.578225 124.897959,142.857143 124.897959,142.857143" id="Fill-56" fill="#FFF1E2"></path>
            <path d="M186.938776,142.857143 C186.938776,142.857143 192.03999,136.323921 197.884049,137.228884 C203.729147,138.132864 204.897959,138.836396 204.897959,138.836396 C204.897959,138.836396 197.459121,138.48463 194.005672,139.891695 C190.552222,141.298759 186.938776,142.857143 186.938776,142.857143" id="Fill-57" fill="#FFF1E2"></path>
            <path d="M208.163265,142.857143 C208.163265,142.857143 210.914192,138.347754 216.15223,137.555171 C221.390268,136.762588 225.306122,137.35654 225.306122,137.35654 C225.306122,137.35654 222.131021,137.703417 219.538384,139.141305 C216.945747,140.578225 208.163265,142.857143 208.163265,142.857143" id="Fill-58" fill="#FFF1E2"></path>
        </g>
    </g>
</svg>