<?xml version="1.0" encoding="UTF-8"?>
<svg width="105px" height="114px" viewBox="0 0 105 114" version="1.1" xmlns="http://www.w3.org/2000/svg" xmlns:xlink="http://www.w3.org/1999/xlink">
    <!-- Generator: Sketch 51.3 (57544) - http://www.bohemiancoding.com/sketch -->
    <title>Monke logo</title>
    <defs></defs>
    <g id="Page-1" stroke="none" stroke-width="1" fill="none" fill-rule="evenodd">
        <g id="197_snub_nose_monkey_round_hipster_vintage" transform="translate(-13.000000, -161.000000)">
            <g id="Group-3" transform="translate(13.000000, 161.000000)">
                <path d="M93.4656318,51.6708535 C91.6479536,51.6493923 89.9600428,51.7427021 88.4159032,51.9069276 C89.9226997,51.1492512 91.1933006,50.7190926 92.00178,50.5502016 L94.7549044,49.9996732 L93.5655248,47.4569785 C90.6256846,41.1780621 86.8484241,35.8647165 84.0887647,32.4013329 C84.8038862,32.6117468 85.2557384,32.7944475 85.2660078,32.7985532 L90.9860461,35.1773024 L88.052741,29.7226857 C81.2758913,17.1177313 71.3146037,10.5416228 64.1512522,7.24461087 C60.6325931,5.62521756 57.4453545,4.61765727 54.9863075,3.99789292 L61.5222939,0.983050079 L53.4888468,0.173959943 C46.392433,-0.540887195 41.0202462,1.06208356 37.3792882,2.89030442 L37.9346744,1.62492888 L33.5045621,2.81033784 C18.9268199,6.71087824 13.6068201,19.298197 12.4731752,22.4949009 C11.6223113,23.151336 9.94672376,24.4908929 8.2678687,26.1003954 C4.68049816,29.5392384 3.06718034,32.2399068 3.19106627,34.5992476 C3.34669389,37.5635165 4.85965196,40.3692518 5.95912791,42.0410853 C2.82286273,46.0661011 1.27097441,52.3202904 1.08509883,53.1059598 L0,57.6884089 L3.48224955,55.9491124 C5.25885033,63.1209113 9.11835914,67.7490823 10.4912804,69.2215125 L12.3917671,77.2722906 C8.55550438,93.3458538 14.7106839,102.985699 14.9774074,103.392531 L17.6915082,107.530825 L18.8098424,103.282425 C28.0600229,113.639824 41.8016518,113.94868 42.4277099,113.957077 L45.5776053,114 L44.5369448,111.02808 C44.2425874,110.187358 44.0982561,109.439012 44.0443886,108.796107 C47.1515261,110.193889 50.2894717,109.955949 50.4668517,109.941952 L52.2182459,109.787058 L52.4647107,108.048695 C52.4712458,108.001107 53.17143,103.307619 56.6144692,99.6890608 C58.1436716,98.0841305 59.3899995,96.4269467 60.3646559,94.9554496 C61.0293642,96.4241474 61.7146111,97.580257 62.0040206,97.90031 L62.9852121,98.97524 L64.3538389,98.513356 C65.7551409,98.0402748 65.8643696,96.7581968 65.9362552,95.9100098 C66.9445205,84.0391245 72.6524223,74.2985041 77.2633689,68.2184311 C81.3664484,62.80739 87.0752838,58.6728284 94.230233,55.9285842 L105,51.7986881 L93.4656318,51.6708535" id="Fill-4" fill="#7B9AB3"></path>
                <path d="M78.5812307,56.510917 C84.5420939,49.7023198 91.1325733,48.3756412 91.1325733,48.3756412 C86.0993695,37.5525295 78.3949538,29.5443 78.3949538,29.5443 C81.9900994,29.130931 85.6876973,30.678629 85.6876973,30.678629 C73.1568452,7.22077726 49.4288841,5.05536791 49.4288841,5.05536791 C50.2503656,3.40217269 52.920646,2.16225285 52.920646,2.16225285 C39.6703922,0.818897048 32.9937597,8.25860347 32.9937597,8.25860347 C33.0964915,6.29538144 33.7724906,4.7454348 33.7724906,4.7454348 C18.4244787,8.87856339 14.0936321,23.722467 14.0936321,23.722467 C14.0936321,23.722467 4.95171701,30.4741931 5.15718051,34.4124423 C5.36255088,38.3507853 8.54686263,42.1503704 8.54686263,42.1503704 C4.89816238,45.5516708 3,53.619582 3,53.619582 L4.84898526,52.6901575 C6.2870435,62.5062676 12.2446469,68.188687 12.2446469,68.188687 L14.4017342,77.3854931 C10.4984865,93.0910819 16.5588216,102.390949 16.5588216,102.390949 C17.0724804,100.428102 18.2023434,99.4977404 18.2023434,99.4977404 C26.7279611,111.793878 42.1356748,112 42.1356748,112 C40.6976166,107.867246 42.1356748,105.284158 42.1356748,105.284158 C45.1144299,108.383489 49.9420772,107.975929 49.9420772,107.975929 C49.9420772,107.975929 50.6611063,102.597072 54.6669927,98.3612565 C58.672879,94.1245046 60.6250617,89.474571 60.6250617,89.474571 C60.727514,92.1616573 62.9870538,96.2944112 63.2664692,96.6045317 C63.5449533,96.9146522 62.8846014,83.1719106 75.1080965,66.9491419 C80.1748303,60.2248676 86.8817327,56.2420209 93,53.8809827 C84.2021385,53.7816692 78.5812307,56.510917 78.5812307,56.510917" id="Fill-40" fill="#0E101C"></path>
                <path d="M40.8695649,44.6006181 C38.7410084,43.7283453 34.1798294,44.4329524 34.1798294,44.4329524 C34.5514134,43.4598746 35.9705138,42.6211723 35.9705138,42.6211723 C34.9906094,39.8698848 31.8822427,38.2497092 31.8822427,38.2497092 C27.2872576,38.4077432 22.9287265,42.4198426 22.9287265,42.4198426 C20.9690119,41.0106283 17.320031,40.7086806 17.320031,40.7086806 C17.320031,40.7086806 15.6307647,41.4468583 15.5969587,42.788838 C15.5631526,44.1309112 16.948447,45.9427848 16.948447,45.9427848 C16.948447,45.9427848 14.3129883,45.070325 13.8062743,45.3387958 C13.299372,45.607173 12.893982,47.3852891 12.893982,47.3852891 C12.893982,47.3852891 13.6710501,47.0495838 15.9348308,47.0832478 C17.0476052,47.1000798 18.9275601,47.4572927 20.551851,47.8154408 C19.4825819,47.1141065 18.3875109,46.0781891 17.7593212,44.5671411 C17.7593212,44.5671411 18.2661294,43.1914973 18.5701954,42.9565971 C18.8742614,42.7217904 21.5434321,45.8756437 23.5368586,46.4791652 C23.5368586,46.4791652 26.9492914,41.6481879 30.3618183,41.1783875 C30.3618183,41.1783875 31.9498548,42.9231201 31.8822427,43.6947748 C31.8167023,44.4425841 27.4738971,44.5395553 25.2372366,48.0866233 L31.9159546,46.1104505 C31.9159546,46.1104505 34.0107992,45.6743141 37.186778,46.5801574 C40.3627568,47.4862812 41.6466331,49.1302087 41.6466331,49.1302087 C40.4640808,48.4924621 38.6733964,48.8281674 38.6733964,48.8281674 C42.8967975,54.8671228 45.092966,65 45.092966,65 C45.6672921,54.5987456 42.9982156,45.4729844 40.8695649,44.6006181 Z M16.9821589,27.6907013 C16.9821589,27.6907013 21.5772382,28.5629741 22.5232423,29.4353404 C23.4692465,30.3077067 23.5030526,32.287246 23.5030526,32.287246 C23.5030526,32.287246 25.5640911,31.7168275 28.4359097,28.6301152 C31.3078225,25.5434029 33.9769932,24.7046071 35.9029017,24.536848 C35.9029017,24.536848 34.0446052,26.0466804 33.7742511,29.2675813 C33.7742511,29.2675813 38.7410084,24.3355183 44.7212879,24 C44.7212879,24 54.9244977,31.21355 58,39.8028373 C58,39.8028373 54.9922981,38.6620002 52.2218976,38.5949527 C52.2218976,38.5949527 55.0939987,43.0573087 55.4659593,50.0699966 C55.4659593,50.0699966 52.7624176,46.6811495 48.9787776,44.8355183 C48.9787776,44.8355183 49.7556574,47.5863382 49.1812371,50.673144 C49.1812371,50.673144 46.9849744,44.2986703 42.8291854,41.1113399 C42.8291854,41.1113399 45.9713581,40.3060212 46.5119723,37.336759 C46.5119723,37.336759 49.2518626,37.1112099 50.8366974,37.856775 C50.8366974,37.856775 48.1679975,32.0523458 40.0586907,29.4689109 C40.0586907,29.4689109 34.7879615,30.6767955 27.2196455,37.0515498 C27.2196455,37.0515498 25.057283,36.3805132 24.2464088,33.5286076 C24.2464088,33.5286076 22.8273084,34.9378219 23.0638565,37.7897274 C23.0638565,37.7897274 20.7325579,36.145613 21.036624,32.7569529 C21.036624,32.7569529 19.2459396,33.2602304 19.1783275,34.9042513 C19.1783275,34.9042513 15.9348308,32.857571 11.6101057,34.501592 C11.6101057,34.501592 12.9614999,34.6358741 13.7724682,35.1391516 C13.7724682,35.1391516 12.3195618,36.4476542 12.2520438,37.1522614 C12.1844318,37.856775 12.1844318,38.9975185 12.1844318,38.9975185 C12.1844318,38.9975185 10.2586174,37.0179792 10.0220692,35.9443768 C9.78552109,34.8706808 11.4073636,31.2806911 16.9821589,27.6907013 Z" id="Fill-41" fill="#576585"></path>
                <path d="M37.4504617,53.6449001 C37.1449081,52.0138489 35.567839,50 35.567839,50 C35.2567555,50.9264815 34.6018772,51.6800567 34.0070787,52.2237404 C33.3467642,52.8155051 32.7574019,53.1492973 32.7574019,53.1492973 C32.2553942,51.8575861 30.9456377,51.0605531 30.9456377,51.0605531 C30.9456377,51.0605531 27.2130098,52.315279 24.7081263,52.315279 C22.2087728,52.315279 18.7435511,51.367531 18.7435511,51.367531 C18.2633821,51.2436303 17.6684898,52.8913249 17.6684898,52.8913249 C17.6684898,52.8913249 17.6684898,52.8857771 17.6576174,52.8746815 C17.5266792,52.7082477 16.3369884,51.2223638 15.6112517,51.5450604 L15.5893194,51.556156 C14.8199054,51.9380291 13.0081412,54.4410085 13.0081412,54.4410085 C12.817217,59.7225076 16.0477435,63.0225199 16.0477435,63.0225199 L16.0423073,63.012349 C16.0259049,62.8662571 15.834887,61.4238309 16.162373,58.5815115 C16.5116039,55.5829292 17.4720357,54.3661133 17.4720357,54.3661133 C18.165155,55.9222693 19.5512062,56.9125503 19.5512062,56.9125503 C19.5512062,56.9125503 20.129696,55.5450193 20.8227216,55.3138613 C21.5157472,55.0873264 27.6768702,54.6675434 28.3698958,55.0124312 C29.0192441,55.32958 29.6031701,56.0563409 29.6741223,56.1423317 L29.6795585,56.1534273 C30.1379827,55.5071094 30.6399904,54.2902934 30.6399904,54.2902934 C32.5282367,56.885736 33.7560748,63.0225199 33.7560748,63.0225199 L33.7615111,63.012349 C35.687811,61.0687721 37.7615452,55.2704036 37.4504617,53.6449001 Z M37.8816109,83.9321525 L37.8761747,83.921057 C37.8761747,83.921057 37.8488998,86.4083176 36.9266153,88.3842566 C35.9988946,90.3648188 35.3604188,91.2053094 35.3604188,91.2053094 C34.9347994,90.3648188 33.8597381,89.8914071 33.8597381,89.8914071 C33.8597381,89.8914071 33.4941048,90.8391551 32.8446628,91.3449289 C32.1953145,91.8460796 30.5527295,92.0125134 29.1938595,91.6519068 C27.8405195,91.2857524 26.962006,90.1715706 26.8746514,90.1715706 C26.792733,90.1715706 26.0560301,91.8728939 26.0560301,91.8728939 C25.2375026,90.7577875 25.4339567,89.8645928 25.4339567,89.8645928 C24.3153119,89.2349182 23.3166389,88.0504644 23.2074457,87.9210159 L23.2020095,87.9108449 C23.1147486,92.7124599 26.962006,95 26.962006,95 C26.6509224,93.7138366 27.1911712,93.1590573 27.1911712,93.1590573 C27.1911712,93.1590573 27.7259837,94.4405975 28.9155808,94.5534026 C30.0998353,94.6615846 36.3809303,94.9685625 36.6319342,94.2464248 C36.8883743,93.5196638 36.5228347,92.5996548 36.5228347,92.5996548 C36.8392607,92.6366401 37.1230694,92.7069121 37.3796032,92.7984507 C38.2963578,93.1211474 38.8147679,93.6602079 38.8366066,93.5742171 C38.8694114,93.4660352 39.944379,91.8728939 39.9989288,89.5039862 C40.0534785,87.2053505 38.0071129,84.1207775 37.8816109,83.9321525 Z" id="Fill-45" fill="#FFFFFE"></path>
                <path d="M39.9989408,89.8816065 C39.9450062,92.2731587 38.8821594,93.8815289 38.8497245,93.9907449 C38.8281321,94.0775577 38.3155673,93.5333442 37.4091497,93.2075629 C39.3353219,89.3597963 37.9810241,84.5337523 37.905497,84.2565114 C38.0295838,84.4469395 40.0528755,87.5609981 39.9989408,89.8816065 Z M26.2132565,92.2731587 C24.1845898,91.7242778 23.4399762,88.4851342 23.3967914,88.2835045 C23.5047535,88.4141904 24.4921658,89.6099665 25.5981973,90.2456601 C25.5981973,90.2456601 25.4039583,91.1473929 26.2132565,92.2731587 Z M17.9095406,52.9021607 C17.7800789,52.734136 16.6038025,51.2340484 15.8862489,51.5598297 C15.5138958,52.3915522 15.1200429,53.7282824 15.0174558,55.6036252 C14.8286845,58.983723 16.2314494,62.9080342 16.3124441,63.1367346 C16.2962266,62.9892462 16.1073626,61.5330317 16.431156,58.6635425 C16.7764491,55.6362967 17.7260515,54.4078491 17.7260515,54.4078491 L17.9202905,52.9189632 C17.9202905,52.9189632 17.9202905,52.9133624 17.9095406,52.9021607 Z M27.7078586,53.4295717 C27.0874245,53.1196594 26.3212185,53.7936253 24.3680789,53.9513819 C22.4148467,54.1035376 20.4616145,52.7612066 19.7817781,53.4295717 C19.1019418,54.1035376 19.7817781,56.9786277 19.7817781,56.9786277 C19.7817781,56.9786277 20.3537452,55.5980244 21.0389565,55.3646567 C21.7241678,55.1359563 27.8158206,54.7121606 28.5010319,55.0603452 C29.1430584,55.3805257 29.7204004,56.1142337 29.7905525,56.2010465 C29.4560093,55.3049146 28.3230104,53.739484 27.7078586,53.4295717 Z M37.4792092,53.6797419 C37.1771009,52.0330994 35.6178142,50 35.6178142,50 C35.3102383,50.9353377 34.6627442,51.6961164 34.0746523,52.2449973 C35.6771238,57.0056984 33.9073807,62.8865644 33.8318536,63.1367346 C35.7364334,61.174579 37.7867851,55.3207836 37.4792092,53.6797419 Z" id="Fill-46" fill="#72908D"></path>
                <path d="M74.994376,42.7796288 C74.9896893,42.7687626 74.9840652,42.7578028 74.9784412,42.7469367 C74.9728171,42.7305439 74.9615691,42.7196778 74.9568824,42.7032849 C74.4975859,41.6234178 70.5963781,32.7008373 66.4317779,28.4904045 C62.0009731,24.0017617 53.8311204,24.9781197 53.8311204,24.9781197 C53.8311204,24.9781197 67.5237786,33.3116817 75,42.8014547 L74.994376,42.7796288 Z M67.7253066,49.6791444 C65.2966595,41.6943285 60.8274238,37.1184757 60.6905722,36.9820872 L60.6961963,36.9984801 C60.9089724,37.5602396 64.2871446,46.6469358 64.7670626,52.6401611 C64.7670626,52.6401611 62.0768976,49.9077075 58.1747525,47.2192804 C58.1747525,47.2192804 60.8330479,56.0985837 60.7777448,66.1328803 L60.7777448,66.1441211 C60.7777448,66.2865047 60.7777448,66.4279515 60.7730581,66.5750188 C60.7730581,66.5750188 62.7480329,62.1686212 62.7049152,55.1440516 C62.7049152,55.1440516 67.7693616,59.8071143 69.1172561,62.9479841 C69.1172561,62.9479841 70.1923847,57.7940726 67.7253066,49.6791444 Z M52.6631951,60.3082671 C52.6575711,60.2923427 52.646323,60.2754814 52.6406989,60.259557 C52.3519983,59.7190613 52.1664051,59.4033819 52.1664051,59.4033819 C54.2726074,68.0531853 53.8686139,79.7951483 53.8686139,79.7951483 C53.8686139,79.7951483 53.923917,79.6424606 54.0214003,79.369871 L54.0214003,79.3642506 C54.5509972,77.8701596 56.2316473,72.9073419 56.2316473,70.4146922 C56.2372714,67.3056715 53.7486345,62.331613 52.6631951,60.3082671 Z M42.866683,12.7395003 C42.866683,12.7285405 42.8721196,12.7121476 42.8721196,12.7012815 C42.9977231,11.8886646 43.3361027,10.8633154 43.6635155,9.97978769 C44.072758,8.88352768 44.4820943,8 44.4820943,8 C33.9874516,11.1251326 29.8179772,19.0932746 29.8179772,19.0932746 C29.5723942,15.150092 30.3909729,12.3358615 30.3909729,12.3358615 C30.3909729,12.3358615 24.9444669,15.6954587 22.723253,18.9896718 C20.5021329,22.2838848 20,24.2363199 20,24.2363199 C20.201903,24.2527128 20.4638894,24.3180968 20.7422793,24.4163602 C21.7082079,24.7435615 22.9252497,25.4089238 22.9252497,25.4089238 C24.0986115,21.7493843 27.3621472,19.5622974 27.3621472,19.5622974 C27.3403071,19.649601 27.3184671,19.7423377 27.3020637,19.8404137 C27.3020637,19.8513735 27.2966271,19.8568066 27.2966271,19.8623333 C26.838268,22.2020143 27.3621472,25.8452545 27.3621472,25.8452545 C34.3585444,17.8825456 41.2458352,14.5992923 41.2458352,14.5992923 C40.5309262,16.9225804 40.7492327,18.7224215 40.7492327,18.7224215 C52.9847026,13.5684163 63.8559684,16.3717807 64.2112201,16.4645174 C53.1215542,10.0506985 42.866683,12.7395003 42.866683,12.7395003 Z M46.8124145,73.8890393 C46.9433608,81.4756494 46.1303124,86.5255834 45.4044365,89.4762961 C44.8478442,91.7235214 44.3457113,92.7483086 44.3457113,92.7483086 C41.8953179,94.8587707 39.0028751,96.1954904 36.2523455,97.0404246 C31.0240521,98.6497339 26.3415717,98.4755014 26.3415717,98.4755014 C30.2491534,100.814527 35.0297733,100.051088 38.7408886,98.7640155 C42.2118575,97.564059 44.7495173,95.9004191 44.7495173,95.9004191 C45.4917966,97.6183896 45.666423,101 45.666423,101 L45.6718595,100.99438 C45.7646562,100.864174 47.2654307,98.6553543 48.76105,90.1085917 C50.3104725,81.2845557 46.8124145,73.8890393 46.8124145,73.8890393 Z" id="Fill-47" fill="#1D5785"></path>
                <path d="M21,24.3972135 C21.9613405,24.7235227 23.1726014,25.3870709 23.1726014,25.3870709 C24.3403899,21.7375087 27.5884239,19.5563845 27.5884239,19.5563845 C27.7947786,18.1695003 28.6094692,16.4942348 28.6094692,16.4942348 C24.8944317,18.0280654 22.2166717,22.1726499 21,24.3972135 Z M36.8274607,14.3839214 C31.2166095,18.7025436 27.5884239,25.8222121 27.5884239,25.8222121 C34.5515887,17.8812123 41.4061653,14.6069103 41.4061653,14.6069103 L43.024725,12.7140741 C43.1497319,11.9036727 43.4865042,10.8811189 43.8123618,10 C42.1774766,10.7777985 39.7658695,12.1266615 36.8274607,14.3839214 Z M44.7520593,14.3839214 L40.9119216,18.7187984 C53.0892739,13.5788448 63.9089018,16.3745663 64.2624661,16.4670501 C55.4084319,12.2354935 44.7520593,14.3839214 44.7520593,14.3839214 Z M60.7641384,36.9450302 C60.9759039,37.5052581 64.33803,46.5671809 64.8156684,52.5440666 C64.8156684,52.5440666 62.1382816,49.8190626 58.2546713,47.1379651 C58.2546713,47.1379651 60.90034,55.9930604 60.8452996,66 C62.4638593,57.7605295 60.6773799,51.5323493 60.6008831,51.2661079 L62.7633161,55.0411306 C62.7633161,55.0411306 67.8037067,59.6914803 69.1451987,62.8237869 C68.579869,49.6284898 61.1764747,37.5923237 60.7641384,36.9450302 Z M74.9944027,42.7104174 C74.9897382,42.699581 74.9841409,42.688651 74.9785436,42.6778146 C74.9729463,42.6614664 74.9617516,42.6506299 74.9570872,42.6342817 C66.2122008,25.5067394 53.9316712,24.9574414 53.9316712,24.9574414 C53.9316712,24.9574414 67.5592902,33.2682832 75,42.7321838 L74.9944027,42.7104174 Z" id="Fill-48" fill="#181F3B"></path>
                <path d="M55.2075066,68.8317357 C55.3062718,65.6337807 53.8310984,61.8651625 53,60 C54.2167028,62.0174016 57.0062935,66.9768471 56.9999893,70.076734 C56.9999893,72.5620607 55.1160963,77.5102984 54.5224546,79 C54.5476712,78.7609006 55.0677644,73.1868948 55.2075066,68.8317357" id="Fill-51" fill="#181F3B"></path>
                <path d="M48.0150376,41.2593052 C48.3428451,42.5260183 48.6743255,44.7631609 48.6743255,44.7631609 C52.3637667,46.6096245 55,50 55,50 C52.8045162,43.4393802 47.6872301,39.9926856 48.0150376,41.2593052" id="Fill-52" fill="#232A3D"></path>
                <path d="M48.9952533,51 C49.1259056,45.7750905 46.5160586,41 46.5160586,41 C44.9294772,41.7647895 43,41.0443003 43,41.0443003 C46.9223252,44.3629318 48.9952533,51 48.9952533,51" id="Fill-54" fill="#232A3D"></path>
                <path d="M16.0146485,47.1781368 C17.1178351,47.1948797 18.9815922,47.5502007 20.591888,47.906452 C19.5318318,47.2088321 18.4461961,46.1784009 17.823419,44.6753556 C17.823419,44.6753556 18.3258604,43.3069974 18.6273066,43.0733412 C18.9287527,42.8397781 21.5749255,45.9769283 23.5511764,46.5772535 C23.5511764,46.5772535 26.9342073,41.7718615 30.3173315,41.3045492 C30.3173315,41.3045492 31.8916853,43.0400415 31.8246558,43.8076095 C31.7596801,44.5514583 27.454293,44.6479159 25.2369038,48.1761983 L31.8580772,46.2104915 C31.8580772,46.2104915 33.9348724,45.7766649 37.0834866,46.6777108 C40.2321009,47.5790357 41.5049151,49.2142567 41.5049151,49.2142567 C42.9157094,50.4057915 42.8374771,51.5991867 42.8374771,51.5991867 L40.9709194,50.7490205 C44.370661,56.1848749 44.9215541,65 44.9215541,65 C45.4909317,54.6538317 42.8448523,45.5764015 40.7345423,44.7086553 C38.6243257,43.8410022 34.1024463,44.5418777 34.1024463,44.5418777 C34.4708286,43.5739533 35.8777019,42.7396929 35.8777019,42.7396929 C34.5840693,42.2247564 33.3539187,42.9913011 33.3539187,42.9913011 C33.3539187,42.9913011 32.971533,40 30.7049452,40 C28.4385442,40 23.0143801,44.8485514 23.0143801,44.8485514 C23.0143801,44.8485514 19.2392544,41.8597617 18.4392878,41.9925885 C17.6393211,42.1254153 16.7726984,43.3873632 16.7726984,43.9187636 C16.7726984,44.4500709 18.5059439,47.0423334 18.5059439,47.0423334 C18.5059439,47.0423334 17.3060406,46.5093518 15.4720641,46.5093518 C13.6382742,46.5093518 13,47.4785784 13,47.4785784 C13,47.4785784 13.7703728,47.144651 16.0146485,47.1781368" id="Fill-56" fill="#232A3D"></path>
                <path d="M35,65 C35,65 31.3111982,65.6057286 28.9413297,68.0797516 C27.0313159,70.0748703 27.1461856,72.7637376 27.2611492,73.7281712 C27.2611492,73.7338499 27.2611492,73.7395286 27.2666013,73.7499396 C27.2885036,73.964784 27.315858,74.0859297 27.315858,74.0859297 C27.315858,74.0859297 25.8819611,72.4277475 26.007829,69.7549699 C26.0570857,68.603139 26.3963366,67.2639108 27.2666013,65.7874472 C27.1298293,65.8366627 24.9296333,66.7073976 24.4206158,69.49091 C24.2838439,70.2395528 24.2673936,71.1216451 24.294748,72.0415955 C24.365907,74.6481216 24.7927673,77.5906378 23.8514375,78.8636144 C22.6309238,80.5113856 21.1258678,79.9719085 21,79.9274253 C21.0821572,80.0760181 22.7514335,82.8538518 27.5785919,81.7351467 C32.2907865,80.6438887 33.4784938,77.2442367 33.5879114,76.9025679 C33.5933635,76.8855318 33.5933635,76.8751208 33.5933635,76.8751208 C33.5933635,76.8751208 32.8490607,67.2639108 35,65" id="Fill-42" fill="#DC3D53"></path>
                <path d="M35,65 C35,65 31.2135647,65.5993644 28.7809716,68.0473935 C26.8204044,70.0215501 26.9383144,72.6821662 27.0563209,73.6364667 C27.0563209,73.6420858 27.0563209,73.6477048 27.0619173,73.6580064 C27.331605,74.7977353 27.471997,76.0301784 27.0450316,77.1755263 C26.0787872,79.7649679 24.7080594,79.8249044 24.5844566,79.8249044 C24.7811019,79.901698 27.1461525,80.7136494 29.5169924,78.0417952 C31.3314747,75.9974006 32.724781,76.0788767 33.5505369,76.7775109 C33.5561333,76.7606538 33.5561333,76.7503522 33.5561333,76.7503522 C33.5561333,76.7503522 32.7921306,67.2401245 35,65 Z M25.7698283,69.7050107 C25.2248564,70.21728 24.5562817,71.161279 24.0114063,71.9676114 C23.9833279,71.0573267 24.0002135,70.1845023 24.1406055,69.4437253 C24.6630954,66.6894585 26.9215252,65.8278721 27.0619173,65.7791737 C26.1686188,67.2401245 25.8203887,68.5652818 25.7698283,69.7050107 Z" id="Fill-43" fill="#532B32"></path>
                <path d="M16.854097,36.1845936 C16.7187981,36.1845936 16.0765992,36.4922925 16.0089498,36.6153549 C15.9413003,36.7384173 16.2793592,38 16.2793592,38 C17.1245064,37.6923011 20.1670365,37.7846622 20.1670365,37.7846622 C18.6795962,36.4922925 16.9893017,36.1845936 16.854097,36.1845936 Z M36.3599444,36.4461548 C36.3599444,36.4461548 40.0785922,34.953798 40.8899147,34 C40.8899147,34 43.0196481,34.3999743 44,34.984585 C44,34.984585 42.5463844,36.3692301 40.8222652,37.0769033 C39.098146,37.7846622 36.3599444,36.4461548 36.3599444,36.4461548 Z" id="Fill-44" fill="#FFFFFE"></path>
                <path d="M35.5915998,97 C36.0087994,97.4284682 36.7324353,98.0172542 38,98.7558609 C34.4084002,100.067031 29.781739,100.844763 26,98.4619451 C26,98.4619451 30.5316823,98.6394397 35.5915998,97" id="Fill-49" fill="#181F3B"></path>
                <path d="M46.5008257,74 C46.5008257,74 50.2295598,81.366775 48.5779621,90.1565178 C46.9837157,98.670065 45.383974,100.8703 45.285058,101 C45.3257234,100.810582 46.239048,96.8113423 45,89.5266796 C45.773743,86.5874343 46.6404072,81.5571261 46.5008257,74" id="Fill-50" fill="#181F3B"></path>
                <path d="M39.5647593,27 C39.5647593,27 27.4029009,33.8181881 26.9386179,33.2370143 C26.4742428,32.6557486 27.3995865,30.0157688 27.3995865,30.0157688 C27.3995865,30.0157688 24.4445811,31.7858241 24,32.8398329 C24.7927704,35.6399339 26.9068555,36.2987812 26.9068555,36.2987812 C34.3061993,30.0397319 39.4592529,28.8538802 39.4592529,28.8538802 C47.3875093,31.3903872 49.9966271,37.0893796 49.9966271,37.0893796 L51.350901,37.8141483 C54.0594488,37.879978 57,39 57,39 C48.9268336,28.6441802 39.5647593,27 39.5647593,27" id="Fill-53" fill="#232A3D"></path>
                <path d="M12,33.8321622 C16.3636536,32.2482883 19.6363464,34.2200901 19.6363464,34.2200901 C19.704567,32.6362162 21.5113701,32.1513514 21.5113701,32.1513514 C21.204567,35.4161261 23.5568506,37 23.5568506,37 C22.040508,35.0630631 23.5806043,31.9891892 24,31.6988288 C24,31.6988288 23.9658897,29.7917117 23.0113701,28.9512613 C22.6307405,28.6161261 21.663584,28.2818919 20.6394185,28 C21.2562551,29.9384685 18.4920821,32.1178378 18.4920821,32.1178378 C18.4920821,32.1178378 17.406632,31.4745946 15.2949262,32.0536036 C13.1833154,32.6325225 12,33.8321622 12,33.8321622" id="Fill-55" fill="#232A3D"></path>
                <path d="M12.3716814,37.1519709 C12.4439906,36.4464347 14,35.1360328 14,35.1360328 C12.1140105,34.7016982 10.787535,35.3942175 10,35.9940263 C10.3028515,37.0793945 12.2992714,39 12.2992714,39 C12.2992714,39 12.2992714,37.8576007 12.3716814,37.1519709" id="Fill-57" fill="#232A3D"></path>
                <path d="M15,29.7149974 C16.6032298,28.2287637 17.8056521,28.0001054 17.8056521,28.0001054 C17.8056521,28.0001054 19.1929942,27.9714888 18.9772052,28.8575057 C18.7614161,29.7435226 16.7881496,30.4008811 15,29.7149974" id="Fill-58" fill="#7B9AB3"></path>
                <path d="M33,26 C28.4419022,26.9482489 28,31 28,31 C28,31 30.9281374,30.3965438 31.470064,29.0459601 C32.0118887,27.6953764 33,26 33,26" id="Fill-59" fill="#7B9AB3"></path>
                <path d="M43.5456253,25 C38.8032679,25.7155979 36,28 36,28 C36,28 40.8004501,26.5137784 42.9861414,26.499956 C45.1717352,26.4862216 47,27.4220103 47,27.4220103 C47,27.4220103 45.9225548,25.0292296 43.5456253,25" id="Fill-60" fill="#7B9AB3"></path>
                <path d="M47,38.0497349 C48.2862207,37.771465 50.3771349,38.7164113 50.8761554,39.503898 C51.3751759,40.2912903 50.2049636,41 50.2049636,41 C50.2049636,41 48.4013084,38.4658173 47,38.0497349" id="Fill-61" fill="#7B9AB3"></path>
                <path d="M47.5140516,39 C48.3399403,40.1110716 47.8629972,41 47.8629972,41 C47.8629972,41 46.1804395,39.3951188 47.5140516,39" id="Fill-62" fill="#7B9AB3"></path>
                <path d="M32.1031619,38 C27.6530262,38.1475081 23.4318906,41.8923802 23.4318906,41.8923802 C21.5339528,40.5770271 18,40.2951907 18,40.2951907 C18,40.2951907 18.3305956,40.7261936 20.3833889,41.2354892 C22.4360911,41.7448721 23.6525005,43 23.6525005,43 C23.6525005,43 24.4244981,42.3313258 26.1994088,40.9080911 C28.3092014,39.2163743 31.711372,38.6980012 31.711372,38.6980012 C31.711372,38.6980012 33.3990054,39.066946 35,40.3083704 C33.7575078,38.8318932 32.1031619,38 32.1031619,38" id="Fill-63" fill="#7B9AB3"></path>
            </g>
        </g>
    </g>
</svg>