<?xml version="1.0" encoding="UTF-8"?>
<svg width="81px" height="97px" viewBox="0 0 81 97" version="1.1" xmlns="http://www.w3.org/2000/svg" xmlns:xlink="http://www.w3.org/1999/xlink">
    <!-- Generator: Sketch 51.3 (57544) - http://www.bohemiancoding.com/sketch -->
    <title>Group</title>
    <desc>Created with Sketch.</desc>
    <defs></defs>
    <g id="Page-1" stroke="none" stroke-width="1" fill="none" fill-rule="evenodd">
        <g id="197_snub_nose_monkey_round_hipster_vintage" transform="translate(-2163.000000, -1724.000000)">
            <g id="Group" transform="translate(2163.000000, 1724.000000)">
                <path d="M11.0793218,27.7516401 L9.52773736,29.918656 L11.9732182,22.0367817 C10.7809402,23.1206643 9.61038533,24.4740191 9.61038533,24.4740191 C11.3981782,18.1388002 17.7026449,13.0989959 17.7026449,13.0989959 C18.5201356,12.3315371 19.3770777,11.6051859 20.2480025,10.9215157 C20.8764766,10.4281743 21.5386591,9.92886406 22.2100801,9.47033677 L20.6612423,9.46291941 C24.1224692,5.01348146 26.5182614,2.55062049 31.7188409,1.30263208 C30.0553946,0.959186148 27.9392571,0.719258496 27.9392571,0.719258496 C31.9420654,-0.794281153 39.7646578,0.562595005 40.4508107,0.685992791 C41.1372133,0.562595005 48.9598058,-0.794281153 52.9623644,0.719258496 C52.9623644,0.719258496 50.8921702,0.953966529 49.2372133,1.29141864 C54.4949723,2.53853296 56.7349568,4.97534578 60.338508,9.36067482 L58.7896702,9.47033677 C59.4610912,9.92886406 60.1235234,10.4281743 60.7519975,10.9215157 C61.6229223,11.6052358 62.4801141,12.3315371 63.2976048,13.0992456 C63.3055949,13.1054892 69.6030703,18.1427961 71.3896147,24.4740191 C71.3896147,24.4740191 70.2188101,23.1206643 69.0267818,22.0367817 L71.4722626,29.918656 L69.8440228,27.5728244 C69.975111,28.5280896 70.164627,30.2041117 70.0879716,31.1706153 C70.2402836,31.1918435 70.3881011,31.2195649 70.5286776,31.2532801 C72.2008631,31.6541169 73.245074,32.8915911 73.4855271,34.5860942 C73.6890259,36.0196164 73.7227343,37.7226107 73.5816584,39.2665191 C75.7639642,40.6203733 78.1535142,42.7701571 78.9178206,45.0755304 L80.9096116,51.0835865 L78.4783631,48.7345082 C79.2351788,51.0363852 79.5944852,53.4611354 79.4951079,55.8978733 L79.3919852,58.4232698 C81.1952589,63.1955999 81.07291,66.4837101 80.8624199,71.3389547 L78.4748674,69.8377523 C77.7757306,73.7834346 76.097053,77.5443074 72.7741554,80.0082673 L71.5726387,80.8993486 C71.4767571,81.0779145 71.3803761,81.252984 71.2847441,81.4238079 C69.7701141,84.1240242 67.767836,86.6763929 65.2539396,88.5107518 L55.7611591,95.4376107 L61.2453884,88.6128965 C60.1689673,89.2007904 59.0545931,89.7135118 57.9092571,90.1335788 L56.5883878,90.6178296 C55.9396887,91.4239985 55.2338101,92.1227781 54.4942232,92.6132724 C50.4834248,95.2715319 45.3992016,97.4183187 40.5,96.9118409 C35.6007984,97.4183187 30.5165752,95.2715319 26.5057768,92.6132724 C25.7661899,92.1227781 25.0603113,91.4239985 24.4113625,90.6178296 L23.0904932,90.1335788 C21.9449075,89.7132621 20.8302836,89.2002909 19.7536128,88.612397 L25.2335974,95.4338646 L15.7460604,88.5107518 C13.232164,86.6763929 11.2298859,84.1240242 9.71525586,81.4238079 C9.61937423,81.252984 9.52324291,81.0779145 9.42736128,80.8993486 L8.22559494,80.0082673 C4.90294698,77.5443074 3.22426942,73.7834346 2.52515752,69.8377523 L0.137630086,71.5941916 C-0.060175709,66.6472915 -0.233087238,63.2957467 1.60796486,58.4232698 L1.50491708,55.8978733 C1.40546486,53.4611354 1.76482121,51.0363852 2.52166184,48.7345082 L0.0903634402,51.0835865 L2.08215444,45.0755304 C2.84638594,42.7701571 5.23603576,40.6203733 7.41834155,39.2665191 C7.27726572,37.7226107 7.31072441,36.0196164 7.51422318,34.5860942 C7.75492602,32.8913414 8.79963625,31.6536174 10.4725709,31.2530304 C10.612648,31.2193151 10.7599661,31.1918435 10.9120284,31.1706153 C10.835373,30.2041117 10.9482337,28.7069053 11.0793218,27.7516401" id="Fill-3" fill="#6E4098"></path>
                <path d="M40.5,2.26588903 C40.5,2.26588903 29.0246671,0.653800978 23.4160912,8.45610736 C23.4160912,8.45610736 24.8343403,7.11813671 26.5749414,6.73126056 C26.5749414,6.73126056 23.8510543,10.0037369 23.6415629,10.390613 C23.6415629,10.390613 15.6314519,15.5007698 13.8908508,21.1107364 C13.8908508,21.1107364 16.6951387,17.1772915 18.9356227,15.6136535 C18.9356227,15.6136535 16.2439457,19.7566323 16.2117355,21.481604 C16.2117355,21.481604 12.0695993,26.0758677 12.3115506,29.1224768 C12.3115506,29.1224768 13.7457799,26.8173532 15.6961221,26.1080844 C15.6961221,26.1080844 12.2146702,30.2188465 12.3437608,32.7335041 C12.3437608,32.7335041 9.43460234,32.1371189 9.05581998,34.8051184 C8.67703761,37.4728682 9.08803021,40.1006591 9.08803021,40.1006591 C9.08803021,40.1006591 4.57535142,42.5026828 3.56010481,45.5655252 C3.56010481,45.5655252 6.05827065,43.147518 7.65380086,42.68 C7.65380086,42.68 2.73829439,47.9353321 3.06072133,55.834189 C3.06072133,55.834189 4.3823397,50.3208728 5.76837855,48.5639341 C5.76837855,48.5639341 4.64027127,52.5618126 5.02704377,54.9798198 C5.02704377,54.9798198 1.14286406,60.734637 1.56187176,68.2468924 C1.56187176,68.2468924 2.33549168,62.0083239 4.02777744,60.2511354 C4.02777744,60.2511354 1.67468249,73.2117739 9.15295006,78.7573069 C9.15295006,78.7573069 6.92894575,75.6782312 6.78387485,74.0179428 C6.78387485,74.0179428 8.31498459,76.4037333 9.31425092,76.8390345 C9.31425092,76.8390345 11.5385049,83.5126545 16.6639273,87.2525489 C16.6639273,87.2525489 12.7312824,82.3521009 12.3767201,80.6111457 C12.3767201,80.6111457 16.8574383,86.1886457 23.6265814,88.6713363 C23.6265814,88.6713363 22.8530364,86.2855458 22.7886159,84.6090242 C22.7886159,84.6090242 24.6905179,89.541689 27.3659649,91.314861 C30.0414118,93.0882827 35.2604686,95.9575747 40.5,95.3449562 C45.7395314,95.9575747 50.9585882,93.0882827 53.6340351,91.314861 C56.3094821,89.541689 58.2113841,84.6090242 58.2113841,84.6090242 C58.1469636,86.2855458 57.3734186,88.6713363 57.3734186,88.6713363 C64.1425617,86.1886457 68.6232799,80.6111457 68.6232799,80.6111457 C68.2687176,82.3521009 64.3360727,87.2525489 64.3360727,87.2525489 C69.4614951,83.5126545 71.6857491,76.8390345 71.6857491,76.8390345 C72.6850154,76.4037333 74.2161252,74.0179428 74.2161252,74.0179428 C74.0710543,75.6782312 71.8470499,78.7573069 71.8470499,78.7573069 C79.3253175,73.2117739 76.9722226,60.2511354 76.9722226,60.2511354 C78.6643835,62.0083239 79.4381782,68.2468924 79.4381782,68.2468924 C79.8571609,60.734637 75.9729562,54.9798198 75.9729562,54.9798198 C76.3597287,52.5618126 75.2316215,48.5639341 75.2316215,48.5639341 C76.6176603,50.3208728 77.9392787,55.834189 77.9392787,55.834189 C78.2616307,47.9353321 73.3459494,42.68 73.3459494,42.68 C74.9417293,43.147518 77.4398952,45.5655252 77.4398952,45.5655252 C76.4243989,42.5026828 71.9119698,40.1006591 71.9119698,40.1006591 C71.9119698,40.1006591 72.3227127,37.4728682 71.94418,34.8051184 C71.5653977,32.1371189 68.6562392,32.7335041 68.6562392,32.7335041 C68.7853298,30.2188465 65.3038779,26.1080844 65.3038779,26.1080844 C67.2542201,26.8173532 68.6884494,29.1224768 68.6884494,29.1224768 C68.9304007,26.0758677 64.7882645,21.481604 64.7882645,21.481604 C64.7560543,19.7566323 62.0643773,15.6136535 62.0643773,15.6136535 C64.3048613,17.1772915 67.1091492,21.1107364 67.1091492,21.1107364 C65.3685481,15.5007698 57.3584371,10.390613 57.3584371,10.390613 C57.1486961,10.0037369 54.4250586,6.73126056 54.4250586,6.73126056 C56.1656597,7.11813671 57.5839088,8.45610736 57.5839088,8.45610736 C51.9753329,0.653800978 40.5,2.26588903 40.5,2.26588903" id="Fill-4" fill="#01034D"></path>
                <path d="M40.5,35.2159449 C40.5,35.2159449 39.0837485,33.5234398 37.6654994,34.6839933 C37.6654994,34.6839933 37.117426,34.2327085 36.2954408,33.1363388 C35.4734556,32.0402188 32.8302189,30.863432 30.3804932,32.8945881 C30.3804932,32.8945881 25.8678144,28.9611432 23.3212084,33.8940577 C23.3212084,33.8940577 18.0025247,34.3133754 17.2127497,38.1014701 C17.2127497,38.1014701 18.1638255,36.8602497 19.3885635,36.8442662 C19.3885635,36.8442662 18.5665783,38.021053 18.550598,39.0205227 C18.550598,39.0205227 12.0553668,41.4867302 12.9902127,47.0322631 C12.9902127,47.0322631 13.650897,43.8565371 15.7300801,42.9539676 C15.7300801,42.9539676 15.5850092,44.195188 17.1483292,45.1946576 C18.7118989,46.1941272 18.4055271,47.8062152 18.4055271,48.1930664 C18.4055271,48.5799176 18.4539673,50.4175232 19.9688471,51.0141581 C19.9688471,51.0141581 18.8085296,47.2580304 20.1783385,45.0817739 C20.1783385,45.0817739 19.7433755,50.9334912 22.321942,51.384776 C22.321942,51.384776 21.7419081,48.934552 22.4188224,47.7093151 C22.4188224,47.7093151 22.5961036,51.9973944 25.1909001,54.0770005 C25.1909001,54.0770005 26.2386067,50.4659732 28.9947041,50.4015396 C28.9947041,50.4015396 26.2708169,53.3514985 27.4635943,57.6717945 C27.4635943,57.6717945 27.4473644,58.7356977 26.2548366,60.1542353 C25.0620592,61.5730227 20.6622411,66.2317199 21.9516492,72.6798223 C21.9516492,72.6798223 22.7254439,73.5988749 24.3209741,73.1957904 C24.3209741,73.1957904 25.3524507,79.0152909 31.0579069,82.7229686 C31.0579069,82.7229686 28.7372719,82.5134346 26.9804408,81.8201493 C26.9804408,81.8201493 29.9083261,86.7690474 40.5,87.3172322 C51.0916739,86.7690474 54.0195592,81.8201493 54.0195592,81.8201493 C52.2627281,82.5134346 49.9420931,82.7229686 49.9420931,82.7229686 C55.6475493,79.0152909 56.6790259,73.1957904 56.6790259,73.1957904 C58.2745561,73.5988749 59.0481011,72.6798223 59.0481011,72.6798223 C60.3375092,66.2317199 55.9379408,61.5730227 54.7451634,60.1542353 C53.5523859,58.7356977 53.5364057,57.6717945 53.5364057,57.6717945 C54.7289334,53.3514985 52.0052959,50.4015396 52.0052959,50.4015396 C54.7613933,50.4659732 55.8090999,54.0770005 55.8090999,54.0770005 C58.4038964,51.9973944 58.5811776,47.7093151 58.5811776,47.7093151 C59.2580919,48.934552 58.6778083,51.384776 58.6778083,51.384776 C61.2566245,50.9334912 60.8216615,45.0817739 60.8216615,45.0817739 C62.1914704,47.2580304 61.0311529,51.0141581 61.0311529,51.0141581 C62.5460327,50.4175232 62.5944729,48.5799176 62.5944729,48.1930664 C62.5944729,47.8062152 62.2881011,46.1941272 63.8514211,45.1946576 C65.4149908,44.195188 65.2699199,42.9539676 65.2699199,42.9539676 C67.349103,43.8565371 68.0097873,47.0322631 68.0097873,47.0322631 C68.9446332,41.4867302 62.449402,39.0205227 62.449402,39.0205227 C62.4334217,38.021053 61.6114365,36.8442662 61.6114365,36.8442662 C62.8361745,36.8602497 63.7870006,38.1014701 63.7870006,38.1014701 C62.9972256,34.3133754 57.6787916,33.8940577 57.6787916,33.8940577 C55.1321856,28.9611432 50.6195068,32.8945881 50.6195068,32.8945881 C48.1697811,30.863432 45.5265444,32.0402188 44.7045592,33.1363388 C43.882574,34.2327085 43.3345006,34.6839933 43.3345006,34.6839933 C41.9162515,33.5234398 40.5,35.2159449 40.5,35.2159449" id="Fill-5" fill="#B77B5F"></path>
                <path d="M33.8726819,49.2005278 C33.8726819,49.2005278 33.2794143,49.9747297 33.6621917,51.0318898 C34.3847996,49.9477575 35.6647195,49.0322013 37.0644914,48.9265602 C37.0644914,48.9265602 35.420521,50.2646807 36.0008046,51.3608007 C36.5808385,52.4569207 38.6762515,52.4409372 39.2080949,53.8112745 C39.7399383,55.181362 40.5,57.0352008 40.5,57.0352008 C40.5,57.0352008 41.2600617,55.181362 41.7919051,53.8112745 C42.3237485,52.4409372 44.4191615,52.4569207 44.9991954,51.3608007 C45.579479,50.2646807 43.9355086,48.9265602 43.9355086,48.9265602 C45.3352805,49.0322013 46.6152004,49.9477575 47.3378083,51.0318898 C47.7205857,49.9747297 47.1270684,49.2005278 47.1270684,49.2005278 C47.1270684,49.2005278 44.8224137,46.8954042 43.2268835,47.7175566 C41.6311036,48.5397091 42.372688,49.7002626 42.4208785,50.054897 C42.4693187,50.4095314 42.1145068,51.7798687 41.6311036,52.1022863 C41.1477004,52.4247039 41.0450771,53.2790731 40.5,53.2953064 C40.5,53.2953064 40.4832707,49.0514315 40.0745253,48.2337745 C39.6660296,47.4163671 38.2867324,47.0587358 37.7503946,47.0587358 C37.2140567,47.0587358 35.9626017,47.0332621 35.7838224,47.1099331 C35.6050432,47.186604 35.0047842,47.7997219 35.0047842,47.7997219 L33.8726819,49.2005278" id="Fill-6" fill="#DBB79D"></path>
                <path d="M48.1096054,48.3301751 C48.1096054,48.3301751 52.0904408,51.5059011 50.704402,54.9555947 C49.3183631,58.4055381 46.6269359,55.9872812 45.7243002,57.6156025 C44.8216646,59.243674 45.4341584,60.1142765 42.5329901,60.1787101 C42.5329901,60.1787101 43.3387454,56.5516993 45.8049507,55.8261972 C48.2709063,55.1006952 49.8824168,55.60043 49.6729254,52.9728888 C49.463434,50.3453476 48.1096054,48.3301751 48.1096054,48.3301751" id="Fill-7" fill="#01034D"></path>
                <path d="M50.8567139,56.1640989 C50.8567139,56.1640989 51.6462392,56.6316169 51.9848212,58.3728218 C52.3234032,60.113777 53.177349,61.9353991 54.93418,62.9670855 C56.6910111,63.9987719 57.7062577,67.5773326 57.1581843,68.8670031 C57.1581843,68.8670031 56.6425709,65.7879274 55.3693927,64.9820082 C54.0959649,64.1760891 51.9683416,61.7740654 51.6137793,60.532845 C51.2594667,59.2916246 51.4042879,58.0501545 50.8567139,56.1640989" id="Fill-8" fill="#01034D"></path>
                <path d="M18.8864334,32.0542044 C18.8864334,32.0542044 23.5374414,26.908759 28.7522534,28.4594104 C33.9670654,30.0100618 35.5813224,30.7500489 40.5,30.6796215 C45.4186776,30.7500489 47.032685,30.0100618 52.2477466,28.4594104 C57.4625586,26.908759 62.1135666,32.0542044 62.1135666,32.0542044 C62.1135666,32.0542044 61.1093064,27.9484372 57.6033847,26.0628811 C54.097463,24.1773249 45.8349137,26.7853862 45.8349137,26.7853862 C49.3405857,23.5959243 55.8944945,23.6488697 55.8944945,23.6488697 C53.1461375,20.7236354 47.8431843,22.5387642 45.6234248,23.7545108 C43.4036652,24.9705072 40.5,25.111362 40.5,25.111362 C40.5,25.111362 37.5963348,24.9705072 35.3765752,23.7545108 C33.1568157,22.5387642 27.8538625,20.7236354 25.1055055,23.6488697 C25.1055055,23.6488697 31.6594143,23.5959243 35.1650863,26.7853862 C35.1650863,26.7853862 26.902537,24.1773249 23.3966153,26.0628811 C19.8906936,27.9484372 18.8864334,32.0542044 18.8864334,32.0542044" id="Fill-9" fill="#6E4098"></path>
                <path d="M40.5,23.0322554 C40.5,23.0322554 35.0065321,22.662137 31.1130888,19.0143975 C31.1130888,19.0143975 31.4831319,19.3140886 33.1742941,19.3667842 C34.8657059,19.4197297 36.9885851,20.2656076 36.9885851,20.2656076 C36.9885851,20.2656076 35.9051726,19.4814161 35.4821948,17.7369645 C35.4821948,17.7369645 37.9421578,19.4814161 40.5,19.4991478 C43.0578422,19.4814161 45.5178052,17.7369645 45.5178052,17.7369645 C45.0948274,19.4814161 44.0114149,20.2656076 44.0114149,20.2656076 C44.0114149,20.2656076 46.1342941,19.4197297 47.8257059,19.3667842 C49.5168681,19.3140886 49.8869112,19.0143975 49.8869112,19.0143975 C45.9932182,22.662137 40.5,23.0322554 40.5,23.0322554" id="Fill-10" fill="#6E4098"></path>
                <path d="M40.5,5.82207286 C40.5,5.82207286 32.6903915,4.70749691 32.5677928,7.66747039 C32.5677928,7.66747039 22.7748829,11.1207853 21.8365413,17.661792 C21.8365413,17.661792 27.5489889,11.869863 31.6089766,10.974586 C31.6089766,10.974586 28.3242818,13.3864495 28.8751017,16.5474408 C28.8751017,16.5474408 33.7630672,10.6274189 40.5,10.1706398 C47.2369328,10.6274189 52.1248983,16.5474408 52.1248983,16.5474408 C52.6757182,13.3864495 49.3910234,10.974586 49.3910234,10.974586 C53.4510111,11.869863 59.1634587,17.661792 59.1634587,17.661792 C58.2251171,11.1207853 48.4319575,7.66747039 48.4319575,7.66747039 C48.3096085,4.70749691 40.5,5.82207286 40.5,5.82207286" id="Fill-11" fill="#6E4098"></path>
                <path d="M40.5,36.9166916 C40.5,36.9166916 39.9729007,36.014122 39.2313163,35.6110376 C39.2313163,35.6110376 40.1097318,38.415896 39.81959,40.5277188 C39.81959,40.5277188 37.9823582,37.9486277 38.1918496,35.8205716 C38.1918496,35.8205716 36.8220407,37.1424588 37.0797226,39.6573661 C37.0797226,39.6573661 34.9201387,34.7566684 32.164291,34.9824356 C32.164291,34.9824356 35.1943002,36.9329248 34.8557182,40.1086509 C34.8557182,40.1086509 29.6821054,34.4664676 25.6528298,35.4015036 C21.6235543,36.3365396 19.1738286,42.0431565 19.1738286,42.0431565 C19.1738286,42.0431565 21.9781165,38.5127961 23.815598,38.0612616 C23.815598,38.0612616 22.381119,40.7857029 23.6705271,43.6067945 C23.6705271,43.6067945 22.3166985,42.9297425 21.6882244,41.8658393 C21.6882244,41.8658393 22.0103268,45.9281514 25.6368496,47.0405046 C29.2631227,48.1528579 30.8911128,47.137155 30.8911128,47.137155 C30.8911128,47.137155 29.6661252,48.7652266 29.7627559,50.2968975 C29.7627559,50.2968975 30.4559001,49.2974279 31.1165845,49.0072271 C31.7775185,48.7170263 32.954066,47.1211715 32.8896455,46.2827858 C32.8896455,46.2827858 33.3248582,47.2178218 34.5336159,47.556223 C34.5336159,47.556223 33.7438409,48.281725 33.8726819,49.2005278 C33.8726819,49.2005278 36.1775863,46.8954042 37.7731165,47.7175566 C39.3686467,48.5397091 38.627312,49.7002626 38.5791215,50.054897 C38.5306813,50.4095314 38.8852435,51.7798687 39.3688964,52.1022863 C39.8522996,52.4247039 39.9549229,53.2790731 40.5,53.2953064 C41.0450771,53.2790731 41.1477004,52.4247039 41.6311036,52.1022863 C42.1145068,51.7798687 42.4693187,50.4095314 42.4208785,50.054897 C42.372688,49.7002626 41.6311036,48.5397091 43.2268835,47.7175566 C44.8224137,46.8954042 47.1270684,49.2005278 47.1270684,49.2005278 C47.2561591,48.281725 46.4663841,47.556223 46.4663841,47.556223 C47.6751418,47.2178218 48.1103545,46.2827858 48.1103545,46.2827858 C48.045934,47.1211715 49.2224815,48.7170263 49.8831658,49.0072271 C50.5440999,49.2974279 51.2369945,50.2968975 51.2369945,50.2968975 C51.3338748,48.7652266 50.1088872,47.137155 50.1088872,47.137155 C50.1088872,47.137155 51.7368773,48.1528579 55.3631504,47.0405046 C58.9896732,45.9281514 59.3117756,41.8658393 59.3117756,41.8658393 C58.6833015,42.9297425 57.3294729,43.6067945 57.3294729,43.6067945 C58.618881,40.7857029 57.184402,38.0612616 57.184402,38.0612616 C59.0218835,38.5127961 61.8261714,42.0431565 61.8261714,42.0431565 C61.8261714,42.0431565 59.3764457,36.3365396 55.3471702,35.4015036 C51.3178946,34.4664676 46.1442818,40.1086509 46.1442818,40.1086509 C45.8056998,36.9329248 48.835709,34.9824356 48.835709,34.9824356 C46.0798613,34.7566684 43.9202774,39.6573661 43.9202774,39.6573661 C44.1779593,37.1424588 42.8081504,35.8205716 42.8081504,35.8205716 C43.0176418,37.9486277 41.1801603,40.5277188 41.1801603,40.5277188 C40.8902682,38.415896 41.768434,35.6110376 41.768434,35.6110376 C41.0270993,36.014122 40.5,36.9166916 40.5,36.9166916" id="Fill-12" fill="#01034D"></path>
                <path d="M40.5,60.6786946 C40.5,60.6786946 39.063024,57.3254016 37.8218064,56.2777317 C36.5808385,55.229812 33.5026387,54.9880613 33.0996363,53.2790731 C32.6966338,51.5703347 34.7113964,49.1041272 37.0644914,48.9265602 C37.0644914,48.9265602 35.420521,50.2646807 36.0008046,51.3608007 C36.5808385,52.4571704 38.6762515,52.4409372 39.2080949,53.8112745 C39.7399383,55.181362 40.5,57.0352008 40.5,57.0352008 C40.5,57.0352008 41.2600617,55.181362 41.7919051,53.8112745 C42.3237485,52.4409372 44.4189118,52.4571704 44.9991954,51.3608007 C45.579479,50.2646807 43.9355086,48.9265602 43.9355086,48.9265602 C46.2886036,49.1041272 48.3031165,51.5703347 47.9003637,53.2790731 C47.4973613,54.9880613 44.4191615,55.229812 43.1781936,56.2777317 C41.936976,57.3254016 40.5,60.6786946 40.5,60.6786946" id="Fill-13" fill="#01034D"></path>
                <path d="M32.8903946,48.3301751 C32.8903946,48.3301751 28.9095592,51.5059011 30.295598,54.9555947 C31.6816369,58.4055381 34.3730641,55.9872812 35.2756998,57.6156025 C36.1783354,59.243674 35.5658416,60.1142765 38.4670099,60.1787101 C38.4670099,60.1787101 37.6610049,56.5516993 35.1950493,55.8261972 C32.7290937,55.1006952 31.1175832,55.60043 31.3270746,52.9728888 C31.536566,50.3453476 32.8903946,48.3301751 32.8903946,48.3301751" id="Fill-14" fill="#01034D"></path>
                <path d="M40.5,65.0147245 C40.5,65.0147245 30.1507768,64.4987564 26.1537115,71.7530278 C26.1537115,71.7530278 31.4763903,68.5610685 40.5,67.9486998 C49.5236097,68.5610685 54.8462885,71.7530278 54.8462885,71.7530278 C50.8492232,64.4987564 40.5,65.0147245 40.5,65.0147245" id="Fill-15" fill="#01034D"></path>
                <path d="M40.5,69.7778141 C40.5,69.7778141 31.7303268,69.8906977 30.0541461,73.5823919 C30.0541461,73.5823919 31.2386837,72.5586972 32.0364488,72.5586972 C32.0364488,72.5586972 32.0928792,72.9133316 33.043955,72.8970984 C33.9947811,72.8811148 35.4936806,72.6875644 35.4936806,72.6875644 C35.4936806,72.6875644 35.2357491,73.6063671 36.3880764,73.6465757 C37.5404038,73.687034 39.3898705,73.3563749 40.5,73.4128167 C41.6101295,73.3563749 43.4593465,73.687034 44.6119236,73.6465757 C45.7642509,73.6063671 45.5063194,72.6875644 45.5063194,72.6875644 C45.5063194,72.6875644 47.0052189,72.8811148 47.956045,72.8970984 C48.9071208,72.9133316 48.9635512,72.5586972 48.9635512,72.5586972 C49.7613163,72.5586972 50.9458539,73.5823919 50.9458539,73.5823919 C49.2696732,69.8906977 40.5,69.7778141 40.5,69.7778141" id="Fill-16" fill="#DBB79D"></path>
                <path d="M40.5,76.8270469 C40.5,76.8270469 34.4137639,76.7626133 32.3186005,78.8906694 C32.3186005,78.8906694 35.4777004,77.9716169 36.7348983,78.0845005 C36.7348983,78.0845005 32.7618033,79.2290705 30.9245715,81.9050618 C30.9245715,81.9050618 32.2057398,81.1868023 33.9518342,80.4383239 C33.7473366,81.3653682 33.7473366,82.6747683 33.7473366,82.6747683 C33.7473366,82.6747683 34.2559587,80.368396 35.1326264,80.350914 C35.1326264,80.350914 33.7738039,82.2889161 35.456976,83.3061174 C37.1403977,84.3233187 40.5,83.8850206 40.5,83.8850206 C40.5,83.8850206 43.8596023,84.3233187 45.543024,83.3061174 C47.2261961,82.2889161 45.8673736,80.350914 45.8673736,80.350914 C46.7440413,80.368396 47.2526634,82.6747683 47.2526634,82.6747683 C47.2526634,82.6747683 47.2524137,81.3653682 47.0481658,80.4383239 C48.7942602,81.1868023 50.0754285,81.9050618 50.0754285,81.9050618 C48.2381967,79.2290705 44.2651017,78.0845005 44.2651017,78.0845005 C45.5222996,77.9716169 48.6813995,78.8906694 48.6813995,78.8906694 C46.5859864,76.7626133 40.5,76.8270469 40.5,76.8270469" id="Fill-17" fill="#DBB79D"></path>
                <path d="M30.1432861,56.1640989 C30.1432861,56.1640989 29.3535111,56.6316169 29.0151788,58.3728218 C28.6765968,60.113777 27.822651,61.9353991 26.06582,62.9670855 C24.3089889,63.9987719 23.2937423,67.5773326 23.841566,68.8670031 C23.841566,68.8670031 24.3574291,65.7879274 25.6306073,64.9820082 C26.9040351,64.1760891 29.0314088,61.7740654 29.385971,60.532845 C29.7405333,59.2916246 29.5954624,58.0501545 30.1432861,56.1640989" id="Fill-18" fill="#01034D"></path>
                <path d="M20.7321547,82.617827 C12.7382737,69.0912719 22.835558,64.2827291 22.3439149,58.7918898 C22.2470345,57.7117533 19.7813286,57.1313517 17.1221116,61.0163465 C14.4626449,64.9013414 12.2708508,68.6574691 11.8840783,71.1721267 C11.8840783,71.1721267 15.6876326,64.6918074 17.7183755,63.5310041 C17.7183755,63.5310041 14.656156,69.8502394 16.2034957,75.4924228 C17.7505857,81.1346061 20.7321547,82.617827 20.7321547,82.617827" id="Fill-19" fill="#6E4098"></path>
                <path d="M9.17642109,66.3358625 C9.17642109,66.3358625 10.9494821,60.8550129 17.6219945,56.8893512 C17.6219945,56.8893512 20.7970746,55.3174717 19.3383755,54.8339701 C17.8796763,54.3504686 11.7634772,53.8587255 8.05630395,57.1151184 C8.05630395,57.1151184 12.9560049,55.873898 15.0511683,56.2607492 C15.0511683,56.2607492 12.8756042,57.7115036 10.9737022,60.774346 C9.07204994,63.8371885 9.17642109,66.3358625 9.17642109,66.3358625" id="Fill-20" fill="#6E4098"></path>
                <path d="M8.91074908,53.3912075 C8.91074908,53.3912075 13.3752374,52.2628708 14.9225771,53.0203399 C16.4696671,53.7780587 16.9211097,52.6497219 16.1957552,51.3600515 C15.4704007,50.0703811 14.8259464,48.2969593 15.067648,46.8784217 C15.067648,46.8784217 13.4236776,48.2969593 13.8104501,51.1827343 C13.8104501,51.1827343 11.8441276,51.4082518 10.5387392,52.1177703 C9.23310111,52.8270391 8.91074908,53.3912075 8.91074908,53.3912075" id="Fill-21" fill="#6E4098"></path>
                <path d="M40.5,64.0239959 C40.5,64.0239959 36.3186621,63.4366014 32.1555518,65.0459423 C27.9924414,66.6552832 25.8216215,69.5163337 25.8216215,69.5163337 C25.8216215,69.5163337 24.9789118,66.7831514 27.3030425,65.1735608 C29.6271732,63.5642199 30.2911036,61.9039315 30.5720068,60.1921962 C30.8531597,58.4807106 30.6231936,57.765448 30.6231936,57.765448 C31.1223274,58.6452909 33.0224815,59.060363 33.9450925,58.9157621 C35.2477343,58.711223 34.8389889,61.1382209 37.4185543,61.7001416 C40.9514427,62.4698481 40.4330826,62.4488697 43.7627219,61.7001416 C46.2621363,61.1382209 45.8661252,58.711223 47.1280672,58.9157621 C48.0843866,59.0706025 49.8831658,58.6363002 50.3768064,57.765448 C50.3768064,57.765448 50.1468403,58.4807106 50.4279932,60.1921962 C50.7088964,61.9039315 51.3728268,63.5642199 53.6969575,65.1735608 C56.0210882,66.7831514 55.1783785,69.5163337 55.1783785,69.5163337 C55.1783785,69.5163337 53.0075586,66.6552832 48.8444482,65.0459423 C44.6813379,63.4366014 40.5,64.0239959 40.5,64.0239959" id="Fill-22" fill="#DBB79D"></path>
                <path d="M40.8707922,28.9019542 C40.8707922,28.9019542 43.5509834,29.9910814 46.216942,28.9998532 C48.8831504,28.0083754 54.4527744,26.1655252 57.4817848,28.3994722 C57.4817848,28.3994722 54.592352,24.8810994 47.5290721,27.5338646 C47.5290721,27.5338646 44.8628637,28.5670494 42.741233,27.5895572 C42.741233,27.5895572 43.9277682,27.1987101 44.6953206,26.5563723 C45.4631227,25.9142842 47.0127096,23.6523661 50.5443496,23.5547168 C50.5443496,23.5547168 47.7662793,22.8427008 45.5050709,24.5599305 C43.2436128,26.2771601 42.2246208,26.9194979 41.2892756,26.668257 C40.9279716,26.5711071 40.6518126,26.7868847 40.5,27.1252858 C40.3481874,26.7868847 40.0720284,26.5711071 39.7107244,26.668257 C38.7753792,26.9194979 37.7563872,26.2771601 35.4949291,24.5599305 C33.2337207,22.8427008 30.4559001,23.5547168 30.4559001,23.5547168 C33.9872904,23.6523661 35.5368773,25.9142842 36.3046794,26.5563723 C37.0722318,27.1987101 38.258767,27.5895572 38.258767,27.5895572 C36.1371363,28.5670494 33.4709279,27.5338646 33.4709279,27.5338646 C26.407648,24.8810994 23.5182152,28.3994722 23.5182152,28.3994722 C26.5472256,26.1655252 32.1168496,28.0083754 34.7828083,28.9998532 C37.4490166,29.9910814 40.1292078,28.9019542 40.1292078,28.9019542 C40.2960018,28.7803296 40.4178514,28.6157492 40.5,28.4304403 C40.5818989,28.6157492 40.7039982,28.7803296 40.8707922,28.9019542" id="Fill-23" fill="#9F64BF"></path>
                <path d="M33.4574445,19.8407956 C34.3925401,20.3852343 36.835524,21.809516 39.8365691,22.1723919 C40.1916307,21.7495778 39.9951233,21.0935041 39.8660327,20.7753321 C39.8480549,20.7188903 39.8213379,20.6567044 39.7821363,20.5910221 L39.7813872,20.5895237 L39.7811375,20.5895237 C39.6522965,20.3742456 39.3891215,20.1185093 38.8615228,19.8847503 C37.6357861,19.3413105 37.3638718,19.5166298 36.3034309,18.4042765 C36.3653545,18.4809475 36.9658631,19.2673867 38.0043311,20.0360942 L38.0050801,20.0365937 C38.2964704,20.3073146 38.3980949,20.7768306 38.4610173,21.1427034 L38.4407922,21.139207 C37.2542571,20.9506514 36.3049291,20.7970597 35.3628422,20.503862 C34.4205055,20.2106643 33.4574445,19.8407956 33.4574445,19.8407956" id="Fill-24" fill="#9F64BF"></path>
                <path d="M40.5,6.23799408 C40.5,6.23799408 35.8367571,6.03530304 34.5920438,6.62886612 C34.5920438,6.62886612 36.2247781,6.53481308 37.5341615,7.21521164 C37.5341615,7.21521164 31.1650247,8.08381617 27.8998058,11.0950118 C27.8998058,11.0950118 34.5273736,8.43125798 37.614812,8.25753708 C37.614812,8.25753708 31.8801418,10.9533829 31.1490444,12.9626365 C31.1490444,12.9626365 36.4664797,9.19854197 40.5,9.08273635 C44.5335203,9.19854197 49.8509556,12.9626365 49.8509556,12.9626365 C49.1198582,10.9533829 43.385188,8.25753708 43.385188,8.25753708 C46.4726264,8.43125798 53.1001942,11.0950118 53.1001942,11.0950118 C49.8349753,8.08381617 43.4658385,7.21521164 43.4658385,7.21521164 C44.7752219,6.53481308 46.4079562,6.62886612 46.4079562,6.62886612 C45.1632429,6.03530304 40.5,6.23799408 40.5,6.23799408" id="Fill-25" fill="#9F64BF"></path>
                <path d="M47.5425555,19.8407956 C46.6072102,20.3852343 44.164476,21.809516 41.1634309,22.1723919 C40.8083693,21.7495778 41.0048767,21.0935041 41.1339673,20.7753321 C41.1519451,20.7188903 41.1786621,20.6567044 41.2178637,20.5910221 L41.2186128,20.5895237 L41.2188625,20.5895237 C41.3477035,20.3742456 41.6108785,20.1185093 42.1384772,19.8847503 C43.3642139,19.3413105 43.6361282,19.5166298 44.6965691,18.4042765 C44.6346455,18.4809475 44.0341369,19.2673867 42.9956689,20.0360942 L42.9949199,20.0365937 C42.7035296,20.3073146 42.6019051,20.7768306 42.5389827,21.1427034 L42.5592078,21.139207 C43.7457429,20.9506514 44.6950709,20.7970597 45.6371578,20.503862 C46.5794945,20.2106643 47.5425555,19.8407956 47.5425555,19.8407956" id="Fill-26" fill="#9F64BF"></path>
                <path d="M16.7975123,72.4682904 C16.7975123,72.4682904 18.2022781,64.7025463 20.7306566,61.9181668 C20.7306566,61.9181668 22.3396702,59.8235762 21.5351634,59.0443795 C20.7306566,58.2651828 16.8094975,61.5375592 15.0991091,65.1495855 C15.0991091,65.1495855 18.2404809,61.3944567 19.389812,61.0240886 C19.389812,61.0240886 18.5598366,62.6206926 17.6659402,66.094861 C16.7720438,69.5690294 16.7975123,72.4682904 16.7975123,72.4682904" id="Fill-27" fill="#9F64BF"></path>
                <path d="M10.8203915,55.9275927 C10.8203915,55.9275927 17.1033847,54.4586071 18.201529,55.2887513 C19.2996732,56.1191452 13.8980919,58.0221833 12.6466369,60.3725103 C12.6466369,60.3725103 13.1999538,58.1842662 15.5580425,56.668329 C15.5580425,56.668329 16.51586,56.0552111 16.030709,55.8316916 C15.5453083,55.608172 10.8203915,55.9275927 10.8203915,55.9275927" id="Fill-28" fill="#9F64BF"></path>
                <path d="M14.7153329,48.4235788 C14.7153329,48.4235788 15.2644051,50.7991298 15.7498058,51.5655896 C16.2349568,52.3320494 15.6858847,52.8939701 15.1368126,52.7278913 C14.5877404,52.5618126 12.1624846,52.2353991 10.9737022,52.7151545 C10.9737022,52.7151545 12.2186652,51.8720237 13.7512731,51.9424511 C15.2836313,52.0126287 15.0346887,51.4761818 14.932315,51.0418795 C14.8301911,50.6075772 14.7153329,48.4235788 14.7153329,48.4235788" id="Fill-29" fill="#9F64BF"></path>
                <path d="M60.2963101,82.9402446 C68.2899414,69.4136895 58.1926572,64.6051468 58.6843002,59.1143074 C58.7811806,58.034171 61.2468866,57.4537693 63.9063533,61.3387642 C66.5655703,65.223759 68.7576141,68.9798867 69.1443866,71.4945443 C69.1443866,71.4945443 65.3405826,65.014225 63.3098397,63.8534217 C63.3098397,63.8534217 66.3720592,70.1726571 64.8249692,75.8148404 C63.2776295,81.4570237 60.2963101,82.9402446 60.2963101,82.9402446" id="Fill-30" fill="#6E4098"></path>
                <path d="M71.8517941,66.6582801 C71.8517941,66.6582801 70.0789827,61.1774305 63.4064704,57.2117688 C63.4064704,57.2117688 60.2313903,55.6398893 61.6898397,55.1563877 C63.1485388,54.6728862 69.2649877,54.1811432 72.9719112,57.437536 C72.9719112,57.437536 68.0722102,56.1963157 65.9770469,56.5831668 C65.9770469,56.5831668 68.152611,58.0339212 70.0545129,61.0967636 C71.9564149,64.1596061 71.8517941,66.6582801 71.8517941,66.6582801" id="Fill-31" fill="#6E4098"></path>
                <path d="M72.1174661,53.7136251 C72.1174661,53.7136251 67.6529778,52.5852884 66.1058878,53.3427575 C64.5585481,54.1004763 64.1071054,52.9721395 64.8324599,51.6824691 C65.5578144,50.3927987 66.2025185,48.6193769 65.9605672,47.2008393 C65.9605672,47.2008393 67.6045376,48.6193769 67.2177651,51.5051519 C67.2177651,51.5051519 69.1840875,51.7306694 70.4897256,52.4399382 C71.7951141,53.1494567 72.1174661,53.7136251 72.1174661,53.7136251" id="Fill-32" fill="#6E4098"></path>
                <path d="M64.2307028,72.790708 C64.2307028,72.790708 62.8261868,65.024964 60.2975586,62.2405844 C60.2975586,62.2405844 58.688545,60.1457441 59.4930518,59.3667971 C60.2975586,58.5876004 64.2187176,61.8599768 65.929106,65.4720031 C65.929106,65.4720031 62.7877343,61.7168744 61.6384032,61.3465062 C61.6384032,61.3465062 62.4686282,62.9431102 63.3625247,66.4172786 C64.2564211,69.891447 64.2307028,72.790708 64.2307028,72.790708" id="Fill-33" fill="#9F64BF"></path>
                <path d="M70.2078237,56.2500103 C70.2078237,56.2500103 63.9248305,54.7810247 62.8266862,55.6111689 C61.7285419,56.4415628 67.1301233,58.3446009 68.3815783,60.6946782 C68.3815783,60.6946782 67.8282614,58.5066838 65.4701726,56.9907467 C65.4701726,56.9907467 64.5123551,56.3776287 64.9977559,56.1541092 C65.4829069,55.9305896 70.2078237,56.2500103 70.2078237,56.2500103" id="Fill-34" fill="#9F64BF"></path>
                <path d="M66.3128822,48.7459964 C66.3128822,48.7459964 65.7638101,51.1215474 65.2786591,51.8880072 C64.7932583,52.654467 65.3423305,53.2163877 65.8916523,53.050309 C66.4407244,52.8842302 68.8657306,52.5578167 70.0545129,53.0375721 C70.0545129,53.0375721 68.8095499,52.1944413 67.2771917,52.2648687 C65.7445838,52.3350463 65.9937762,51.7985994 66.0959001,51.3642971 C66.198024,50.9299949 66.3128822,48.7459964 66.3128822,48.7459964" id="Fill-35" fill="#9F64BF"></path>
                <path d="M29.7887238,47.982034 C29.7887238,47.982034 28.9839673,49.0679145 28.9839673,49.8213877 C28.9839673,49.8213877 25.5998952,50.4984398 25.1786652,52.4269516 C25.1786652,52.4269516 22.8033477,48.7100335 22.6245684,46.2578115 C22.6245684,46.2578115 21.4370345,47.2412976 21.3476449,49.118862 C21.3476449,49.118862 20.5813409,45.9001802 20.9900863,43.9714186 C20.9900863,43.9714186 19.227762,44.8654969 18.9850617,47.8032183 C18.9850617,47.8032183 18.7041584,45.7598249 17.7720592,44.9421679 C16.8397102,44.1247606 15.9970006,42.9112616 16.3672935,42.0683805 C16.3672935,42.0683805 14.7198274,42.6430381 14.2856134,43.3073532 C14.2856134,43.3073532 15.6267078,40.816671 18.6275031,40.0120005 C18.6275031,40.0120005 17.2484556,41.417052 17.5293588,41.9917096 C17.810262,42.5666169 19.1765752,43.2946164 20.0322688,42.5408934 C20.8877127,41.7874202 21.079476,39.8713955 22.4075863,39.5137642 C22.4075863,39.5137642 21.8712485,40.7654737 22.3309309,41.3658548 C22.3309309,41.3658548 21.730672,41.3531179 21.6794852,40.880605 C21.6285481,40.4078424 20.9006967,41.5319336 21.5007059,43.4349717 C21.5007059,43.4349717 21.7179377,45.3255227 21.9094513,45.8362461 L22.6884895,45.2488517 C22.6884895,45.2488517 23.4036067,47.0879557 25.2807891,47.6501262 C25.2807891,47.6501262 24.9614334,48.1608496 25.1913995,49.2082698 C25.1913995,49.2082698 25.4083816,48.0587049 26.0725617,47.9056128 C26.736492,47.7522709 29.7887238,47.982034 29.7887238,47.982034" id="Fill-36" fill="#DBB79D"></path>
                <path d="M51.3188933,47.982034 C51.3188933,47.982034 52.1234001,49.0679145 52.1234001,49.8213877 C52.1234001,49.8213877 55.5074723,50.4984398 55.9289519,52.4269516 C55.9289519,52.4269516 58.3040197,48.7100335 58.482799,46.2578115 C58.482799,46.2578115 59.6705826,47.2412976 59.7599723,49.118862 C59.7599723,49.118862 60.5260265,45.9001802 60.1175308,43.9714186 C60.1175308,43.9714186 61.8798551,44.8654969 62.1223058,47.8032183 C62.1223058,47.8032183 62.403209,45.7598249 63.335558,44.9421679 C64.2676572,44.1247606 65.1106165,42.9112616 64.7403237,42.0683805 C64.7403237,42.0683805 66.3875401,42.6430381 66.821754,43.3073532 C66.821754,43.3073532 65.4809094,40.816671 62.4798644,40.0120005 C62.4798644,40.0120005 63.8591615,41.417052 63.5782583,41.9917096 C63.2973551,42.5666169 61.9307922,43.2946164 61.0753483,42.5408934 C60.2196547,41.7874202 60.0281412,39.8713955 58.7000308,39.5137642 C58.7000308,39.5137642 59.2363687,40.7654737 58.7766862,41.3658548 C58.7766862,41.3658548 59.3769451,41.3531179 59.4278822,40.880605 C59.4790691,40.4078424 60.2069205,41.5319336 59.6066615,43.4349717 C59.6066615,43.4349717 59.3896794,45.3255227 59.1979162,45.8362461 L58.4191276,45.2488517 C58.4191276,45.2488517 57.7040105,47.0879557 55.826828,47.6501262 C55.826828,47.6501262 56.145934,48.1608496 55.9162176,49.2082698 C55.9162176,49.2082698 55.6989858,48.0587049 55.0350555,47.9056128 C54.3708755,47.7522709 51.3188933,47.982034 51.3188933,47.982034" id="Fill-37" fill="#DBB79D"></path>
                <path d="M36.7229131,36.5633059 C36.7229131,36.5633059 36.0844513,32.5526905 33.4794174,32.6805587 C30.8741338,32.8081771 30.2868588,33.7277291 30.2868588,33.7277291 C30.2868588,33.7277291 27.0688317,31.3776519 24.3359556,33.4722425 C24.3359556,33.4722425 29.4950863,34.6218074 31.2189581,36.1290036 C31.2189581,36.1290036 31.1934895,34.5835968 30.7592756,34.3281102 C30.7592756,34.3281102 33.6836652,34.2896498 34.7563409,35.0815834 C35.8290166,35.873517 36.7229131,36.5633059 36.7229131,36.5633059" id="Fill-38" fill="#DBB79D"></path>
                <path d="M43.978955,36.5633059 C43.978955,36.5633059 44.6174168,32.5526905 47.2227004,32.6805587 C49.8277343,32.8081771 50.4150092,33.7277291 50.4150092,33.7277291 C50.4150092,33.7277291 53.6332861,31.3776519 56.3659125,33.4722425 C56.3659125,33.4722425 51.2067818,34.6218074 49.48291,36.1290036 C49.48291,36.1290036 49.5083785,34.5835968 49.9425925,34.3281102 C49.9425925,34.3281102 47.0182028,34.2896498 45.9455271,35.0815834 C44.8728514,35.873517 43.978955,36.5633059 43.978955,36.5633059" id="Fill-39" fill="#DBB79D"></path>
                <path d="M31.5445561,59.6657389 C31.5445561,59.6657389 32.9108693,60.2334037 33.7410943,60.2116761 C34.5710697,60.1899485 35.3243896,62.0455355 37.0612454,62.3619593 C38.7978514,62.6786329 37.0100586,63.0497503 35.7204007,63.1806153 C34.4304932,63.3117302 30.9827497,64.1413749 30.076119,64.6216298 C30.076119,64.6216298 30.995484,63.3334578 32.5023736,63.1261715 C34.0092633,62.9186354 34.14959,63.0277729 34.3922904,62.7877703 C34.6349908,62.547518 32.2214704,62.3619593 31.2891215,62.8094979 C31.2891215,62.8094979 31.9915043,62.1764006 33.1153668,62.0235582 C34.2389797,61.8707158 34.1368557,61.1067533 33.8047657,60.9319336 C33.4729254,60.7573635 32.1957522,60.4626674 31.5445561,59.6657389" id="Fill-40" fill="#FFF1E2"></path>
                <path d="M49.695897,59.6657389 C49.695897,59.6657389 48.3295838,60.2334037 47.4993588,60.2116761 C46.6693835,60.1899485 45.9158138,62.0455355 44.1792078,62.3619593 C42.442352,62.6786329 44.2303946,63.0497503 45.5200524,63.1806153 C46.8099599,63.3117302 50.2577035,64.1413749 51.1643342,64.6216298 C51.1643342,64.6216298 50.2449692,63.3334578 48.7380795,63.1261715 C47.2311899,62.9186354 47.0908631,63.0277729 46.8481628,62.7877703 C46.6054624,62.547518 49.0189827,62.3619593 49.9513317,62.8094979 C49.9513317,62.8094979 49.2489488,62.1764006 48.1250863,62.0235582 C47.0012238,61.8707158 47.1035974,61.1067533 47.4354377,60.9319336 C47.7675277,60.7573635 49.0444513,60.4626674 49.695897,59.6657389" id="Fill-41" fill="#FFF1E2"></path>
                <path d="M25.3891554,50.9165088 C25.3891554,50.9165088 27.3811961,49.5753913 27.8920654,49.46026 C28.402685,49.3453785 28.6838379,48.4640371 28.6838379,48.4640371 C28.6838379,48.4640371 26.5000339,48.2597477 26.3085203,48.4513002 C26.1170068,48.6428527 25.8743064,48.8473919 25.7849168,49.4093126 C25.7849168,49.4093126 26.4041523,49.0324511 26.9215136,48.9175695 C27.4386252,48.802688 27.5472411,49.109122 27.5472411,49.109122 C27.5472411,49.109122 25.5102559,50.0479042 25.3891554,50.9165088" id="Fill-42" fill="#FFF1E2"></path>
                <path d="M16.9096239,42.6078244 C16.9096239,42.6078244 17.4332275,44.0385994 18.0077682,44.4217044 C18.5825586,44.8048095 18.7613379,45.456138 18.7613379,45.456138 C18.7613379,45.456138 19.8979346,43.9362049 20.4852096,43.6042971 C21.0727343,43.2721395 20.5745993,42.6972322 20.5745993,42.6972322 C20.5745993,42.6972322 19.2592232,43.7446524 18.4804346,43.5148893 C17.7013964,43.2848764 16.9096239,42.6078244 16.9096239,42.6078244" id="Fill-43" fill="#FFF1E2"></path>
                <path d="M55.6026048,50.9165088 C55.6026048,50.9165088 53.6105641,49.5753913 53.0996948,49.46026 C52.5890752,49.3453785 52.3079223,48.4640371 52.3079223,48.4640371 C52.3079223,48.4640371 54.4917263,48.2597477 54.6832398,48.4513002 C54.8747534,48.6428527 55.1174538,48.8473919 55.2068434,49.4093126 C55.2068434,49.4093126 54.5876079,49.0324511 54.0702466,48.9175695 C53.553135,48.802688 53.4445191,49.109122 53.4445191,49.109122 C53.4445191,49.109122 55.4815043,50.0479042 55.6026048,50.9165088" id="Fill-44" fill="#FFF1E2"></path>
                <path d="M64.0821363,42.6078244 C64.0821363,42.6078244 63.5585327,44.0385994 62.9837423,44.4217044 C62.4092016,44.8048095 62.2304223,45.456138 62.2304223,45.456138 C62.2304223,45.456138 61.0938255,43.9362049 60.5065506,43.6042971 C59.9190259,43.2721395 60.4171609,42.6972322 60.4171609,42.6972322 C60.4171609,42.6972322 61.7322873,43.7446524 62.5113255,43.5148893 C63.2903637,43.2848764 64.0821363,42.6078244 64.0821363,42.6078244" id="Fill-45" fill="#FFF1E2"></path>
                <path d="M47.3872472,71.6798532 C47.3872472,71.6798532 46.3165691,71.480309 46.2346702,71.5929428 C46.1527713,71.705327 46.1819852,72.0634578 45.7375339,72.0634578 C45.2928329,72.0634578 44.105299,71.9508239 44.105299,71.9508239 C44.105299,71.9508239 44.7547472,72.718033 44.4096732,72.8561406 C44.4096732,72.8561406 44.23414,72.4110994 43.8713379,72.2729918 C42.7759402,71.8559217 38.2240598,71.8559217 37.1286621,72.2729918 C36.76586,72.4110994 36.5903268,72.8561406 36.5903268,72.8561406 C36.2452528,72.718033 36.894701,71.9508239 36.894701,71.9508239 C36.894701,71.9508239 35.7071671,72.0634578 35.2624661,72.0634578 C34.8180148,72.0634578 34.8472287,71.705327 34.7653298,71.5929428 C34.6834309,71.480309 33.6127528,71.6798532 33.6127528,71.6798532 C36.4812115,70.2640628 44.5185388,70.2640628 47.3872472,71.6798532" id="Fill-46" fill="#FFF1E2"></path>
                <path d="M44.9834649,78.8956643 C44.9834649,78.8956643 41.8827928,78.362464 40.5254686,78.562258 C39.1681443,78.362464 36.0674723,78.8956643 36.0674723,78.8956643 C36.0674723,78.8956643 36.8702312,78.8996601 37.5663718,78.9246344 C38.2622626,78.9496087 38.7843681,79.2038465 38.7843681,79.2038465 C37.8188101,79.2038465 35.8429994,80.1451262 35.8429994,80.1451262 C36.7523767,79.8366941 38.0210604,80.1366349 38.0210604,80.1366349 C38.0210604,80.1366349 37.2015721,80.1366349 36.4155425,80.9030947 C35.6297626,81.6695546 37.010558,82.4692302 37.010558,82.4692302 C36.9431412,82.3026519 37.336156,82.2274794 37.336156,82.2274794 C37.9761159,82.7606797 40.5254686,82.6690242 40.5254686,82.6690242 C40.5254686,82.6690242 43.0750709,82.7606797 43.7147811,82.2274794 C43.7147811,82.2274794 44.1077959,82.3026519 44.0403792,82.4692302 C44.0403792,82.4692302 45.4214242,81.6695546 44.6353946,80.9030947 C43.8496147,80.1366349 43.0301264,80.1366349 43.0301264,80.1366349 C43.0301264,80.1366349 44.2985604,79.8366941 45.2079377,80.1451262 C45.2079377,80.1451262 43.232127,79.2038465 42.2665691,79.2038465 C42.2665691,79.2038465 42.7886745,78.9496087 43.484815,78.9246344 C44.1809556,78.8996601 44.9834649,78.8956643 44.9834649,78.8956643" id="Fill-47" fill="#FFF1E2"></path>
                <path d="M40.5,45.1462075 C40.5,45.1462075 41.1524445,45.1462075 41.4970191,45.0115963 C41.8415937,44.8772348 42.1517109,45.3747219 42.9527219,45.3410067 C43.7539827,45.3072915 44.632648,44.6622065 45.7095684,44.5076159 C46.7864889,44.3530252 47.1398027,44.6419773 47.0276911,45.0855201 C46.9158292,45.5290628 46.0284248,46.6381694 46.0284248,46.6381694 C46.0284248,46.6381694 45.1065629,45.9189109 43.995185,46.0667585 C42.8840567,46.2146061 42.43586,46.5237873 42.2635727,46.4768357 C42.0912855,46.4296344 41.2261036,46.0265499 40.5,46.0735015 C39.7738964,46.0265499 38.9087145,46.4296344 38.7364273,46.4768357 C38.56414,46.5237873 38.1159433,46.2146061 37.004815,46.0667585 C35.8934371,45.9189109 34.9715752,46.6381694 34.9715752,46.6381694 C34.9715752,46.6381694 34.0841708,45.5290628 33.9723089,45.0855201 C33.8601973,44.6419773 34.2135111,44.3530252 35.2904316,44.5076159 C36.3671023,44.6622065 37.2457676,45.3072915 38.0470284,45.3410067 C38.8482891,45.3747219 39.1584063,44.8772348 39.5029809,45.0115963 C39.8475555,45.1462075 40.5,45.1462075 40.5,45.1462075" id="Fill-48" fill="#B77B5F"></path>
                <path d="M36.2350154,42.5426416 C36.2350154,42.5426416 33.1385882,41.7384706 32.3875154,40.5681771 C31.636193,39.3981334 29.6998335,38.6781256 29.6998335,38.6781256 C29.6998335,38.6781256 31.5305734,40.1438646 31.8122256,40.9283059 C31.985262,41.4100592 32.3515598,42.0321679 32.8402065,42.4377497 C32.3313348,42.3083831 31.8501788,42.1060917 31.4698983,41.7966607 C29.920561,40.5364598 26.6578391,38.5048043 25.6955271,39.5334938 C24.7332152,40.5621833 24.9444544,43.6482518 26.7986652,44.8829789 C26.7986652,44.8829789 26.1884186,43.2112024 26.4935419,42.7739032 C26.7986652,42.3368538 27.3622195,44.8055587 28.7470099,44.9856231 C30.1320499,45.1656874 31.188246,43.674225 32.5730364,43.3655433 C33.9266153,43.0638543 36.131643,42.5658677 36.2310203,42.5433908 L36.2332676,42.5428913 L36.2340166,42.5426416 L36.2350154,42.5426416" id="Fill-49" fill="#F50900"></path>
                <path d="M48.3595469,42.4377497 C48.8446979,42.3083831 49.3028822,42.1060917 49.6654346,41.7966607 C51.1413625,40.5364598 54.2502744,38.5048043 55.1673921,39.5334938 C56.0842602,40.5621833 55.8830086,43.6482518 54.1161899,44.8829789 C54.1161899,44.8829789 54.6977219,43.2112024 54.4068311,42.7739032 C54.1161899,42.3368538 53.5793527,44.8055587 52.2597318,44.9856231 C50.940111,45.1656874 49.9336036,43.674225 48.6142324,43.3655433 C47.3245746,43.0638543 45.2236683,42.5658677 45.1287855,42.5433908 L45.1265382,42.5428913 L45.1260388,42.5426416 L45.1250401,42.5426416 C45.1250401,42.5426416 48.0753977,41.7384706 48.7910142,40.5681771 C49.5068804,39.3981334 51.3518527,38.6781256 51.3518527,38.6781256 C51.3518527,38.6781256 49.6075062,40.1438646 49.3390875,40.9283059 C49.174291,41.4100592 48.8254716,42.0321679 48.3595469,42.4377497" id="Fill-50" fill="#F50900"></path>
                <path d="M14.2122041,35.3218357 C14.2122041,35.3218357 12.0501233,33.4422734 10.892053,34.7853888 C9.73398274,36.1282544 10.4833076,41.5037127 11.6838255,41.7080021 C11.6838255,41.7080021 12.3682306,38.6161895 13.056381,37.128723 C12.6788471,36.7046601 12.1377651,36.1584732 11.8493711,36.1504815 C11.3767047,36.1377446 11.1979254,38.232585 11.1979254,38.232585 C10.8276326,37.6322039 10.9936776,35.4864161 11.5812022,35.1542585 C11.9697226,34.9347348 13.0009494,35.5758239 13.6543927,36.0348507 C14.0261837,35.4414624 14.2122041,35.3218357 14.2122041,35.3218357" id="Fill-51" fill="#B77B5F"></path>
                <path d="M66.0941523,35.3218357 C66.0941523,35.3218357 68.2564827,33.4422734 69.414553,34.7853888 C70.5723736,36.1282544 69.8230487,41.5037127 68.6227805,41.7080021 C68.6227805,41.7080021 67.9383755,38.6161895 67.2499753,37.128723 C67.6275092,36.7046601 68.1685912,36.1584732 68.4572349,36.1504815 C68.9296517,36.1377446 69.1084309,38.232585 69.1084309,38.232585 C69.4787238,37.6322039 69.3126788,35.4864161 68.7254038,35.1542585 C68.3366338,34.9347348 67.3056566,35.5758239 66.6519636,36.0348507 C66.2801726,35.4414624 66.0941523,35.3218357 66.0941523,35.3218357" id="Fill-52" fill="#B77B5F"></path>
                <path d="M54.5873582,85.6556952 C54.5873582,85.6556952 52.5441307,88.9622863 46.0826079,90.8485917 C46.0826079,90.8485917 47.8449322,91.0483857 50.0924075,90.36037 C50.0924075,90.36037 45.1844667,92.6684655 40.5,92.7571241 C35.8155333,92.6684655 30.9075925,90.36037 30.9075925,90.36037 C33.1550678,91.0483857 34.9173921,90.8485917 34.9173921,90.8485917 C28.4556196,88.9622863 26.4123921,85.6556952 26.4123921,85.6556952 C33.2312238,90.4292739 47.7687762,90.4292739 54.5873582,85.6556952" id="Fill-53" fill="#6E4098"></path>
                <path d="M40.5,90.0349305 C40.5,90.0349305 45.035151,90.1036097 48.5852682,89.180811 C48.5852682,89.180811 45.137275,90.7417019 43.1579686,90.9577291 C43.1579686,90.9577291 43.4134032,91.1737564 44.6393896,91.1834964 C41.5282306,91.9614444 39.4717694,91.9614444 36.3606104,91.1834964 C37.5865968,91.1737564 37.8420314,90.9577291 37.8420314,90.9577291 C35.862725,90.7417019 32.4147318,89.180811 32.4147318,89.180811 C35.964849,90.1036097 40.5,90.0349305 40.5,90.0349305" id="Fill-54" fill="#9F64BF"></path>
                <path d="M35.5074137,34.6792482 C35.5074137,34.6792482 34.2814273,33.0187101 32.8766615,33.248723 C31.4721455,33.4784861 31.1912423,33.6573018 31.1912423,33.6573018 C31.1912423,33.6573018 32.9790351,33.5678939 33.8090105,33.9255252 C34.6389858,34.2831565 35.5074137,34.6792482 35.5074137,34.6792482" id="Fill-55" fill="#FFF1E2"></path>
                <path d="M30.2588933,34.6153141 C30.2588933,34.6153141 29.594963,33.4530124 28.3307737,33.248723 C27.0663348,33.0444336 26.1215012,33.1975257 26.1215012,33.1975257 C26.1215012,33.1975257 26.8875555,33.2869336 27.513283,33.6575515 C28.1390105,34.0279197 30.2588933,34.6153141 30.2588933,34.6153141" id="Fill-56" fill="#FFF1E2"></path>
                <path d="M45.276603,34.6792482 C45.276603,34.6792482 46.5025894,33.0187101 47.9071054,33.248723 C49.3118711,33.4784861 49.5927744,33.6573018 49.5927744,33.6573018 C49.5927744,33.6573018 47.8049815,33.5678939 46.9750062,33.9255252 C46.1450308,34.2831565 45.276603,34.6792482 45.276603,34.6792482" id="Fill-57" fill="#FFF1E2"></path>
                <path d="M50.5251233,34.6153141 C50.5251233,34.6153141 51.1890536,33.4530124 52.4532429,33.248723 C53.7174322,33.0444336 54.6625154,33.1975257 54.6625154,33.1975257 C54.6625154,33.1975257 53.8962115,33.2869336 53.270484,33.6575515 C52.6447565,34.0279197 50.5251233,34.6153141 50.5251233,34.6153141" id="Fill-58" fill="#FFF1E2"></path>
            </g>
        </g>
    </g>
</svg>